<svg width="20" height="20" viewBox="0 0 20 20" fill="none" xmlns="http://www.w3.org/2000/svg">
<path d="M10.2568 3.81818C11.0757 2.99962 12.1288 2.5 13.4091 2.5C16.1651 2.5 18.3333 4.75265 18.3333 7.92273C18.3333 9.82424 17.3977 11.4053 15.6697 13.111C15.2977 13.4784 14.161 14.5193 14.1098 14.5686C13.9489 14.7216 13.7754 14.8803 13.5898 15.0439C13.349 15.256 13.1045 15.4639 12.8564 15.6674C12.3261 16.103 11.7598 16.5417 11.1939 16.9621C10.9431 17.1485 10.6905 17.3324 10.436 17.5136C10.1745 17.6977 9.82553 17.6977 9.56401 17.5136C9.30937 17.3325 9.05658 17.1488 8.80567 16.9625C8.24123 16.5443 7.68703 16.1125 7.14355 15.6674C6.8955 15.4639 6.65102 15.256 6.41022 15.0439C6.22461 14.8803 6.05113 14.7216 5.89014 14.5686C5.83901 14.5193 4.70226 13.478 4.33029 13.111C2.60264 11.4053 1.66666 9.82462 1.66666 7.92273C1.66666 4.75227 3.83484 2.5 6.5909 2.5C7.8712 2.5 8.92423 2.99924 9.74317 3.81818C9.83522 3.91023 9.92082 4.00227 9.99999 4.09318C10.0795 4.00227 10.1648 3.91023 10.2568 3.81856V3.81818Z" fill="black"/>
</svg>
