<svg width="24" height="24" viewBox="0 0 24 24" fill="none" xmlns="http://www.w3.org/2000/svg">
<path d="M17 2H7C6.2 2 5.39999 2.3 4.89999 2.9C4.39999 3.5 4 4.2 4 5V19C4 19.8 4.29999 20.6 4.89999 21.1C5.49999 21.7 6.2 22 7 22H17C17.8 22 18.6 21.7 19.1 21.1C19.7 20.5 20 19.8 20 19V5C20 4.2 19.7 3.4 19.1 2.9C18.6 2.3 17.8 2 17 2Z" fill="#AAC5F9"/>
<path d="M15.7 11.3L11.7 7.3C11.5 7.1 11.3 7 11 7C10.7 7 10.5 7.1 10.3 7.3C10.1 7.5 10 7.7 10 8C10 8.3 10.1 8.5 10.3 8.7L12.6 11H4V13H12.6L10.3 15.3C10.2 15.4 10.1 15.5 10.1 15.6C10 15.7 10 15.9 10 16C10 16.1 10 16.3 10.1 16.4C10.2 16.5 10.2 16.6 10.3 16.7C10.4 16.8 10.5 16.9 10.6 16.9C10.7 17 10.9 17 11 17C11.1 17 11.3 17 11.4 16.9C11.5 16.8 11.6 16.8 11.7 16.7L15.7 12.7C15.8 12.6 15.9 12.5 15.9 12.4C16 12.3 16 12.1 16 12C16 11.9 16 11.7 15.9 11.6C15.9 11.5 15.8 11.4 15.7 11.3Z" fill="#2B6DEF"/>
</svg>
