<svg width="20" height="20" viewBox="0 0 20 20" fill="none" xmlns="http://www.w3.org/2000/svg">
<path d="M10 3.33329C10 2.59087 10.9894 2.21907 11.5079 2.74404L18.0922 9.41071C18.4137 9.73614 18.4137 10.2638 18.0922 10.5892L11.5079 17.2559C10.9894 17.7809 10 17.409 10 16.6666V13.3333C6.95442 13.3333 4.83552 14.3331 3.35389 16.3333C2.93807 16.8947 2.06506 16.7162 1.89698 16.0354C1.27754 13.5267 1.9108 11.2826 3.75956 9.41071C5.39664 7.75316 7.42072 6.84761 10 6.69114V3.33329Z" fill="#979797"/>
<mask id="mask0" mask-type="alpha" maskUnits="userSpaceOnUse" x="1" y="2" width="18" height="16">
<path d="M10 3.33329C10 2.59087 10.9894 2.21907 11.5079 2.74404L18.0922 9.41071C18.4137 9.73614 18.4137 10.2638 18.0922 10.5892L11.5079 17.2559C10.9894 17.7809 10 17.409 10 16.6666V13.3333C6.95442 13.3333 4.83552 14.3331 3.35389 16.3333C2.93807 16.8947 2.06506 16.7162 1.89698 16.0354C1.27754 13.5267 1.9108 11.2826 3.75956 9.41071C5.39664 7.75316 7.42072 6.84761 10 6.69114V3.33329Z" fill="white"/>
</mask>
<g mask="url(#mask0)">
<rect width="20" height="20" fill="#161A21"/>
</g>
</svg>
