<svg width="20" height="20" viewBox="0 0 20 20" fill="none" xmlns="http://www.w3.org/2000/svg">
<mask id="path-1-inside-1" fill="white">
<path d="M10.2568 3.81818C11.0757 2.99962 12.1288 2.5 13.4091 2.5C16.1651 2.5 18.3333 4.75265 18.3333 7.92273C18.3333 9.82424 17.3977 11.4053 15.6697 13.111C15.2977 13.4784 14.161 14.5193 14.1098 14.5686C13.9489 14.7216 13.7754 14.8803 13.5898 15.0439C13.349 15.256 13.1045 15.4639 12.8564 15.6674C12.3261 16.103 11.7598 16.5417 11.1939 16.9621C10.9431 17.1485 10.6905 17.3324 10.436 17.5136C10.1745 17.6977 9.82553 17.6977 9.56401 17.5136C9.30937 17.3325 9.05658 17.1488 8.80567 16.9625C8.24123 16.5443 7.68703 16.1125 7.14355 15.6674C6.8955 15.4639 6.65102 15.256 6.41022 15.0439C6.22461 14.8803 6.05113 14.7216 5.89014 14.5686C5.83901 14.5193 4.70226 13.478 4.33029 13.111C2.60264 11.4053 1.66666 9.82462 1.66666 7.92273C1.66666 4.75227 3.83484 2.5 6.5909 2.5C7.8712 2.5 8.92423 2.99924 9.74317 3.81818C9.83522 3.91023 9.92082 4.00227 9.99999 4.09318C10.0795 4.00227 10.1648 3.91023 10.2568 3.81856V3.81818Z"/>
</mask>
<path d="M10.2568 3.81818L9.54987 3.11091L9.25681 3.40383V3.81818H10.2568ZM15.6697 13.111L14.9672 12.3993L14.9669 12.3995L15.6697 13.111ZM14.1098 14.5686L14.7988 15.2934L14.8035 15.2889L14.1098 14.5686ZM13.5898 15.0439L14.2507 15.7944L14.2511 15.794L13.5898 15.0439ZM12.8564 15.6674L12.2221 14.8944L12.2217 14.8947L12.8564 15.6674ZM11.1939 16.9621L10.5975 16.1594L10.5974 16.1595L11.1939 16.9621ZM10.436 17.5136L11.0115 18.3315L11.0161 18.3281L10.436 17.5136ZM9.56401 17.5136L8.98431 18.3285L8.98851 18.3314L9.56401 17.5136ZM8.80567 16.9625L9.40174 16.1596L9.40096 16.159L8.80567 16.9625ZM7.14355 15.6674L6.5092 16.4405L6.50996 16.4411L7.14355 15.6674ZM6.41022 15.0439L5.7489 15.794L5.74929 15.7944L6.41022 15.0439ZM5.89014 14.5686L5.19649 15.2889L5.20117 15.2933L5.89014 14.5686ZM4.33029 13.111L3.62773 13.8226L3.62791 13.8228L4.33029 13.111ZM9.99999 4.09318L9.24586 4.7499L9.99819 5.61383L10.7526 4.75169L9.99999 4.09318ZM10.2568 3.81856L10.9625 4.52712L11.2568 4.23398V3.81856H10.2568ZM10.9638 4.52545C11.6112 3.8783 12.4158 3.5 13.4091 3.5V1.5C11.8418 1.5 10.5403 2.12094 9.54987 3.11091L10.9638 4.52545ZM13.4091 3.5C15.5399 3.5 17.3333 5.22909 17.3333 7.92273H19.3333C19.3333 4.27621 16.7903 1.5 13.4091 1.5V3.5ZM17.3333 7.92273C17.3333 9.43781 16.6107 10.7771 14.9672 12.3993L16.3722 13.8227C18.1848 12.0335 19.3333 10.2107 19.3333 7.92273H17.3333ZM14.9669 12.3995C14.5734 12.7883 13.5384 13.7306 13.4162 13.8482L14.8035 15.2889C14.7836 15.3081 16.0221 14.1685 16.3724 13.8224L14.9669 12.3995ZM13.4209 13.8438C13.2696 13.9876 13.1054 14.1378 12.9284 14.2938L14.2511 15.794C14.4454 15.6228 14.6281 15.4556 14.7988 15.2933L13.4209 13.8438ZM12.9288 14.2935C12.6968 14.4979 12.4611 14.6982 12.2221 14.8944L13.4908 16.4405C13.7478 16.2295 14.0012 16.0142 14.2507 15.7944L12.9288 14.2935ZM12.2217 14.8947C11.7062 15.3181 11.153 15.7467 10.5975 16.1594L11.7903 17.7648C12.3666 17.3366 12.946 16.8879 13.4912 16.4402L12.2217 14.8947ZM10.5974 16.1595C10.352 16.3419 10.1048 16.5218 9.85583 16.6991L11.0161 18.3281C11.2761 18.143 11.5342 17.9551 11.7904 17.7647L10.5974 16.1595ZM9.86048 16.6958C9.94416 16.6369 10.0558 16.6369 10.1395 16.6958L8.98851 18.3314C9.59524 18.7584 10.4047 18.7584 11.0115 18.3314L9.86048 16.6958ZM10.1437 16.6988C9.89456 16.5216 9.64723 16.3418 9.40174 16.1596L8.20961 17.7654C8.46594 17.9557 8.72419 18.1434 8.98432 18.3285L10.1437 16.6988ZM9.40096 16.159C8.84953 15.7505 8.3081 15.3286 7.77715 14.8938L6.50996 16.4411C7.06596 16.8964 7.63293 17.3382 8.21038 17.766L9.40096 16.159ZM7.77791 14.8944C7.53884 14.6982 7.30322 14.4979 7.07114 14.2935L5.74929 15.7944C5.99882 16.0142 6.25216 16.2295 6.5092 16.4405L7.77791 14.8944ZM7.07154 14.2938C6.8946 14.1378 6.73039 13.9876 6.57912 13.8438L5.20117 15.2933C5.37187 15.4556 5.55462 15.6228 5.7489 15.794L7.07154 14.2938ZM6.58378 13.8482C6.46103 13.73 5.42744 12.7887 5.03267 12.3992L3.62791 13.8228C3.97708 14.1673 5.21698 15.3086 5.1965 15.2889L6.58378 13.8482ZM5.03286 12.3994C3.38957 10.777 2.66666 9.43809 2.66666 7.92273H0.666656C0.666656 10.2112 1.81571 12.0336 3.62773 13.8226L5.03286 12.3994ZM2.66666 7.92273C2.66666 5.22876 4.45999 3.5 6.5909 3.5V1.5C3.20969 1.5 0.666656 4.27578 0.666656 7.92273H2.66666ZM6.5909 3.5C7.58441 3.5 8.38883 3.87806 9.03607 4.52529L10.4503 3.11108C9.45963 2.12043 8.158 1.5 6.5909 1.5V3.5ZM9.03607 4.52529C9.11165 4.60087 9.18159 4.6761 9.24586 4.7499L10.7541 3.43646C10.6601 3.32845 10.5588 3.21958 10.4503 3.11108L9.03607 4.52529ZM10.7526 4.75169C10.8193 4.67542 10.8889 4.6004 10.9625 4.52712L9.55116 3.11C9.44065 3.22005 9.33977 3.32912 9.24741 3.43468L10.7526 4.75169ZM11.2568 3.81856V3.81818H9.25681V3.81856H11.2568Z" fill="black" mask="url(#path-1-inside-1)"/>
<mask id="mask0" mask-type="alpha" maskUnits="userSpaceOnUse" x="1" y="2" width="18" height="16">
<path d="M10.2568 3.81818C11.0758 2.99962 12.1288 2.5 13.4091 2.5C16.1652 2.5 18.3334 4.75265 18.3334 7.92273C18.3334 9.82424 17.3977 11.4053 15.6697 13.111C15.2977 13.4784 14.161 14.5193 14.1099 14.5686C13.9489 14.7216 13.7754 14.8803 13.5898 15.0439C13.349 15.256 13.1045 15.4639 12.8565 15.6674C12.3262 16.103 11.7599 16.5417 11.194 16.9621C10.9432 17.1485 10.6905 17.3324 10.436 17.5136C10.1745 17.6977 9.82556 17.6977 9.56404 17.5136C9.3094 17.3325 9.05661 17.1488 8.8057 16.9625C8.24126 16.5443 7.68706 16.1125 7.14358 15.6674C6.89553 15.4639 6.65105 15.256 6.41025 15.0439C6.22464 14.8803 6.05116 14.7216 5.89017 14.5686C5.83904 14.5193 4.70229 13.478 4.33032 13.111C2.60267 11.4053 1.66669 9.82462 1.66669 7.92273C1.66669 4.75227 3.83487 2.5 6.59093 2.5C7.87123 2.5 8.92426 2.99924 9.7432 3.81818C9.83525 3.91023 9.92085 4.00227 10 4.09318C10.0796 4.00227 10.1648 3.91023 10.2568 3.81856V3.81818Z" fill="white"/>
</mask>
<g mask="url(#mask0)">
</g>
</svg>
