<svg width="44" height="44" viewBox="0 0 44 44" fill="none" xmlns="http://www.w3.org/2000/svg">
<rect x="0.5" y="0.5" width="43" height="43" rx="21.5" fill="white" stroke="#E7E9EE"/>
<path fill-rule="evenodd" clip-rule="evenodd" d="M22.6005 13.9816C22.6005 14.3448 22.405 14.6618 22.1079 14.8318V15.7327L22.14 15.737L23.5787 15.9225C23.5824 15.9225 23.5862 15.9225 23.5899 15.9233L23.5865 15.9141C23.5898 15.9141 23.5934 15.9147 23.5934 15.9147C23.5957 15.9155 23.5976 15.9174 23.6021 15.9218C23.8523 16.0455 26.3308 18.1864 26.3308 21.3553C26.3308 24.432 25.3493 25.0373 24.9111 25.3075C24.8562 25.3414 24.8098 25.3701 24.7749 25.3977C24.728 25.4286 24.6655 25.4286 24.6263 25.3899L24.5966 25.3612L24.5891 25.3541C24.3534 25.1259 23.7939 24.5846 22.6326 24.4238C22.4684 24.4006 22.3042 24.3851 22.14 24.3697L22.1078 24.3676V26.6036H24.8609C25.5255 26.6036 26.0729 26.1399 26.2057 25.5293C26.2135 25.4829 26.2604 25.4443 26.3152 25.4443C27.6531 25.4443 28.9738 25.1478 30.1786 24.577L30.42 24.4626C30.5062 24.4201 30.6072 24.4325 30.6822 24.4848C30.7511 24.5329 30.8031 24.6117 30.8031 24.6946C30.8031 24.7873 30.7484 24.8801 30.6546 24.9264C29.5531 25.4492 28.8664 26.5212 28.4625 27.6541C28.2797 28.167 28.0449 28.6553 27.7646 29.1136C27.582 29.4119 27.2319 29.6005 26.9094 29.4557L26.409 29.2392C26.0338 29.0769 25.6271 29.0769 25.2519 29.2392L24.7515 29.4557C24.3761 29.6179 23.9696 29.6179 23.5943 29.4557L23.0939 29.2392C22.7186 29.0769 22.312 29.0769 21.9368 29.2392L21.4364 29.4557C21.061 29.6179 20.6545 29.6179 20.2792 29.4557L19.7788 29.2392C19.4035 29.0769 18.9969 29.0769 18.6216 29.2392L18.1212 29.4557C17.7459 29.6179 17.3316 29.6179 16.9641 29.4557L16.4637 29.2392C16.0884 29.0769 15.674 29.0769 15.3065 29.2392L14.8452 29.4402C14.6264 29.5348 14.379 29.4276 14.2494 29.2305C13.4488 28.0121 13 26.5756 13 25.0346C13 24.9264 13 24.8182 13.0078 24.71C13.0078 24.6481 13.0625 24.6018 13.1173 24.6018H17.355C17.4176 24.6018 17.4645 24.6481 17.4645 24.71V25.2433C17.4645 25.993 18.0821 26.6036 18.8405 26.6036H21.1148V24.3557C20.5977 24.3799 20.1723 24.44 19.9195 24.4779C19.8754 24.4851 19.8382 24.465 19.8144 24.4368L19.8101 24.4399C19.7866 24.409 19.7788 24.3703 19.8022 24.3317C19.9977 23.9221 20.3808 22.8013 20.3105 20.3821C20.2323 17.762 19.3018 16.0616 18.9422 15.5051C18.8874 15.4278 18.9578 15.3273 19.0516 15.3351L21.1148 15.6014V14.8272C20.8221 14.6562 20.6301 14.3416 20.6301 13.9816C20.6301 13.4405 21.0758 13 21.6231 13C22.1704 13 22.6005 13.4405 22.6005 13.9816ZM19.1142 23.6115V19.3605C19.1142 19.3219 19.0908 19.2755 19.0517 19.26L17.0892 18.3557C17.0344 18.3325 16.9641 18.3557 16.9406 18.4175L14.9078 23.5651C14.8765 23.6424 14.9312 23.7197 15.0094 23.7197H19.0048C19.0673 23.7197 19.1142 23.6733 19.1142 23.6115Z" fill="black"/>
</svg>
