<svg width="72" height="72" viewBox="0 0 72 72" fill="none" xmlns="http://www.w3.org/2000/svg">
<circle cx="36" cy="36" r="36" fill="#EAF0FD"/>
<path d="M36 60.6375C49.607 60.6375 60.6376 49.6069 60.6376 36C60.6376 22.3931 49.607 11.3625 36 11.3625C22.3931 11.3625 11.3625 22.3931 11.3625 36C11.3625 49.6069 22.3931 60.6375 36 60.6375Z" fill="url(#paint0_linear)"/>
<path d="M53.4219 18.5782C63.0406 28.197 63.0406 43.803 53.4219 53.4218C43.8031 63.0405 28.1971 63.0405 18.5784 53.4218L53.4219 18.5782Z" fill="url(#paint1_linear)"/>
<path d="M29.8372 40.0298L40.86 28.5683C41.7037 27.7245 43.02 27.7853 43.8975 28.6628L50.2695 34.8053C50.9445 35.4533 50.931 36.7425 50.3032 37.4378C49.4865 38.2545 48.5685 38.3153 47.3197 37.4648L42.7027 32.463L31.0927 43.5128C30.3164 44.1135 29.5199 44.6198 28.2982 43.8435C27.8797 43.2765 28.7099 42.1763 28.3859 41.8455L29.8372 40.0298Z" fill="#D1D9E6"/>
<path d="M29.3309 43.8773C28.3859 43.8503 27.6501 43.2293 27.6501 42.5003L27.7041 29.3985C27.7041 28.6763 28.3859 27.792 29.3241 27.765C30.5796 27.765 31.1264 28.7775 31.1264 29.5335V42.5408C31.1331 43.29 30.3231 43.9043 29.3309 43.8773Z" fill="#D1D9E6"/>
<path d="M42.1965 44.2351C41.0287 44.2351 40.5427 43.3711 40.5427 42.6826V30.6675C40.5427 29.9858 41.265 29.1623 42.1965 29.1353C43.1752 29.1083 43.9852 29.925 43.9852 30.6338V42.5206C43.9785 43.3576 43.398 44.2351 42.1965 44.2351Z" fill="#D1D9E6"/>
<path d="M28.9394 44.019C28.2171 43.992 27.6501 43.371 27.6501 42.642V29.547C27.6501 28.8248 28.2171 27.9405 28.9394 27.9135C29.6954 27.8865 30.3231 28.7573 30.3231 29.5133V42.6893C30.3231 43.4385 29.6954 44.0528 28.9394 44.019Z" fill="white"/>
<path d="M41.8254 44.154C41.0897 44.154 40.4822 43.2968 40.4822 42.5543V29.6415C40.4822 28.9058 41.0829 28.2983 41.8254 28.2983C42.5679 28.2983 43.1687 28.899 43.1687 29.6415V42.5543C43.1619 43.29 42.5679 44.154 41.8254 44.154Z" fill="white"/>
<path d="M28.9935 43.8907C28.5547 43.8907 28.116 43.722 27.792 43.3845L21.717 37.296C21.0555 36.6277 21.0555 35.5612 21.7237 34.893C22.392 34.2315 23.4585 34.2315 24.1267 34.8997L29.0205 39.8205L40.7182 28.683C41.3797 28.0552 42.4057 28.0552 43.0672 28.6897L49.4325 34.8322C50.1075 35.4802 50.121 36.5602 49.4797 37.2352C48.8317 37.917 47.7517 37.9237 47.0767 37.2825L41.8725 32.2672L30.1545 43.425C29.8372 43.7355 29.412 43.8907 28.9935 43.8907Z" fill="white"/>
<path d="M40.6576 34.4003L39.9152 35.1023C39.9152 35.1023 40.1244 33.9345 39.5237 34.5015C38.9229 35.0753 40.4484 33.057 40.4484 33.057L40.7589 33.4485L40.6576 34.4003Z" fill="white"/>
<path d="M43.1615 34.2247C43.1615 34.2247 43.202 33.5092 43.9783 34.731V33.7725L43.1345 33.3337L43.1615 34.2247Z" fill="white"/>
<path d="M30.3299 37.6065C30.3299 37.6065 30.4446 38.403 31.1399 37.377V38.3355L30.2961 38.7742L30.3299 37.6065Z" fill="white"/>
<defs>
<linearGradient id="paint0_linear" x1="18.5787" y1="18.5786" x2="53.4214" y2="53.4213" gradientUnits="userSpaceOnUse">
<stop offset="0.0120873" stop-color="#3291F6"/>
<stop offset="0.5078" stop-color="#1F74EB"/>
</linearGradient>
<linearGradient id="paint1_linear" x1="36.0001" y1="36" x2="53.4219" y2="53.4218" gradientUnits="userSpaceOnUse">
<stop offset="0.0223464" stop-color="#3485EF"/>
<stop offset="0.9628" stop-color="#1461E5"/>
</linearGradient>
</defs>
</svg>
