<svg width="133" height="132" viewBox="0 0 133 132" fill="none" xmlns="http://www.w3.org/2000/svg">
<rect x="0.5" width="132" height="132" rx="66" fill="#D5E2FC"/>
<path d="M81.2918 36.9167H51.7085C49.3418 36.9167 46.9751 37.8042 45.496 39.5792C44.0168 41.3542 42.8335 43.4251 42.8335 45.7917V87.2084C42.8335 89.5751 43.721 91.9418 45.496 93.4209C47.271 95.1959 49.3418 96.0834 51.7085 96.0834H81.2918C83.6585 96.0834 86.0252 95.1959 87.5043 93.4209C89.2793 91.6459 90.1668 89.5751 90.1668 87.2084V45.7917C90.1668 43.4251 89.2793 41.0584 87.5043 39.5792C86.0252 37.8042 83.6585 36.9167 81.2918 36.9167Z" fill="white"/>
<path d="M77.446 64.4291L65.6127 52.5958C65.021 52.0041 64.4293 51.7083 63.5418 51.7083C62.6543 51.7083 62.0627 52.0041 61.471 52.5958C60.8793 53.1874 60.5835 53.7791 60.5835 54.6666C60.5835 55.5541 60.8793 56.1458 61.471 56.7374L68.2752 63.5416H42.8335V69.4583H68.2752L61.471 76.2624C61.1752 76.5583 60.8793 76.8541 60.8793 77.1499C60.5835 77.4458 60.5835 78.0374 60.5835 78.3333C60.5835 78.6291 60.5835 79.2208 60.8793 79.5166C61.1752 79.8124 61.1752 80.1083 61.471 80.4041C61.7668 80.6999 62.0627 80.9958 62.3585 80.9958C62.6543 81.2916 63.246 81.2916 63.5418 81.2916C63.8377 81.2916 64.4293 81.2916 64.7251 80.9958C65.021 80.6999 65.3168 80.6999 65.6127 80.4041L77.446 68.5708C77.7418 68.2749 78.0376 67.9791 78.0376 67.6833C78.3335 67.3874 78.3335 66.7958 78.3335 66.4999C78.3335 66.2041 78.3335 65.6124 78.0376 65.3166C78.0376 65.0208 77.7418 64.7249 77.446 64.4291Z" fill="#003CB2"/>
</svg>
