<svg width="24" height="24" viewBox="0 0 24 24" fill="none" xmlns="http://www.w3.org/2000/svg">
<path fill-rule="evenodd" clip-rule="evenodd" d="M7.7049 19.2282L10.3175 19.873V19.0298L10.5307 18.8314H12.0236V19.8234V20.5179H10.4241L8.45134 19.7242L7.7049 19.2282Z" fill="#CDBDB2"/>
<path fill-rule="evenodd" clip-rule="evenodd" d="M16.2357 19.2282L13.6765 19.873V19.0298L13.4632 18.8314H11.9703V19.8234V20.5179H13.5698L15.5426 19.7242L16.2357 19.2282Z" fill="#CDBDB2"/>
<path fill-rule="evenodd" clip-rule="evenodd" d="M10.5308 17.3929L10.3175 19.0298L10.5841 18.8313H13.3566L13.6765 19.0298L13.4632 17.3929L13.0367 17.1448L10.904 17.1944L10.5308 17.3929Z" fill="#393939"/>
<path fill-rule="evenodd" clip-rule="evenodd" d="M9.09119 6.33136L10.3708 9.10914L10.9573 17.1945H13.0367L13.6765 9.10914L14.8495 6.33136H9.09119Z" fill="#F89C35"/>
<path fill-rule="evenodd" clip-rule="evenodd" d="M3.49283 12.4326L1.99994 16.4504L5.73217 16.252H8.13145V14.5159L8.02482 10.9445L7.49164 11.3413L3.49283 12.4326Z" fill="#F89D35"/>
<path fill-rule="evenodd" clip-rule="evenodd" d="M6.31866 12.879L10.6907 12.9782L10.2108 15.0615L8.13146 14.5655L6.31866 12.879Z" fill="#D87C30"/>
<path fill-rule="evenodd" clip-rule="evenodd" d="M6.31866 12.9286L8.13146 14.5159V16.1032L6.31866 12.9286Z" fill="#EA8D3A"/>
<path fill-rule="evenodd" clip-rule="evenodd" d="M8.13147 14.5655L10.2642 15.0615L10.9573 17.1945L10.4774 17.4425L8.13147 16.1528V14.5655Z" fill="#F89D35"/>
<path fill-rule="evenodd" clip-rule="evenodd" d="M8.13144 16.1528L7.7049 19.2282L10.5307 17.3929L8.13144 16.1528Z" fill="#EB8F35"/>
<path fill-rule="evenodd" clip-rule="evenodd" d="M10.6907 12.9781L10.9573 17.1944L10.1575 15.0367L10.6907 12.9781Z" fill="#EA8E3A"/>
<path fill-rule="evenodd" clip-rule="evenodd" d="M5.67883 16.2024L8.13144 16.1528L7.7049 19.2282L5.67883 16.2024Z" fill="#D87C30"/>
<path fill-rule="evenodd" clip-rule="evenodd" d="M3.17292 20.5675L7.70491 19.2282L5.67885 16.2024L1.99994 16.4504L3.17292 20.5675Z" fill="#EB8F35"/>
<path fill-rule="evenodd" clip-rule="evenodd" d="M10.3708 9.10913L8.07814 10.8948L6.31866 12.879L10.6907 13.0278L10.3708 9.10913Z" fill="#E8821E"/>
<path fill-rule="evenodd" clip-rule="evenodd" d="M7.7049 19.2282L10.5307 17.3929L10.3175 18.9802V19.873L8.39802 19.5258L7.7049 19.2282Z" fill="#DFCEC3"/>
<path fill-rule="evenodd" clip-rule="evenodd" d="M16.2357 19.2282L13.4632 17.3929L13.6765 18.9802V19.873L15.5959 19.5258L16.2357 19.2282Z" fill="#DFCEC3"/>
<path fill-rule="evenodd" clip-rule="evenodd" d="M9.51769 13.871L10.1042 15.0119L8.0248 14.5159L9.51769 13.871Z" fill="#393939"/>
<path fill-rule="evenodd" clip-rule="evenodd" d="M3.11963 4L10.3708 9.10913L9.14451 6.33135L3.11963 4Z" fill="#E88F35"/>
<path fill-rule="evenodd" clip-rule="evenodd" d="M3.11963 4L2.15991 6.72817L2.69309 9.70437L2.31986 9.90278L2.85304 10.3492L2.4265 10.6964L3.01299 11.1925L2.63977 11.4901L3.49285 12.4821L7.49166 11.3413C9.44664 9.88624 10.4064 9.1422 10.3708 9.10913C10.3353 9.07606 7.91821 7.37302 3.11963 4Z" fill="#8E5A30"/>
<path fill-rule="evenodd" clip-rule="evenodd" d="M20.4478 12.4326L21.9407 16.4504L18.2084 16.252H15.8092V14.5159L15.9158 10.9445L16.449 11.3413L20.4478 12.4326Z" fill="#F89D35"/>
<path fill-rule="evenodd" clip-rule="evenodd" d="M17.6219 12.879L13.2499 12.9782L13.7298 15.0615L15.8092 14.5655L17.6219 12.879Z" fill="#D87C30"/>
<path fill-rule="evenodd" clip-rule="evenodd" d="M17.6219 12.9286L15.8092 14.5159V16.1032L17.6219 12.9286Z" fill="#EA8D3A"/>
<path fill-rule="evenodd" clip-rule="evenodd" d="M15.8091 14.5655L13.6764 15.0615L12.9833 17.1945L13.4632 17.4425L15.8091 16.1528V14.5655Z" fill="#F89D35"/>
<path fill-rule="evenodd" clip-rule="evenodd" d="M15.8092 16.1528L16.2357 19.2282L13.4632 17.4425L15.8092 16.1528Z" fill="#EB8F35"/>
<path fill-rule="evenodd" clip-rule="evenodd" d="M13.2499 12.9781L12.9833 17.1944L13.7831 15.0367L13.2499 12.9781Z" fill="#EA8E3A"/>
<path fill-rule="evenodd" clip-rule="evenodd" d="M18.2618 16.2024L15.8092 16.1528L16.2357 19.2282L18.2618 16.2024Z" fill="#D87C30"/>
<path fill-rule="evenodd" clip-rule="evenodd" d="M20.7677 20.5675L16.2357 19.2282L18.2618 16.2024L21.9407 16.4504L20.7677 20.5675Z" fill="#EB8F35"/>
<path fill-rule="evenodd" clip-rule="evenodd" d="M13.5698 9.10913L15.8625 10.8948L17.6219 12.879L13.2499 13.0278L13.5698 9.10913Z" fill="#E8821E"/>
<path fill-rule="evenodd" clip-rule="evenodd" d="M14.4229 13.871L13.8364 15.0119L15.9158 14.5159L14.4229 13.871Z" fill="#393939"/>
<path fill-rule="evenodd" clip-rule="evenodd" d="M20.821 4L13.5698 9.10913L14.7961 6.33135L20.821 4Z" fill="#E88F35"/>
<path fill-rule="evenodd" clip-rule="evenodd" d="M20.821 4L21.7807 6.72817L21.2475 9.70437L21.6207 9.90278L21.0876 10.3492L21.5141 10.6964L20.9276 11.1925L21.3008 11.4901L20.4478 12.4821L16.4489 11.3413C14.494 9.88624 13.5343 9.1422 13.5698 9.10913C13.6053 9.07606 16.0224 7.37302 20.821 4Z" fill="#8E5A30"/>
</svg>
