<svg width="24" height="24" viewBox="0 0 24 24" fill="none" xmlns="http://www.w3.org/2000/svg">
<path d="M15.9 10H5V7H12.9L15.9 10Z" fill="#AAC5F9"/>
<path d="M8 14L3.5 9.6C3.2 9.3 3 8.9 3 8.5C3 8.1 3.2 7.7 3.5 7.4L8 3C9.8 3 10.6 5.1 9.3 6.3L6.9 8.5L9.4 10.7C10.7 11.9 9.8 14 8 14Z" fill="#2B6DEF"/>
<path d="M9 15H20V18H12.1L9 15Z" fill="#AAC5F9"/>
<path d="M17 11L21.5 15.4C21.8 15.7 22 16.1 22 16.5C22 16.9 21.8 17.3 21.5 17.6L17 22C15.2 22 14.4 19.9 15.7 18.7L18.2 16.5L15.7 14.3C14.3 13.1 15.2 11 17 11Z" fill="#2B6DEF"/>
</svg>
