<svg xmlns="http://www.w3.org/2000/svg" viewBox="0 0 296.473 296.473">
  <path d="M292.676 114.759a147.152 147.152 0 0 0-12.421-34.007C255.7 32.811 205.8 0 148.237 0h-.002C90.673 0 40.772 32.811 16.218 80.751a147.335 147.335 0 0 0-12.421 34.007C1.314 125.517.001 136.723.001 148.236s1.313 22.719 3.796 33.478a147.193 147.193 0 0 0 6.486 20.877 147.335 147.335 0 0 0 5.935 13.131c24.555 47.94 74.455 80.751 132.018 80.751h.002c57.563 0 107.463-32.81 132.018-80.751a148.21 148.21 0 0 0 4.568-9.785 146.967 146.967 0 0 0 7.853-24.222c2.483-10.759 3.796-21.965 3.796-33.478s-1.314-22.719-3.797-33.478zm-77.94 33.477l-66.5 87.334-66.5-87.334 66.5-87.334 66.5 87.334z"/>
</svg>