<svg  viewBox="0 0 24 24" fill="none">
<path fill-rule="evenodd" clip-rule="evenodd" d="M14.1842 4.64064C14.9713 3.85351 16.2475 3.85351 17.0347 4.64064L18.4599 6.06588C19.247 6.85301 19.247 8.12921 18.4599 8.91634L10.6211 16.7551C10.4321 16.9441 10.1758 17.0503 9.90851 17.0503H7.05804C6.50145 17.0503 6.05025 16.5991 6.05025 16.0425L6.05025 13.192C6.05025 12.9248 6.15643 12.6684 6.34543 12.4794L14.1842 4.64064ZM17.0347 7.49111L15.6094 6.06588L14.1842 7.49111L15.6094 8.91634L17.0347 7.49111ZM8.06583 13.6095L12.759 8.91634L14.1842 10.3416L9.49107 15.0347L8.06583 13.6095Z" fill="#252837"/>
<path d="M20 19H4V21H20V19Z" fill="#252837"/>
</svg>
