<svg viewBox="0 0 16 16" xmlns="http://www.w3.org/2000/svg">
<path class="path2" d="M8.00004 1.33333C4.31804 1.33333 1.33337 4.318 1.33337 8C1.33337 11.682 4.31804 14.6667 8.00004 14.6667C11.682 14.6667 14.6667 11.682 14.6667 8C14.6667 4.318 11.682 1.33333 8.00004 1.33333ZM8.66671 12H7.33337V10.6667H8.66671V12ZM8.66671 9.24V10H7.33337V8.66666C7.33337 8.48985 7.40361 8.32028 7.52864 8.19526C7.65366 8.07023 7.82323 8 8.00004 8C8.73537 8 9.33337 7.402 9.33337 6.66666C9.33337 5.93133 8.73537 5.33333 8.00004 5.33333C7.26471 5.33333 6.66671 5.93133 6.66671 6.66666H5.33337C5.33337 5.19333 6.52671 3.99999 8.00004 3.99999C9.47337 3.99999 10.6667 5.19333 10.6667 6.66666C10.6656 7.25657 10.4686 7.8294 10.1066 8.29518C9.74455 8.76096 9.23809 9.09329 8.66671 9.24Z" />
</svg>
