<svg viewBox="0 0 24 24" xmlns="http://www.w3.org/2000/svg">
  <path d="M18 8H17V7C17 4.243 14.757 2 12 2C9.243 2 7 4.243 7 7V8H6C5.46957 8 4.96086 8.21071 4.58579 8.58579C4.21071 8.96086 4 9.46957 4 10V20C4 20.5304 4.21071 21.0391 4.58579 21.4142C4.96086 21.7893 5.46957 22 6 22H18C18.5304 22 19.0391 21.7893 19.4142 21.4142C19.7893 21.0391 20 20.5304 20 20V10C20 9.46957 19.7893 8.96086 19.4142 8.58579C19.0391 8.21071 18.5304 8 18 8ZM9 7C9 5.346 10.346 4 12 4C13.654 4 15 5.346 15 7V8H9V7ZM13 15.723V18H11V15.723C10.405 15.377 10 14.739 10 14C10 13.4696 10.2107 12.9609 10.5858 12.5858C10.9609 12.2107 11.4696 12 12 12C12.5304 12 13.0391 12.2107 13.4142 12.5858C13.7893 12.9609 14 13.4696 14 14C14 14.738 13.595 15.376 13 15.723Z" />
</svg>
