<svg viewBox="0 0 24 24" fill="none" xmlns="http://www.w3.org/2000/svg">
  <path d="M9.76001 10.566L12.0004 15.5252L15.3277 13.6044H15.3337V9.76263L9.76001 10.566Z" fill="#8690A5"/>
  <path d="M19.6331 6.8813L17.5557 6.10208L15.3335 5.92087V9.76261V17.8931L18.6669 19.814L21.3239 14.4017L19.6391 9.1948L19.6331 6.8813Z" fill="#9FA8BA"/>
  <path d="M19.4396 5.92087L18.6666 7.84174V19.7837L22 17.8629V5.92087H19.4396Z" fill="#8690A5"/>
  <path d="M18.6669 4.00002L15.3335 5.92089L18.6669 7.84176L22.0002 5.92089L18.6669 4.00002Z" fill="#8690A5"/>
  <path d="M12.0002 11.6835L8.66679 7.95047L2.00006 5.92087V17.8629L5.33342 19.7837L6.28754 13.1755L8.66679 13.6043L12.0002 15.5252V11.6835Z" fill="#9FA8BA"/>
  <path d="M5.33343 4.00002L2.00006 5.92089L12.0002 11.6835L13.5098 10.8137L15.3335 9.76263L5.33343 4.00002Z" fill="#8690A5"/>
  <path d="M5.33368 11.6835V19.7838L8.66704 17.8629V13.6044L5.33368 11.6835Z" fill="#CFD4DD"/>
</svg>
