<svg viewBox="0 0 24 24" xmlns="http://www.w3.org/2000/svg">
<path class="path2" d="M17 9C17 7.619 16.44 6.369 15.536 5.465C14.631 4.56 13.381 4 12 4C10.619 4 9.369 4.56 8.464 5.465C7.56 6.369 7 7.619 7 9C7 10.381 7.56 11.631 8.464 12.535C9.369 13.44 10.619 14 12 14C13.381 14 14.631 13.44 15.536 12.535C16.0009 12.0713 16.3695 11.5202 16.6207 10.9136C16.872 10.3069 17.0009 9.65662 17 9Z" />
<path class="path1" d="M12 21C8.25 21 6 20 6 19C6 17 8.25 15 12 15C15.646 15 18 17 18 19C18 20 15.518 21 12 21Z" />
</svg>
