<svg width="38" height="38" viewBox="0 0 38 38" fill="none" xmlns="http://www.w3.org/2000/svg">
<path d="M36.9887 32.103C34.4375 29.5518 25.3641 20.7756 18.5967 14.9719L14.9521 18.6165C20.4621 25.0385 29.0294 33.9132 32.104 36.9877C32.7616 37.5851 33.6239 37.9065 34.512 37.8852C35.4002 37.8639 36.2461 37.5015 36.8743 36.8733C37.5025 36.2451 37.8648 35.3992 37.8861 34.5111C37.9074 33.6229 37.5861 32.7606 36.9887 32.103Z" fill="#BF6A1E"/>
<path d="M36.9887 32.103C34.4375 29.5518 25.3641 20.7756 18.5967 14.9719L14.9521 18.6165C20.4621 25.0385 29.0294 33.9132 32.104 36.9877C32.7616 37.5851 33.6239 37.9065 34.512 37.8852C35.4002 37.8639 36.2461 37.5015 36.8743 36.8733C37.5025 36.2451 37.8648 35.3992 37.8861 34.5111C37.9074 33.6229 37.5861 32.7606 36.9887 32.103Z" fill="#BF6A1E"/>
<path opacity="0.1" d="M14.9521 18.6166C20.4621 25.0386 29.0294 33.9133 32.104 36.9878C32.7569 37.6408 33.624 38 34.5463 38C35.4998 38 36.3634 37.6131 36.9887 36.9878L16.7848 16.7839L14.9521 18.6166Z" fill="black"/>
<path d="M0.76 12.8509L1.63573 11.9735C1.8739 12.0807 2.13904 12.113 2.396 12.0661C2.65295 12.0192 2.88959 11.8953 3.07455 11.7109C3.25898 11.526 3.38285 11.2893 3.42974 11.0324C3.47663 10.7754 3.44432 10.5103 3.33709 10.2721L10.2721 3.33709C10.5103 3.44432 10.7754 3.47663 11.0324 3.42974C11.2893 3.38285 11.526 3.25898 11.7109 3.07455C11.8953 2.88959 12.0192 2.65295 12.0661 2.396C12.113 2.13904 12.0807 1.8739 11.9735 1.63573L12.8492 0.76C13.338 0.269455 14.0099 0 14.6818 0C15.3555 0 16.0256 0.269455 16.5127 0.76L23.4218 7.66736C23.9124 8.15618 24.1818 8.80736 24.1818 9.5C24.1818 10.1926 23.9124 10.8438 23.4218 11.3309L22.5461 12.2084C22.0694 11.9976 21.4959 12.0805 21.1073 12.4709C20.7186 12.8613 20.634 13.433 20.8447 13.9097L13.9097 20.8447C13.433 20.634 12.8595 20.7169 12.4709 21.1073C12.0823 21.4976 11.9976 22.0694 12.2084 22.5461L11.3326 23.4218C10.8438 23.9124 10.1926 24.1818 9.5 24.1818C8.80736 24.1818 8.15618 23.9124 7.66909 23.4218L0.76 16.5145C0.269455 16.0256 0 15.3745 0 14.6818C0 13.9892 0.269455 13.338 0.76 12.8509Z" fill="#D58347"/>
<path d="M5.18182 29.3635H17.2727C20.1296 29.3635 22.4545 31.6884 22.4545 34.5453V37.9999H0V34.5453C0 31.6884 2.32491 29.3635 5.18182 29.3635Z" fill="#BF6A1E"/>
<path opacity="0.2" d="M17.2727 29.3635H5.18182C2.32491 29.3635 0 31.6884 0 34.5453V34.9772C0 32.1203 2.32491 29.7953 5.18182 29.7953H17.2727C20.1296 29.7953 22.4545 32.1203 22.4545 34.9772V34.5453C22.4545 31.6884 20.1296 29.3635 17.2727 29.3635Z" fill="white"/>
<path opacity="0.1" d="M0 37.5681H22.4545V37.9999H0V37.5681Z" fill="black"/>
<path d="M11.7106 3.07462C11.9377 2.85033 12.0721 2.54881 12.0872 2.22998L21.9551 12.0979C21.6442 12.1117 21.3436 12.2343 21.107 12.471C20.8704 12.7076 20.7408 13.0013 20.727 13.3122L10.8643 3.44943C11.1834 3.43496 11.4854 3.30119 11.7106 3.07462Z" fill="#BF6A1E"/>
<path d="M11.7106 3.07462C11.9377 2.85033 12.0721 2.54881 12.0872 2.22998L21.9551 12.0979C21.6442 12.1117 21.3436 12.2343 21.107 12.471C20.8704 12.7076 20.7408 13.0013 20.727 13.3122L10.8643 3.44943C11.1834 3.43496 11.4854 3.30119 11.7106 3.07462Z" fill="url(#paint0_linear)"/>
<path d="M3.0754 11.7108C3.30352 11.4876 3.43919 11.1867 3.4554 10.8679L13.3181 20.7306C13.0072 20.7462 12.7101 20.8688 12.4718 21.1072C12.2334 21.3456 12.109 21.6392 12.0952 21.9501L2.22559 12.0822C2.5454 12.0693 2.84871 11.9368 3.0754 11.7108Z" fill="#BF6A1E"/>
<path d="M3.0754 11.7108C3.30352 11.4876 3.43919 11.1867 3.4554 10.8679L13.3181 20.7306C13.0072 20.7462 12.7101 20.8688 12.4718 21.1072C12.2334 21.3456 12.109 21.6392 12.0952 21.9501L2.22559 12.0822C2.5454 12.0693 2.84871 11.9368 3.0754 11.7108Z" fill="url(#paint1_linear)"/>
<path d="M17.2727 29.3636H5.18182C2.32491 29.3636 0 31.6885 0 34.5455V38H22.4545V34.5455C22.4545 31.6885 20.1296 29.3636 17.2727 29.3636ZM36.9878 32.1031C34.5161 29.6314 25.9195 21.318 19.2315 15.5213L20.8447 13.9097C20.634 13.433 20.7169 12.8595 21.1073 12.4709C21.4976 12.0823 22.0694 11.9976 22.5461 12.2084L23.4235 11.3326C23.9124 10.8438 24.1818 10.1909 24.1818 9.5C24.1818 8.80909 23.9124 8.15618 23.4218 7.66736L16.5127 0.758273C16.0274 0.269455 15.3555 0 14.6818 0C14.0082 0 13.338 0.269455 12.8492 0.76L11.9735 1.63573C12.0807 1.8739 12.113 2.13904 12.0661 2.396C12.0192 2.65295 11.8953 2.88959 11.7109 3.07455C11.526 3.25898 11.2893 3.38285 11.0324 3.42974C10.7754 3.47663 10.5103 3.44432 10.2721 3.33709L3.33709 10.2721C3.44432 10.5103 3.47663 10.7754 3.42974 11.0324C3.38285 11.2893 3.25898 11.526 3.07455 11.7109C2.88959 11.8953 2.65295 12.0192 2.396 12.0661C2.13904 12.113 1.8739 12.0807 1.63573 11.9735L0.758273 12.8492C0.269455 13.338 0 13.9909 0 14.6818C0 15.3727 0.269455 16.0256 0.76 16.5145L7.66909 23.4235C8.15618 23.9124 8.80736 24.1818 9.5 24.1818C10.1926 24.1818 10.8438 23.9124 11.3326 23.4218L12.2084 22.5461C11.9976 22.0694 12.0805 21.4959 12.4709 21.1073C12.8613 20.7186 13.433 20.634 13.9097 20.8447L15.5023 19.2522C21.0157 25.612 29.127 34.0117 32.1014 36.9878C32.759 37.5852 33.6213 37.9065 34.5094 37.8852C35.3976 37.8639 36.2435 37.5016 36.8717 36.8734C37.4999 36.2452 37.8622 35.3993 37.8835 34.5111C37.9048 33.623 37.5835 32.7607 36.9861 32.1031H36.9878Z" fill="url(#paint2_linear)"/>
<defs>
<linearGradient id="paint0_linear" x1="11.9948" y1="3.35884" x2="19.8088" y2="11.1728" gradientUnits="userSpaceOnUse">
<stop stop-color="#3E2723" stop-opacity="0.02"/>
<stop offset="1" stop-color="#3E2723" stop-opacity="0.2"/>
</linearGradient>
<linearGradient id="paint1_linear" x1="3.35823" y1="11.9937" x2="11.1715" y2="19.807" gradientUnits="userSpaceOnUse">
<stop stop-color="#3E2723" stop-opacity="0.02"/>
<stop offset="1" stop-color="#3E2723" stop-opacity="0.2"/>
</linearGradient>
<linearGradient id="paint2_linear" x1="-0.513298" y1="15.2043" x2="38.8227" y2="33.547" gradientUnits="userSpaceOnUse">
<stop stop-color="white" stop-opacity="0.2"/>
<stop offset="1" stop-color="white" stop-opacity="0"/>
</linearGradient>
</defs>
</svg>
