<svg width="44" height="44" viewBox="0 0 44 44" fill="none" xmlns="http://www.w3.org/2000/svg">
<rect width="44" height="44" rx="22" fill="#D5E2FC"/>
<path d="M31.69 16.9215L33.9684 21.8077C34.0782 22.0548 33.886 22.3018 33.639 22.2744L25.0744 21.4234C24.9372 21.4234 24.8274 21.3411 24.7999 21.2313L22.0275 15L31.4429 16.7294C31.5527 16.7568 31.6351 16.8392 31.69 16.9215ZM22.6588 18.5686L24.0862 22.0273C24.1411 22.1646 24.2509 22.2195 24.3607 22.2469L31.6351 22.8783C31.8272 22.9057 31.9645 23.043 31.937 23.2351L31.7998 28.9448C31.7998 29.0821 31.69 29.2193 31.5253 29.2468L22.9608 31.0585C22.7686 31.1134 22.549 31.1134 22.3294 31.1134L22.3294 18.6509C22.3294 18.1843 22.4941 18.1568 22.6588 18.5686ZM10.0316 21.8077L12.31 16.9215C12.3375 16.8392 12.4473 16.7568 12.5571 16.7294L21.9726 15L19.2001 21.2313C19.1452 21.3411 19.0628 21.396 18.9256 21.4234L10.361 22.2744C10.114 22.3018 9.92183 22.0548 10.0316 21.8077ZM12.3649 22.8783L19.6393 22.2469C19.7491 22.2195 19.8589 22.1646 19.9138 22.0273L21.3412 18.5686C21.5059 18.1568 21.6706 18.1843 21.6706 18.6509L21.6706 31.1134C21.451 31.1134 21.2314 31.1134 21.0118 31.0585L12.4747 29.2468C12.31 29.2193 12.2002 29.0821 12.2002 28.9448L12.0355 23.2351C12.0355 23.043 12.1728 22.9057 12.3649 22.8783Z" fill="#2B6DEF"/>
</svg>
