<svg width="44" height="44" viewBox="0 0 44 44" fill="none" xmlns="http://www.w3.org/2000/svg">
<rect width="44" height="44" rx="22" fill="#D5E2FC"/>
<path d="M15.2235 28.3024C14.4832 28.3024 13.8103 27.6882 13.8103 26.9394C13.8103 26.1906 14.4149 25.5723 15.2235 25.5723C16.0361 25.5723 16.6464 26.1873 16.6464 26.9394C16.6464 27.6882 15.9695 28.3024 15.2283 28.3024H15.2235ZM32.5723 20.86C32.4236 19.7678 31.7597 18.8779 30.8829 18.1985L30.5407 17.9236L30.2653 18.2629C29.7322 18.8779 29.5168 19.9701 29.5835 20.7866C29.6477 21.4066 29.8411 22.0208 30.1848 22.4979C29.9053 22.6441 29.5672 22.7728 29.3039 22.9148C28.6863 23.1204 28.085 23.1897 27.4844 23.1897H10.1063L10.0381 23.5934C9.90663 24.9251 10.1169 26.2687 10.6484 27.4933L10.9149 27.9713V28.0349C12.5402 30.7699 15.4307 32 18.5837 32C24.6451 32 29.6135 29.3384 31.9702 23.5984C33.515 23.6669 35.0736 23.2583 35.805 21.7533L36 21.414L35.6782 21.2068C34.7981 20.6611 33.5954 20.5884 32.5894 20.8634L32.5674 20.8675L32.5723 20.86ZM23.8959 19.7678H21.2638V22.4327H23.8959V19.7678ZM23.8959 16.4186H21.2638V19.0835H23.8959V16.4186ZM23.8959 13H21.2638V15.6657H23.8959V13ZM27.1123 19.7678H24.4964V22.4327H27.1204V19.7678H27.1123ZM17.3656 19.7678H14.7497V22.4327H17.3737V19.7678H17.3656ZM20.6453 19.7678H18.0474V22.4327H20.6632V19.7678H20.6453ZM14.115 19.7678H11.5154V22.4327H14.1484V19.7678H14.115ZM20.6453 16.4186H18.0474V19.0835H20.6632V16.4219L20.6453 16.4186ZM17.3477 16.4186H14.7538V19.0835H17.3696V16.4219L17.3526 16.4186H17.3477Z" fill="#2B6DEF"/>
</svg>
