<svg width="44" height="44" viewBox="0 0 44 44" fill="none" xmlns="http://www.w3.org/2000/svg">
<rect width="44" height="44" rx="22" fill="#D5E2FC"/>
<path d="M30.9343 29.0713C30.731 28.9466 30.5401 28.8026 30.3643 28.6413C30.2743 28.5513 30.3643 28.1413 30.3643 27.9213C30.4154 27.7232 30.424 27.5166 30.3895 27.3149C30.3551 27.1133 30.2783 26.9212 30.1643 26.7513C30.1156 26.7056 30.0619 26.6653 30.0043 26.6313C30.0043 26.4313 30.0043 26.2213 30.0043 25.9913C29.9662 23.5242 29.0025 21.1614 27.3043 19.3713C26.6341 18.7365 26.1795 17.9077 26.0043 17.0013V16.7713C26.0043 15.3913 26.0043 12.5113 24.5043 11.0013C24.178 10.6727 23.7878 10.4145 23.3579 10.2425C22.9279 10.0705 22.4672 9.98841 22.0043 10.0013C19.9043 10.0013 18.5043 11.0013 18.5043 16.0013C18.4146 17.3069 18.006 18.5704 17.3143 19.6813C17.0443 20.2013 16.7743 20.7413 16.5343 21.3113C15.8602 22.8508 15.3475 24.4561 15.0043 26.1013C14.7896 26.2265 14.6071 26.4002 14.4717 26.6086C14.3362 26.817 14.2515 27.0543 14.2243 27.3013L14.1443 27.6313C13.9695 27.696 13.7886 27.7429 13.6043 27.7713C13.0043 27.8913 12.0043 28.0913 12.0043 29.0013C12.0075 29.2467 12.0343 29.4911 12.0843 29.7313C12.2021 30.2789 12.1745 30.8477 12.0043 31.3813C11.9986 31.4245 11.9986 31.4682 12.0043 31.5113C12.0043 32.7013 13.8743 32.8613 15.0043 33.0013H15.4443C15.7172 33.0829 15.9817 33.19 16.2343 33.3213C16.9364 33.7013 17.709 33.9327 18.5043 34.0013C18.6669 33.9996 18.8274 33.9641 18.9754 33.8969C19.1235 33.8298 19.2559 33.7325 19.3643 33.6113H19.4143C20.2204 33.2147 21.106 33.0062 22.0043 33.0013H25.0643C25.1162 33.205 25.2156 33.3935 25.3543 33.5513C25.5023 33.7047 25.6817 33.8243 25.8802 33.902C26.0786 33.9797 26.2915 34.0135 26.5043 34.0013C26.9943 33.9875 27.4745 33.8612 27.908 33.6324C28.3415 33.4035 28.7166 33.0781 29.0043 32.6813L29.3243 32.3513C29.6802 32.0813 30.084 31.8811 30.5143 31.7613C31.2343 31.5013 31.9743 31.2313 31.9743 30.5013C31.9743 29.7713 31.4043 29.3913 30.9343 29.0713ZM23.0043 13.0013C23.5843 13.0013 24.0043 13.6213 24.0043 14.4813C24.0043 15.3413 23.6743 15.8213 23.1943 15.9313C23.2925 15.8486 23.3699 15.744 23.4203 15.6259C23.4707 15.5077 23.4926 15.3795 23.4843 15.2513C23.4843 14.8413 23.2643 14.5013 23.0043 14.5013C22.7443 14.5013 22.5243 14.8313 22.5243 15.2513C22.5161 15.3795 22.538 15.5077 22.5884 15.6259C22.6387 15.744 22.7161 15.8486 22.8143 15.9313C22.3343 15.8113 22.0043 15.2313 22.0043 14.4813C22.0043 13.7313 22.4243 13.0013 23.0043 13.0013ZM23.4443 16.8813C22.7294 17.4397 21.8938 17.8232 21.0043 18.0013C20.4303 17.7953 19.9153 17.452 19.5043 17.0013C20.0216 16.4284 20.7357 16.0714 21.5043 16.0013C22.22 16.1094 22.8916 16.4141 23.4443 16.8813ZM20.0043 13.0013C20.5843 13.0013 21.0043 13.6213 21.0043 14.4813C21.0043 15.3413 20.6743 15.8113 20.1943 15.9313C20.2925 15.8486 20.3699 15.744 20.4203 15.6259C20.4707 15.5077 20.4926 15.3795 20.4843 15.2513C20.4843 14.8413 20.2643 14.5013 20.0043 14.5013C19.7443 14.5013 19.5243 14.8313 19.5243 15.2513C19.5161 15.3795 19.538 15.5077 19.5884 15.6259C19.6387 15.744 19.7161 15.8486 19.8143 15.9313C19.3343 15.8113 19.0043 15.2413 19.0043 14.4813C19.0043 13.7213 19.4243 13.0013 20.0043 13.0013ZM18.7743 32.7113C18.7143 32.9013 18.6243 33.0013 18.5043 33.0013C17.8482 32.9234 17.2133 32.7196 16.6343 32.4013C16.3185 32.2279 15.9827 32.0936 15.6343 32.0013H15.0743C13.5843 31.8813 13.1243 31.7013 13.0243 31.5613C13.2042 30.9088 13.2214 30.222 13.0743 29.5613C13.0353 29.3769 13.0119 29.1896 13.0043 29.0013C13.2614 28.8613 13.5433 28.7729 13.8343 28.7413C14.197 28.7049 14.5428 28.57 14.8343 28.3513C15.0308 28.1173 15.1588 27.8335 15.2043 27.5313C15.3343 27.0013 15.3843 27.0013 15.4543 27.0013C15.7552 27.3504 15.9922 27.7499 16.1543 28.1813C16.4759 29.0431 17.0048 29.8125 17.6943 30.4213C18.0814 30.6526 18.3909 30.9939 18.5833 31.4018C18.7756 31.8096 18.8421 32.2655 18.7743 32.7113ZM25.1443 29.7113C23.6743 31.1913 20.7343 31.0913 19.4343 30.8913C19.1601 30.3752 18.7657 29.9328 18.2843 29.6013C17.748 29.0827 17.3346 28.4505 17.0743 27.7513C16.8691 27.1566 16.5265 26.6187 16.0743 26.1813C16.4024 24.6446 16.8814 23.144 17.5043 21.7013C17.7143 21.1713 17.9843 20.7013 18.2443 20.1513C18.609 19.4789 18.9232 18.7803 19.1843 18.0613C19.6953 18.5328 20.3241 18.8576 21.0043 19.0013C22.0036 18.7488 22.9581 18.3441 23.8343 17.8013C25.2945 20.5563 26.0405 23.6335 26.0043 26.7513C25.469 27.6444 25.1728 28.6604 25.1443 29.7013V29.7113ZM30.2043 30.8313C29.6348 30.9952 29.1065 31.2781 28.6543 31.6613L28.3143 32.0113C28.1134 32.3094 27.8445 32.5555 27.5298 32.7294C27.2151 32.9032 26.8637 32.9999 26.5043 33.0113C26.4314 33.0197 26.3576 33.0134 26.2872 32.9928C26.2168 32.9721 26.1512 32.9377 26.0943 32.8913C25.9443 32.7213 25.9843 32.3313 25.9943 32.1713C26.0043 32.0113 26.0043 32.0013 26.0043 32.0013C26.0043 31.7013 26.2843 28.8713 26.3743 28.4213C26.4134 28.4812 26.4568 28.538 26.5043 28.5913C26.6325 28.7272 26.7877 28.8347 26.9599 28.907C27.1321 28.9793 27.3176 29.0149 27.5043 29.0113H27.8543C28.1169 29.037 28.382 29.0104 28.6343 28.9332C28.8866 28.856 29.1211 28.7296 29.3243 28.5613C29.3347 28.859 29.4518 29.1429 29.6543 29.3613C29.878 29.5723 30.1226 29.7599 30.3843 29.9213C30.7643 30.1713 31.0043 30.3413 31.0243 30.4513C30.772 30.6167 30.4953 30.7415 30.2043 30.8213V30.8313Z" fill="#2B6DEF"/>
</svg>
