<svg width="78" height="24" viewBox="0 0 78 24" fill="none" xmlns="http://www.w3.org/2000/svg">
<path fill-rule="evenodd" clip-rule="evenodd" d="M32.0288 19.8539C33.4188 19.8539 34.5892 19.3874 35.5129 18.4724C36.4367 17.5124 36.9029 16.3413 36.9029 14.9241C36.9029 13.5074 36.4367 12.3364 35.5129 11.4121C34.5892 10.4613 33.4188 9.99483 32.0288 9.99483C30.6475 9.99483 29.4777 10.4613 28.5539 11.4121C27.6302 12.3364 27.1726 13.5074 27.1726 14.9241C27.1726 16.3413 27.6302 17.5124 28.5539 18.4724C29.4777 19.3874 30.6475 19.8539 32.0288 19.8539ZM36.9029 7.22252H40.2283V22.6274H36.9029V20.4084C35.6359 22.1696 33.8499 23.0318 31.5097 23.0318C29.3898 23.0318 27.5951 22.257 26.0908 20.6902C24.5858 19.1148 23.8472 17.1696 23.8472 14.9241C23.8472 12.6447 24.5858 10.7351 26.0908 9.15852C27.5951 7.59175 29.3898 6.81699 31.5097 6.81699C33.8499 6.81699 35.6359 7.68037 36.9029 9.40529V7.22252Z" fill="black"/>
<path fill-rule="evenodd" clip-rule="evenodd" d="M53.1164 10.426H49.2984V17.821C49.2984 19.7927 50.5918 19.757 53.1164 19.634V22.6266C48.0314 23.2426 45.9729 21.8518 45.9729 17.821V10.426H43.1401V7.22228H45.9729L45.9668 2.90843H49.2984V7.22228H53.1164V10.426Z" fill="#0B1547"/>
<path fill-rule="evenodd" clip-rule="evenodd" d="M56.1605 22.6271H59.4859V7.22215H56.1605V22.6271ZM56.31 4.29969C55.4742 3.43692 55.4742 2.13415 56.31 1.30646C57.1458 0.443693 58.5007 0.443693 59.3273 1.30646C60.1545 2.13415 60.1545 3.43692 59.2922 4.29969C58.4656 5.12739 57.1722 5.12739 56.31 4.29969Z" fill="#0B1547"/>
<path fill-rule="evenodd" clip-rule="evenodd" d="M64.7908 20.6904C63.2514 19.1144 62.4771 17.2042 62.4771 14.9242C62.4771 12.6098 63.2514 10.7082 64.7908 9.15871C66.3658 7.59194 68.3013 6.81717 70.6064 6.81717C73.5973 6.81717 76.2456 8.36671 77.4769 10.7962L74.6176 12.4596C73.9048 10.9809 72.4275 10.0916 70.58 10.0916C69.2245 10.0916 68.0898 10.5495 67.1574 11.4738C66.2687 12.3981 65.8025 13.5427 65.8025 14.9242C65.8025 16.3064 66.2687 17.451 67.1574 18.3753C68.0898 19.2996 69.2245 19.7569 70.58 19.7569C72.4011 19.7569 73.9312 18.8418 74.6705 17.3895L77.5384 19.0178C76.2191 21.4824 73.5973 23.0319 70.6064 23.0319C68.3013 23.0319 66.3658 22.2572 64.7908 20.6904Z" fill="#0B1547"/>
<path fill-rule="evenodd" clip-rule="evenodd" d="M17.321 2.90856L10.7931 13.6919L4.2917 2.90856H0.473633V22.6267H4.01924V9.07102L9.88841 18.8138H11.6929L17.567 9.10548V22.6267H21.1427V2.90856H17.321Z" fill="#0B1547"/>
</svg>
