<svg width="104" height="26" viewBox="0 0 104 26" fill="none" xmlns="http://www.w3.org/2000/svg">
<path d="M71.3116 8.14303H73.9864V20.5417H71.3116V18.758C70.8246 19.4423 70.1737 19.9934 69.4186 20.3609C68.6634 20.7284 67.8282 20.9006 66.9894 20.8616C66.1711 20.8727 65.3597 20.711 64.6082 20.3869C63.8567 20.0628 63.182 19.5837 62.6283 18.981C62.0367 18.364 61.5729 17.6361 61.2636 16.8392C60.9542 16.0424 60.8054 15.1921 60.8258 14.3375C60.7996 13.4838 60.9439 12.6335 61.2501 11.8362C61.5562 11.039 62.0182 10.3107 62.6089 9.69407C63.1657 9.09057 63.8439 8.61184 64.5988 8.28937C65.3538 7.9669 66.1686 7.80799 66.9894 7.82312C67.8293 7.78136 68.6664 7.95013 69.4246 8.3141C70.1828 8.67808 70.8381 9.22573 71.331 9.90734L71.3116 8.14303ZM67.4352 18.3121C67.9528 18.3227 68.4673 18.2296 68.9483 18.0381C69.4293 17.8467 69.8671 17.5607 70.2359 17.1973C70.605 16.82 70.8947 16.3726 71.0878 15.8814C71.2809 15.3901 71.3735 14.8652 71.3601 14.3375C71.3721 13.8158 71.2787 13.2971 71.0856 12.8124C70.8924 12.3276 70.6034 11.8869 70.2359 11.5165C69.4895 10.7842 68.4856 10.3739 67.44 10.3739C66.3944 10.3739 65.3905 10.7842 64.6441 11.5165C64.2756 11.8857 63.9866 12.3264 63.7949 12.8116C63.6032 13.2968 63.5129 13.8161 63.5296 14.3375C63.515 14.8645 63.606 15.3891 63.7974 15.8802C63.9889 16.3714 64.2767 16.8192 64.6441 17.1973C65.0037 17.5568 65.4316 17.8407 65.9027 18.0321C66.3737 18.2236 66.8783 18.3188 67.3867 18.3121H67.4352Z" fill="#061024"/>
<path d="M84.3558 10.7215H81.2837V16.6736C81.2837 18.2538 82.3206 18.2247 84.3558 18.1277V20.5416C80.2661 21.036 78.6089 19.9114 78.6089 16.6639V10.7215H76.3218V8.1429H78.6186V4.68213H81.3031V8.1429H84.3752L84.3558 10.7215Z" fill="#061024"/>
<path d="M86.924 5.8163C86.7634 5.66002 86.6357 5.47312 86.5486 5.26666C86.4614 5.0602 86.4165 4.83835 86.4165 4.61424C86.4165 4.39012 86.4614 4.16828 86.5486 3.96181C86.6357 3.75535 86.7634 3.56846 86.924 3.41218C87.0798 3.2473 87.2676 3.11596 87.4759 3.0262C87.6842 2.93644 87.9086 2.89014 88.1354 2.89014C88.3622 2.89014 88.5866 2.93644 88.7949 3.0262C89.0032 3.11596 89.191 3.2473 89.3468 3.41218C89.6655 3.73355 89.8435 4.16841 89.8417 4.62109C89.8399 5.07377 89.6584 5.50718 89.3371 5.82599C89.0158 6.1448 88.5811 6.32288 88.1285 6.32106C87.676 6.31924 87.2427 6.13767 86.924 5.8163ZM86.798 20.5609V8.14286H89.4824V20.5415L86.798 20.5609Z" fill="#061024"/>
<path d="M93.7465 18.9811C93.1391 18.3729 92.6611 17.6478 92.3413 16.8498C92.0215 16.0518 91.8666 15.1972 91.8858 14.3377C91.8615 13.4775 92.0141 12.6215 92.3341 11.8227C92.6542 11.0239 93.135 10.2995 93.7465 9.69426C94.3575 9.07838 95.0879 8.59388 95.8928 8.27048C96.6977 7.94709 97.5602 7.79162 98.4274 7.81362C99.5537 7.78407 100.666 8.06738 101.641 8.63209C102.617 9.19681 103.416 10.0208 103.951 11.0126L101.655 12.3504C101.362 11.7454 100.898 11.2394 100.321 10.8949C99.7445 10.5503 99.0793 10.3823 98.408 10.4116C97.8967 10.3982 97.388 10.4893 96.9131 10.6794C96.4382 10.8694 96.007 11.1543 95.646 11.5167C95.2914 11.8845 95.0129 12.3188 94.8267 12.7946C94.6404 13.2704 94.55 13.7784 94.5606 14.2892C94.5487 14.8017 94.6385 15.3115 94.8248 15.789C95.0111 16.2666 95.2902 16.7025 95.646 17.0714C96.008 17.4325 96.4394 17.7165 96.914 17.9064C97.3887 18.0964 97.8969 18.1882 98.408 18.1765C99.0827 18.1965 99.7493 18.025 100.331 17.6819C100.912 17.3388 101.384 16.8381 101.693 16.2377L104 17.5464C103.454 18.5418 102.646 19.3687 101.664 19.9377C100.681 20.5067 99.5622 20.7961 98.4274 20.7745C97.5664 20.808 96.7077 20.6662 95.9031 20.358C95.0985 20.0497 94.3648 19.5813 93.7465 18.9811Z" fill="#061024"/>
<path fill-rule="evenodd" clip-rule="evenodd" d="M12.4531 10.5375L16.0486 18.4963L21.3884 15.4136H21.3981V9.24817L12.4531 10.5375Z" fill="#2BBDF7"/>
<path fill-rule="evenodd" clip-rule="evenodd" d="M28.2983 4.62405L24.9646 3.37352L21.3982 3.0827V9.24811V22.2963L26.7477 25.379L31.0119 16.6931L28.308 8.33687L28.2983 4.62405Z" fill="#2891F9"/>
<path fill-rule="evenodd" clip-rule="evenodd" d="M27.9883 3.0827L26.7478 6.1654V25.3305L32.0973 22.2478V3.0827H27.9883Z" fill="#2BBDF7"/>
<path fill-rule="evenodd" clip-rule="evenodd" d="M26.7477 0L21.3982 3.0827L26.7477 6.1654L32.0973 3.0827L26.7477 0Z" fill="#2B6DEF"/>
<path fill-rule="evenodd" clip-rule="evenodd" d="M16.0486 12.3308L10.6991 6.3399L0 3.0827V22.2478L5.34954 25.3305L6.88075 14.7252L10.6991 15.4135L16.0486 18.4962V12.3308Z" fill="#2891F9"/>
<path d="M55.5536 4.68213L50.301 13.3486L45.0677 4.68213H41.9956V20.5416H44.8545V9.63578L49.5741 17.4686H51.0278L55.7474 9.66486V20.5416H58.6257V4.68213H55.5536Z" fill="#061024"/>
<path fill-rule="evenodd" clip-rule="evenodd" d="M5.34954 0L0 3.0827L16.0486 12.3308L18.4714 10.9349L21.3982 9.2481L5.34954 0Z" fill="#2B6DEF"/>
<path fill-rule="evenodd" clip-rule="evenodd" d="M5.34961 12.3309V25.3306L10.6991 22.2479V15.4136L5.34961 12.3309Z" fill="#2BBDF7"/>
</svg>
