<svg width="40" height="40" viewBox="0 0 40 40" fill="none" xmlns="http://www.w3.org/2000/svg">
<path fill-rule="evenodd" clip-rule="evenodd" d="M20 0C31.0457 0 40 8.95435 40 20C40 31.0457 31.0457 40 20 40C8.95428 40 0 31.0457 0 20C0 8.95435 8.95428 0 20 0ZM34.3107 20.1183C34.3107 28.0921 27.8651 34.5562 19.914 34.5562C11.9629 34.5562 5.51724 28.0921 5.51724 20.1183C5.51724 12.1446 11.9629 5.68048 19.914 5.68048C27.8651 5.68048 34.3107 12.1446 34.3107 20.1183Z" fill="#3291E9"/>
<path fill-rule="evenodd" clip-rule="evenodd" d="M21.5536 12.085C21.5536 12.4483 21.3581 12.7652 21.061 12.9352V13.8362L21.0931 13.8404L22.5318 14.0259C22.5355 14.0259 22.5393 14.0259 22.543 14.0268L22.5396 14.0175C22.5429 14.0175 22.5449 14.0175 22.5465 14.0181C22.5488 14.0189 22.5507 14.0208 22.5553 14.0253C22.8054 14.1489 25.284 16.2899 25.284 19.4588C25.284 22.5354 24.3024 23.1408 23.8642 23.411C23.8093 23.4449 23.7629 23.4735 23.728 23.5011C23.6811 23.532 23.6186 23.532 23.5794 23.4933L23.5497 23.4647L23.5422 23.4575C23.3066 23.2294 22.747 22.6881 21.5857 22.5272C21.4215 22.504 21.2573 22.4885 21.0931 22.4731L21.0609 22.471V24.707H23.8141C24.4787 24.707 25.026 24.2433 25.1589 23.6328C25.1667 23.5863 25.2136 23.5477 25.2683 23.5477C26.6063 23.5477 27.9269 23.2512 29.1317 22.6805L29.3731 22.5661C29.4593 22.5235 29.5604 22.5359 29.6353 22.5883C29.7042 22.6363 29.7563 22.7151 29.7563 22.798C29.7563 22.8908 29.7015 22.9835 29.6077 23.0299C28.5062 23.5527 27.8195 24.6246 27.4156 25.7576C27.2329 26.2705 26.998 26.7588 26.7177 27.217C26.5352 27.5153 26.185 27.7039 25.8626 27.5591L25.3621 27.3427C24.9869 27.1803 24.5803 27.1803 24.205 27.3427L23.7046 27.5591C23.3293 27.7214 22.9227 27.7214 22.5474 27.5591L22.047 27.3427C21.6717 27.1803 21.2652 27.1803 20.8899 27.3427L20.3895 27.5591C20.0142 27.7214 19.6076 27.7214 19.2323 27.5591L18.7319 27.3427C18.3566 27.1803 17.9501 27.1803 17.5748 27.3427L17.0744 27.5591C16.6991 27.7214 16.2847 27.7214 15.9172 27.5591L15.4168 27.3427C15.0415 27.1803 14.6271 27.1803 14.2596 27.3427L13.7983 27.5436C13.5795 27.6383 13.3321 27.531 13.2025 27.3339C12.4019 26.1156 11.9531 24.679 11.9531 23.1381C11.9531 23.0299 11.9531 22.9216 11.9609 22.8134C11.9609 22.7516 12.0157 22.7052 12.0704 22.7052H16.3081C16.3707 22.7052 16.4176 22.7516 16.4176 22.8134V23.3468C16.4176 24.0965 17.0353 24.707 17.7937 24.707H20.068V22.4591C19.5508 22.4834 19.1254 22.5434 18.8726 22.5813C18.8285 22.5885 18.7913 22.5685 18.7675 22.5403L18.7632 22.5433C18.7397 22.5124 18.7319 22.4738 18.7554 22.4352C18.9508 22.0255 19.334 20.9048 19.2636 18.4856C19.1854 15.8654 18.255 14.165 17.8953 13.6086C17.8406 13.5312 17.911 13.4308 18.0048 13.4385L20.068 13.7049V12.9307C19.7752 12.7596 19.5832 12.445 19.5832 12.085C19.5832 11.544 20.0289 11.1034 20.5763 11.1034C21.1236 11.1034 21.5536 11.544 21.5536 12.085ZM18.0674 21.7149V17.4639C18.0674 17.4253 18.0439 17.3789 18.0048 17.3635L16.0423 16.4592C15.9876 16.436 15.9172 16.4592 15.8938 16.521L13.8609 21.6685C13.8296 21.7459 13.8844 21.8231 13.9626 21.8231H17.9579C18.0204 21.8231 18.0674 21.7768 18.0674 21.7149Z" fill="#3291E9"/>
</svg>
