<svg width="272" height="136" viewBox="0 0 272 136" fill="none" xmlns="http://www.w3.org/2000/svg">
<mask id="mask0" mask-type="alpha" maskUnits="userSpaceOnUse" x="4" y="3" width="264" height="128">
<rect x="4" y="3" width="264" height="128" rx="12" fill="white"/>
</mask>
<g mask="url(#mask0)">
<path d="M127.32 102.072L132.628 109.163L261.37 31.8652L237.751 0.315512L127.32 102.072Z" fill="url(#paint0_linear)"/>
<path d="M103.626 130.875L98.3173 123.784L-30.4244 201.082L-6.80512 232.631L103.626 130.875Z" fill="url(#paint1_linear)"/>
<path d="M101.072 104.622L108.163 99.313L30.8653 -29.4286L-0.684378 -5.80936L101.072 104.622Z" fill="url(#paint2_linear)"/>
<path d="M129.875 128.316L122.784 133.624L200.082 262.366L231.631 238.747L129.875 128.316Z" fill="url(#paint3_linear)"/>
<path d="M113.667 97.9047L122.435 99.1699L158.812 -46.5208L119.799 -52.1239L113.667 97.9047Z" fill="url(#paint4_linear)"/>
<path d="M117.28 135.032L108.511 133.777L72.1347 279.458L111.147 285.071L117.28 135.032Z" fill="url(#paint5_linear)"/>
<path d="M96.9091 118.279L98.1702 109.506L-47.5163 73.1344L-53.1236 112.142L96.9091 118.279Z" fill="url(#paint6_linear)"/>
<path d="M134.037 114.667L132.777 123.431L278.462 159.812L284.071 120.795L134.037 114.667Z" fill="url(#paint7_linear)"/>
<path d="M159.135 66.055C159.135 66.055 161.881 59.8615 157.377 58.0654C150.044 55.1507 143.907 62.4325 143.907 62.4325L148.134 61.1992C148.134 61.1992 141.672 63.4613 140.053 68.7514L143.285 65.9023C143.285 65.9023 139.878 71.6719 142.108 75.7971C144.338 79.9223 144.75 80.4724 142.858 82.5324C140.967 84.5924 137.242 82.6677 138.113 83.5096C141.183 86.4645 145.192 82.9316 145.192 82.9316L142.512 85.7963C142.512 85.7963 153.955 83.8822 157.6 80.7242C159.773 78.8541 161.461 76.486 162.52 73.822L163.342 76.6403C163.342 76.6403 168.896 62.1808 159.135 66.055Z" fill="#333333"/>
<path d="M145.225 71.395C147.094 67.2404 148.649 61.887 156.649 65.6929C157.956 66.2932 159.319 69.0075 160.07 69.9304C160.564 70.5906 159.951 71.17 160.302 71.8342C161.831 74.8804 162.189 78.3819 161.308 81.6745C161.308 81.6745 152.279 82.2274 153.39 99.8346C153.522 101.891 130.699 103.593 135.686 98.3403C152.679 80.4685 144.105 73.8899 145.225 71.395Z" fill="#EABFA5"/>
<path d="M161.035 75.5777C161.035 75.5777 160.144 73.2404 155.705 73.2159C155.604 73.2115 155.503 73.232 155.411 73.2757C155.32 73.3194 155.241 73.3849 155.18 73.4664C155.12 73.5479 155.081 73.643 155.066 73.7433C155.051 73.8436 155.061 73.9459 155.095 74.0414C155.68 75.7289 156.748 77.2072 158.166 78.2924C161.254 80.3416 161.035 75.5777 161.035 75.5777Z" fill="#D84744"/>
<path d="M155.123 74.0204C155.123 74.0204 155.123 74.0204 155.098 73.9874C155.693 74.1739 156.214 74.5444 156.585 75.0456C156.837 75.3729 157.014 75.7504 157.106 76.1525C157.198 76.5546 157.203 76.9718 157.119 77.3757C156.245 76.3953 155.567 75.2563 155.123 74.0204Z" fill="#822A2A"/>
<path d="M155.587 73.9304C155.587 73.9304 158.828 74.4404 160.522 76.3139C160.522 76.3139 158.6 74.8938 159.992 76.8563C159.992 76.8563 160.679 77.2005 160.936 76.5795C160.971 76.2836 160.986 75.9855 160.98 75.6875C160.982 75.4951 160.911 75.3093 160.78 75.1678C160.149 74.4502 159.31 73.9459 158.38 73.7243C157.45 73.5027 156.475 73.5747 155.587 73.9304Z" fill="#EEF9F9"/>
<path d="M159.412 78.7757C158.974 78.6943 158.56 78.5139 158.202 78.2482C157.816 77.9794 157.461 77.6699 157.142 77.325C157.142 77.325 157.186 76.8111 157.817 76.9312C158.213 77.0851 158.566 77.3336 158.844 77.6552C159.122 77.9767 159.317 78.3614 159.412 78.7757Z" fill="#EEF9F9"/>
<path d="M158.185 78.2606C157.291 77.6221 156.547 76.7964 156.005 75.8411C156.671 76.1734 157.247 76.6602 157.686 77.2609C157.936 77.5946 158.144 77.9576 158.306 78.3418L158.185 78.2606Z" fill="#FFABAB"/>
<path d="M155.319 86.5528C150.453 89.4664 142.43 99.4473 140.605 101.757L140.143 101.725L138.992 94.638C146.882 85.1092 146.889 79.283 146.072 75.68C147.306 76.3531 148.587 77.0332 149.891 77.6968C157.747 81.6881 161.335 81.6541 161.335 81.6541C161.335 81.6541 157.693 81.8915 155.319 86.5528Z" fill="#D8A98F"/>
<path d="M146.118 70.6497C146.118 70.6497 144.802 69.5573 144.18 71.5936C143.559 73.63 145.85 76.7821 147.007 74.705C148.165 72.6279 146.118 70.6497 146.118 70.6497Z" fill="#EABFA5"/>
<path d="M155.995 69.6931C155.995 69.6931 155.277 66.1534 151.407 67.8653C152.266 67.6075 153.187 67.6478 154.02 67.9797C154.853 68.3115 155.549 68.9154 155.995 69.6931Z" fill="#822A2A"/>
<path d="M155.996 67.9753C155.996 67.9753 154.212 63.5852 151.094 66.4948C151.955 66.1264 152.918 66.0728 153.814 66.3435C154.711 66.6142 155.483 67.1919 155.996 67.9753Z" fill="#333333"/>
<path d="M160.406 70.2883C160.406 70.2883 158.774 68.2913 157.521 69.0145C157.534 69.031 159.703 66.9177 160.406 70.2883Z" fill="#333333"/>
<path d="M157.916 70.2638C157.916 70.2638 159.208 68.8589 160.245 72.1598C160.212 72.1845 159.285 70.2691 157.916 70.2638Z" fill="#822A2A"/>
<path d="M159.02 71.876L159.747 72.0099C159.747 72.0099 160.097 71.4467 158.773 70.6182C158.04 70.2023 157.464 69.5572 157.132 68.7819L157.185 72.0737L159.02 71.876Z" fill="#F7CAB2"/>
<path d="M159.673 73.1038L159.725 72.0263C159.732 71.9257 159.714 71.8247 159.672 71.7329C159.63 71.6411 159.566 71.5614 159.485 71.5013C159.404 71.4411 159.309 71.4024 159.209 71.3888C159.109 71.3753 159.007 71.3872 158.913 71.4236L157.163 72.0901C158.086 72.1505 158.966 72.5058 159.673 73.1038Z" fill="#D8A98F"/>
<path d="M145.718 71.3777C145.718 71.3777 144.291 72.12 145.63 73.9079C145.63 73.9079 145.361 72.7696 145.835 72.6807C146.31 72.5918 146.634 73.1047 146.634 73.1047C146.634 73.1047 146.034 72.1545 145.775 72.245C145.588 72.3187 145.416 72.4293 145.272 72.5703L145.718 71.3777Z" fill="#D8A98F"/>
<path d="M148.345 72.9481C148.345 72.9481 146.627 69.9422 148.346 68.2256C148.047 67.3161 147.949 66.3521 148.06 65.401C148.23 63.9429 144.687 70.2181 144.687 70.2181C144.687 70.2181 146.062 70.0475 146.815 73.3467L148.345 72.9481Z" fill="#333333"/>
<path d="M209.213 20.6761C207.331 20.9947 206.115 18.8316 206.124 16.7563C206.14 15.8503 206.41 14.9672 206.903 14.2068C207.396 13.4464 208.092 12.8392 208.912 12.454C212.784 10.4137 217.318 13.363 218.4 18.4424C219.746 24.9542 216.008 29.6157 211.997 32.8242C210.022 34.4058 205.671 36.2987 207.046 40.0851C207.915 42.4732 210.249 42.2539 211.859 41.7097C212.938 41.3395 214.241 40.3044 213.541 38.6819C212.842 37.0595 210.652 37.2652 211.921 38.8908C211.38 39.1666 210.844 39.4479 210.304 39.7237L210.238 39.3264C209.964 37.8143 211.983 37.8394 212.236 39.324L212.302 39.7213C212.346 39.9239 212.322 40.1353 212.234 40.3228C212.145 40.5103 211.997 40.6634 211.813 40.7583C211.629 40.8532 211.418 40.8847 211.214 40.8477C211.01 40.8108 210.824 40.7076 210.685 40.5542C209.717 39.2614 208.75 37.3157 209.79 35.9188C210.769 34.6113 212.883 34.9595 214.098 36.0422C214.789 36.7127 215.28 37.5638 215.512 38.4989C215.745 39.4339 215.711 40.4155 215.414 41.3321C214.671 43.4934 212.473 44.1691 210.553 44.3103C209.544 44.4441 208.518 44.2545 207.624 43.7687C206.73 43.2828 206.012 42.5259 205.575 41.6066C205.054 40.6639 204.777 39.606 204.768 38.5289C204.759 37.4517 205.019 36.3894 205.524 35.4382C206.739 33.3103 209.003 32.2072 210.772 30.7973C213.173 28.8793 215.704 26.5038 216.425 22.9941C217.09 19.7662 216.256 15.0512 212.738 14.1479C212.152 14.0166 211.545 14.0147 210.959 14.1423C210.372 14.27 209.821 14.5242 209.343 14.8871C208.853 15.212 208.47 15.6746 208.243 16.2166C208.155 16.4887 208.189 18.4376 208.449 18.4062C209.687 18.1915 210.44 20.4352 209.192 20.6486L209.213 20.6761Z" fill="#F0AE2B"/>
<path d="M178.472 19.1975L190.105 15.3565L193.821 14.1283L205.442 10.2612C205.814 10.2075 206.194 10.2865 206.514 10.4845C206.833 10.6826 207.073 10.9869 207.191 11.3441C207.309 11.7014 207.298 12.0887 207.158 12.4382C207.019 12.7877 206.761 13.0771 206.43 13.2556L206.296 13.3049C207.247 16.0489 207.267 19.03 206.353 21.7865C205.697 23.7199 204.632 25.4891 203.231 26.9736C201.133 29.1365 200.41 32.631 201.524 35.9773L201.592 36.1931C202.265 38.3059 203.649 40.121 205.507 41.3313L207.534 42.5948C208.439 43.1943 209.109 44.0885 209.429 45.1254L204.569 46.7292L200.853 47.9575L195.997 49.5668C195.645 48.5402 195.658 47.4237 196.034 46.4057L196.931 44.1634C197.702 42.0846 197.732 39.8032 197.015 37.7051L196.942 37.4934C195.84 34.1636 193.177 31.7876 190.203 31.3012C188.196 30.9414 186.288 30.1567 184.609 28.9997C182.233 27.3265 180.473 24.9191 179.599 22.148L179.461 22.1918C179.088 22.2456 178.709 22.1665 178.389 21.9685C178.069 21.7705 177.829 21.4662 177.711 21.1089C177.593 20.7517 177.605 20.3644 177.744 20.0148C177.883 19.6653 178.141 19.376 178.472 19.1975Z" fill="#F0CF2B"/>
<path d="M198.981 30.1035C199.222 28.4984 200.177 25.3711 200.53 23.7331C200.995 21.2811 200.869 18.7537 200.162 16.3604C200.078 16.0538 179.503 22.5121 179.4 22.2028L199.89 15.4476L199.993 15.4133C200.514 15.2378 200.719 14.4326 200.44 13.6022C200.162 12.7718 199.53 12.249 199.005 12.4189L205.442 10.2612C205.814 10.2075 206.194 10.2865 206.514 10.4846C206.833 10.6826 207.073 10.9869 207.191 11.3441C207.309 11.7014 207.298 12.0887 207.158 12.4382C207.019 12.7878 206.761 13.0771 206.43 13.2556L206.296 13.3049C207.247 16.0489 207.267 19.03 206.353 21.7865C205.697 23.7199 204.632 25.4891 203.231 26.9736C201.133 29.1365 200.41 32.631 201.524 35.9773L201.592 36.1931C202.266 38.3059 203.649 40.121 205.507 41.3313L207.534 42.5948C208.439 43.1943 209.109 44.0885 209.429 45.1254L204.61 46.7155C203.938 45.1712 203.17 43.6704 202.311 42.2219C202.311 42.2219 198.581 32.7558 198.981 30.1035Z" fill="#F0BF2B"/>
<path d="M181.653 29.7876C183.353 28.9273 183.01 26.4627 181.8 24.8014C181.246 24.0753 180.498 23.5206 179.643 23.2012C178.787 22.8819 177.858 22.811 176.964 22.9967C172.631 23.665 170.721 28.7266 172.913 33.4552C175.717 39.4941 181.499 41.0027 186.645 41.2024C189.186 41.3173 193.797 40.2177 194.961 44.067C195.686 46.5031 193.68 47.7219 192.074 48.2372C190.988 48.5868 189.369 48.5455 188.912 46.8106C188.454 45.0757 190.398 43.9806 190.347 46.0449L192.137 45.7524L191.959 45.388C191.268 44.0418 189.673 45.2362 190.358 46.5865L190.542 46.9467C190.627 47.1359 190.772 47.2915 190.955 47.3894C191.138 47.4874 191.349 47.5222 191.553 47.4883C191.758 47.4545 191.946 47.3539 192.088 47.2023C192.229 47.0507 192.317 46.8566 192.337 46.65C192.377 45.0406 191.964 42.8948 190.293 42.3944C188.622 41.8941 187.232 43.4666 186.909 45.0647C186.752 46.0145 186.864 46.9893 187.234 47.8782C187.603 48.7672 188.215 49.5345 189 50.0928C190.89 51.3905 193.058 50.6172 194.683 49.5892C195.573 49.0949 196.284 48.3308 196.712 47.4069C197.141 46.4831 197.265 45.4471 197.067 44.4482C196.922 43.3779 196.513 42.3605 195.877 41.488C195.24 40.6156 194.396 39.9157 193.421 39.4518C191.181 38.4671 188.726 38.9144 186.447 38.8519C183.37 38.7434 179.922 38.346 177.256 35.9549C174.771 33.7812 172.659 29.4815 174.945 26.6632C175.333 26.2046 175.819 25.838 176.367 25.5898C176.914 25.3417 177.51 25.2182 178.111 25.2283C178.697 25.1993 179.279 25.3427 179.785 25.6407C180.017 25.8018 181.178 27.3875 180.924 27.5178C179.806 28.0886 180.534 30.3337 181.667 29.7601L181.653 29.7876Z" fill="#F0AE2B"/>
<path d="M200.211 23.0886C200.211 23.0886 201.08 23.022 201.264 22.3514C201.449 21.6809 200.598 20.7387 200.58 20.7606C200.639 21.5547 200.512 22.3517 200.211 23.0886Z" fill="#EFB135"/>
<path d="M199.756 21.6778C199.813 22.1641 199.962 22.6352 200.194 23.0664C200.499 22.3395 200.632 21.5525 200.584 20.7659C200.584 20.7659 199.781 21.058 199.756 21.6778Z" fill="#FCC34F"/>
<path d="M200.093 23.1255C199.707 23.3444 199.251 23.4056 198.821 23.2962C198.463 23.0914 198.17 22.7908 197.974 22.4282C198.72 22.5157 199.44 22.7528 200.093 23.1255Z" fill="#FCC34F"/>
<path d="M199.193 22.0047C199.426 22.0995 199.631 22.2523 199.788 22.4484C199.946 22.6446 200.05 22.8777 200.093 23.1256C199.44 22.753 198.72 22.5158 197.974 22.4283C198.134 22.2736 198.326 22.1556 198.537 22.0825C198.748 22.0093 198.971 21.9828 199.193 22.0047Z" fill="#EFB135"/>
<path d="M199.267 21.4948C199.267 21.4948 200.108 21.2083 200.03 20.554C199.952 19.8997 198.684 19.2609 198.675 19.2939C199.069 19.9596 199.274 20.7209 199.267 21.4948Z" fill="#EFB135"/>
<path d="M198.23 20.3394C198.509 20.7795 198.859 21.17 199.267 21.4948C199.274 20.7209 199.07 19.9596 198.675 19.2939C198.675 19.2939 197.993 19.7702 198.23 20.3394Z" fill="#FCC34F"/>
<path d="M199.163 21.5635C198.841 21.875 198.409 22.0473 197.96 22.0435C197.52 21.9503 197.106 21.7582 196.75 21.4817C197.553 21.3693 198.37 21.397 199.163 21.5635Z" fill="#FCC34F"/>
<path d="M197.803 20.7787C198.074 20.8003 198.337 20.8819 198.572 21.0176C198.807 21.1533 199.009 21.3397 199.163 21.5633C198.37 21.3968 197.553 21.3691 196.75 21.4815C196.856 21.2885 197.008 21.1239 197.191 21.0016C197.374 20.8793 197.584 20.8028 197.803 20.7787Z" fill="#EFB135"/>
<path d="M197.657 20.296C197.657 20.296 198.388 19.817 198.019 19.2435C197.65 18.6701 196.028 18.4419 196.019 18.4749C196.722 18.9199 197.288 19.55 197.657 20.296Z" fill="#EFB135"/>
<path d="M196.059 19.5266C196.557 19.8497 197.094 20.1083 197.657 20.2963C197.288 19.5503 196.722 18.9202 196.019 18.4751C195.886 18.6205 195.816 18.8123 195.823 19.0091C195.831 19.2059 195.915 19.3918 196.059 19.5266Z" fill="#FCC34F"/>
<path d="M197.585 20.3841C197.482 20.5763 197.337 20.7436 197.163 20.8745C196.988 21.0054 196.787 21.0966 196.573 21.1419C196.058 21.169 195.542 21.1081 195.048 20.9619C195.858 20.6372 196.714 20.4422 197.585 20.3841Z" fill="#FCC34F"/>
<path d="M195.818 20.0414C196.429 19.9329 197.059 20.0549 197.585 20.3838C196.713 20.4397 195.855 20.6328 195.043 20.9561C195.067 20.7438 195.153 20.5433 195.291 20.3804C195.429 20.2174 195.612 20.0994 195.818 20.0414Z" fill="#EFB135"/>
<path d="M198.536 28.6946C198.684 28.8683 198.889 28.9845 199.114 29.0232C199.338 29.0618 199.57 29.0203 199.767 28.906C200.415 28.5216 200.921 27.9382 201.209 27.2428C200.396 27.8582 199.495 28.3476 198.536 28.6946Z" fill="#EFB135"/>
<path d="M199.891 27.2937C199.383 27.6999 198.923 28.1624 198.519 28.6724C199.478 28.3254 200.379 27.836 201.193 27.2206C200.988 27.1177 200.76 27.0702 200.532 27.0831C200.304 27.0959 200.082 27.1685 199.891 27.2937Z" fill="#FCC34F"/>
<path d="M198.441 28.6369C198.441 28.6369 197.729 28.3971 197.781 27.835C197.898 27.3858 198.101 26.9633 198.377 26.5903C198.606 27.2501 198.628 27.964 198.441 28.6369Z" fill="#FCC34F"/>
<path d="M199.328 27.1489C199.454 27.7414 198.463 28.6545 198.458 28.6587C198.645 27.9858 198.622 27.2719 198.393 26.6121C198.393 26.6121 199.228 26.5798 199.328 27.1489Z" fill="#EFB135"/>
<path d="M199.893 26.8375C200.099 26.9465 200.333 26.993 200.565 26.9715C200.797 26.95 201.018 26.8613 201.201 26.7164C201.665 26.2354 201.92 25.5911 201.911 24.9234C201.351 25.6711 200.669 26.3183 199.893 26.8375Z" fill="#EFB135"/>
<path d="M200.667 25.3139C200.345 25.78 200.09 26.2886 199.909 26.8251C200.681 26.3074 201.359 25.663 201.916 24.9192C201.692 24.8822 201.461 24.8987 201.244 24.9673C201.027 25.0359 200.829 25.1546 200.667 25.3139Z" fill="#FCC34F"/>
<path d="M199.783 26.8166C199.783 26.8166 198.971 26.798 198.77 26.3127C198.57 25.8274 198.813 25.1307 198.804 25.1197C199.286 25.5799 199.626 26.1689 199.783 26.8166Z" fill="#FCC34F"/>
<path d="M200.005 25.3365C200.368 25.8206 199.801 26.829 199.783 26.8166C199.635 26.1655 199.303 25.5706 198.826 25.1032C198.826 25.1032 199.673 24.8813 200.005 25.3365Z" fill="#EFB135"/>
<path d="M200.439 24.9181C200.667 24.9584 200.902 24.9375 201.12 24.8575C201.337 24.7776 201.53 24.6414 201.678 24.4629C202.134 23.8119 201.702 22.6845 201.68 22.7009C201.415 23.5138 200.993 24.2669 200.439 24.9181Z" fill="#EFB135"/>
<path d="M200.579 23.3966C200.438 23.8905 200.39 24.4065 200.439 24.9179C200.993 24.2667 201.415 23.5135 201.68 22.7007C201.455 22.7211 201.237 22.7948 201.046 22.9158C200.854 23.0368 200.694 23.2016 200.579 23.3966Z" fill="#FCC34F"/>
<path d="M200.315 24.9248C200.315 24.9248 199.501 25.122 199.107 24.7561C198.861 24.4467 198.712 24.0718 198.678 23.6782C199.314 23.9586 199.875 24.3858 200.315 24.9248Z" fill="#FCC34F"/>
<path d="M199.945 23.5708C200.496 23.9053 200.342 24.9387 200.315 24.9249C199.875 24.3859 199.314 23.9587 198.678 23.6783C198.678 23.6783 199.422 23.2501 199.945 23.5708Z" fill="#EFB135"/>
<path d="M190.298 26.3716C190.298 26.3716 189.56 26.83 189.012 26.4076C188.464 25.9851 188.598 24.7084 188.611 24.7249C189.036 25.3985 189.615 25.9625 190.298 26.3716Z" fill="#EFB135"/>
<path d="M189.839 24.9553C190.087 25.3881 190.248 25.8647 190.315 26.3589C189.632 25.948 189.056 25.3826 188.633 24.7082C188.633 24.7082 189.446 24.4766 189.839 24.9553Z" fill="#FCC34F"/>
<path d="M190.433 26.322C190.872 26.2626 191.272 26.0372 191.55 25.6921C191.717 25.3163 191.775 24.901 191.717 24.4938C191.171 25.0108 190.734 25.6326 190.433 26.322Z" fill="#FCC34F"/>
<path d="M190.492 24.8874C190.033 25.4203 190.415 26.3443 190.437 26.3278C190.74 25.6399 191.178 25.0201 191.725 24.505C191.504 24.4752 191.28 24.494 191.067 24.56C190.854 24.6261 190.658 24.7378 190.492 24.8874Z" fill="#EFB135"/>
<path d="M190.123 24.5201C190.123 24.5201 189.275 24.786 188.949 24.2139C188.624 23.6419 189.279 22.3615 189.296 22.3835C189.378 23.1562 189.664 23.8933 190.123 24.5201Z" fill="#EFB135"/>
<path d="M190.267 22.9696C190.309 23.4908 190.26 24.0152 190.123 24.5198C189.661 23.8965 189.372 23.1623 189.285 22.3915C189.285 22.3915 190.112 22.3729 190.267 22.9696Z" fill="#FCC34F"/>
<path d="M190.246 24.5132C190.692 24.5658 191.14 24.4478 191.502 24.1831C191.797 23.8423 192.016 23.4416 192.142 23.0085C191.426 23.394 190.784 23.9035 190.246 24.5132Z" fill="#FCC34F"/>
<path d="M190.872 23.0667C190.664 23.2455 190.5 23.4689 190.39 23.7201C190.281 23.9713 190.23 24.2439 190.241 24.5176C190.779 23.9078 191.42 23.3984 192.136 23.0129C191.936 22.9199 191.717 22.8762 191.497 22.8856C191.277 22.8949 191.063 22.9571 190.872 23.0667Z" fill="#EFB135"/>
<path d="M190.699 22.5949C190.699 22.5949 189.828 22.6463 189.783 21.9673C189.738 21.2883 190.906 20.1307 190.932 20.1541C190.633 20.9313 190.553 21.7752 190.699 22.5949Z" fill="#EFB135"/>
<path d="M191.523 21.0245C191.316 21.5805 191.039 22.108 190.699 22.5947C190.553 21.7751 190.633 20.9312 190.932 20.154C191.028 20.172 191.12 20.2089 191.201 20.2625C191.283 20.3161 191.354 20.3853 191.409 20.4662C191.464 20.5471 191.502 20.6381 191.522 20.7339C191.542 20.8297 191.542 20.9285 191.523 21.0245Z" fill="#FCC34F"/>
<path d="M190.813 22.621C191.01 22.7156 191.226 22.7651 191.445 22.766C191.664 22.7669 191.881 22.7192 192.079 22.6262C192.505 22.3363 192.881 21.9792 193.193 21.5689C192.349 21.7905 191.545 22.1457 190.813 22.621Z" fill="#FCC34F"/>
<path d="M192.025 21.2929C191.472 21.5722 191.041 22.0448 190.813 22.621C191.545 22.1457 192.349 21.7905 193.193 21.5688C193.047 21.4131 192.858 21.3039 192.65 21.2548C192.443 21.2058 192.225 21.219 192.025 21.2929Z" fill="#EFB135"/>
<path d="M195 29.8653C194.983 30.0922 194.887 30.3061 194.729 30.4698C194.571 30.6336 194.361 30.7369 194.135 30.7621C193.387 30.8444 192.633 30.6791 191.988 30.2915C193.008 30.3001 194.023 30.1565 195 29.8653Z" fill="#EFB135"/>
<path d="M193.079 29.5696C193.728 29.5904 194.374 29.6832 195.003 29.8462C194.026 30.1373 193.01 30.2809 191.991 30.2724C192.096 30.0708 192.251 29.8999 192.442 29.7766C192.632 29.6534 192.852 29.582 193.079 29.5696Z" fill="#FCC34F"/>
<path d="M195.034 29.7619C195.034 29.7619 195.444 29.1631 195.107 28.712C194.748 28.4181 194.334 28.1998 193.888 28.0704C194.09 28.7374 194.49 29.3274 195.034 29.7619Z" fill="#FCC34F"/>
<path d="M193.437 29.0957C193.696 29.6484 195.036 29.7871 195.034 29.7623C194.478 29.3308 194.068 28.7389 193.859 28.0666C193.859 28.0666 193.187 28.5787 193.437 29.0957Z" fill="#EFB135"/>
<path d="M192.792 29.1746C192.688 29.3812 192.527 29.5538 192.328 29.6721C192.129 29.7905 191.901 29.8498 191.67 29.8429C191.016 29.7304 190.434 29.3643 190.049 28.8245C190.937 29.0938 191.864 29.2122 192.792 29.1746Z" fill="#EFB135"/>
<path d="M191.296 28.4148C191.831 28.5901 192.335 28.8464 192.792 29.1748C191.861 29.2163 190.93 29.1007 190.038 28.8329C190.199 28.6673 190.397 28.5429 190.616 28.4701C190.835 28.3973 191.068 28.3783 191.296 28.4148Z" fill="#FCC34F"/>
<path d="M192.885 29.1048C192.885 29.1048 193.534 28.6189 193.398 28.1033C193.23 27.7284 192.967 27.4043 192.634 27.1639C192.532 27.8216 192.619 28.4948 192.885 29.1048Z" fill="#FCC34F"/>
<path d="M191.816 28.0428C191.812 28.6461 192.873 29.1226 192.877 29.0938C192.608 28.489 192.515 27.8204 192.61 27.1652C192.61 27.1652 191.815 27.4683 191.816 28.0428Z" fill="#EFB135"/>
<path d="M191.223 27.9623C191.064 28.1301 190.862 28.2529 190.64 28.3183C190.418 28.3838 190.182 28.3895 189.957 28.335C189.688 28.1926 189.455 27.9924 189.272 27.749C189.09 27.5055 188.964 27.2247 188.903 26.9267C189.6 27.4224 190.389 27.7745 191.223 27.9623Z" fill="#EFB135"/>
<path d="M190.199 26.8234C190.609 27.1357 190.956 27.522 191.223 27.9623C190.392 27.7737 189.607 27.4222 188.912 26.9281C189.102 26.8066 189.318 26.7336 189.543 26.7153C189.767 26.697 189.992 26.7342 190.199 26.8234Z" fill="#FCC34F"/>
<path d="M191.326 27.894C191.523 27.8198 191.702 27.7053 191.852 27.5577C192.002 27.4101 192.119 27.2328 192.196 27.0371C192.208 26.642 192.102 26.2522 191.89 25.9181C191.547 26.5223 191.354 27.1998 191.326 27.894Z" fill="#FCC34F"/>
<path d="M190.812 26.5877C190.574 27.1868 191.317 27.9268 191.339 27.9104C191.366 27.2161 191.56 26.5386 191.903 25.9344C191.903 25.9344 191.041 26.0217 190.812 26.5877Z" fill="#EFB135"/>
<path d="M189.172 50.9325L215.768 42.1421L217.226 46.5529L190.63 55.3433L189.172 50.9325Z" fill="#F37056"/>
<path d="M223.09 53.1368L189.839 64.127L186.613 54.3657L219.864 43.3755L223.09 53.1368Z" fill="#F37056"/>
<path d="M216.689 52.3395L194.511 59.6699L192.754 54.3521L214.932 47.0217L216.689 52.3395Z" fill="#FAE36E"/>
<path d="M106.264 83.0505C107.868 84.4583 109.921 85.2494 112.055 85.2821L109.7 92.6166L126.105 85.4854C130.776 83.5254 137.106 85.4909 142.374 88.0203C146.583 99.3766 154.786 92.755 156.307 91.3242C168.524 84.985 171.809 70.0961 175.292 56.6202L183.826 62.447C178.959 112.361 136.009 148.79 136.009 148.79L103.751 116.823C114.63 117.4 113.558 108.331 116.329 111.253C116.912 111.872 116.997 109.233 117.518 108.645C118.04 108.057 119.007 108.432 119.401 107.88C121.245 105.347 122.363 102.359 122.631 99.2375C105.091 112.043 92.9906 103.975 92.9906 103.975L106.264 83.0505Z" fill="#003CB2"/>
<path d="M142.508 97.981C142.695 98.084 142.835 98.2557 142.898 98.4598C142.961 98.6639 142.943 98.8846 142.846 99.0753C142.621 99.3816 142.109 99.3867 141.692 99.0812C141.506 98.976 141.367 98.8032 141.305 98.5986C141.243 98.3941 141.263 98.1735 141.359 97.9827C141.513 97.8331 141.718 97.7491 141.933 97.7488C142.148 97.7485 142.354 97.8318 142.508 97.981ZM139.188 103.11C139.352 102.985 139.552 102.916 139.758 102.914C139.965 102.912 140.166 102.976 140.332 103.098C140.499 103.22 140.621 103.392 140.682 103.589C140.742 103.786 140.737 103.998 140.668 104.192C140.442 104.498 139.935 104.509 139.513 104.198C139.332 104.09 139.199 103.919 139.139 103.717C139.079 103.516 139.096 103.299 139.188 103.11ZM134.636 107.051C134.94 107.458 134.945 107.969 134.637 108.2C134.329 108.43 133.84 108.282 133.535 107.874C133.231 107.467 133.235 106.957 133.538 106.731C133.84 106.504 134.347 106.666 134.636 107.051ZM130.619 110.916C130.615 111.124 130.544 111.325 130.416 111.488C130.288 111.652 130.11 111.769 129.909 111.823C129.708 111.876 129.495 111.862 129.303 111.784C129.11 111.705 128.949 111.566 128.843 111.387C128.821 111.175 128.883 110.963 129.014 110.794C129.145 110.626 129.336 110.514 129.547 110.482C129.747 110.398 129.972 110.396 130.173 110.477C130.374 110.559 130.534 110.717 130.619 110.916ZM129.506 117.02C129.592 117.053 129.672 117.103 129.738 117.167C129.805 117.232 129.858 117.309 129.895 117.394C129.931 117.479 129.95 117.571 129.95 117.664C129.95 117.756 129.931 117.848 129.894 117.933C129.858 118.018 129.805 118.095 129.738 118.16C129.671 118.224 129.591 118.274 129.505 118.306C129.418 118.339 129.326 118.354 129.233 118.35C129.14 118.346 129.05 118.323 128.966 118.283C128.879 118.25 128.8 118.2 128.733 118.136C128.666 118.072 128.613 117.995 128.577 117.909C128.541 117.824 128.522 117.732 128.522 117.64C128.522 117.547 128.541 117.455 128.577 117.37C128.614 117.285 128.667 117.208 128.734 117.144C128.801 117.08 128.88 117.03 128.967 116.997C129.054 116.965 129.146 116.95 129.239 116.954C129.331 116.958 129.422 116.98 129.506 117.02Z" fill="#558AF2"/>
<path d="M124.533 121.387L125.182 121.107C124.601 119.722 127.006 117.81 128.006 117.173L128.111 117.095L128.924 114.168L128.912 114.083C128.887 114.05 127.948 109.653 127.893 108.467C127.966 108.129 129.759 107.577 131.073 107.177C133.318 106.483 136.117 105.624 137.869 104.192C138.825 103.388 139.586 102.378 140.094 101.238C140.602 100.097 140.845 98.8562 140.804 97.6082L143.287 97.0716L143.176 96.7169C142.888 95.7689 142.709 94.7912 142.642 93.8027C142.64 93.7552 142.65 93.7079 142.669 93.6647C142.689 93.6215 142.719 93.5836 142.756 93.554C143.042 93.3399 143.812 93.4505 144.138 93.5415L144.321 92.8806C144.184 92.8461 142.987 92.5317 142.35 92.9998C142.228 93.0911 142.13 93.2093 142.062 93.3452C141.994 93.4811 141.958 93.6309 141.958 93.7829C141.995 94.7222 142.15 95.6532 142.418 96.5541L140.073 97.0565L140.098 97.3643C140.165 98.5468 139.96 99.7289 139.497 100.819C139.035 101.91 138.328 102.879 137.431 103.653C135.785 104.997 133.057 105.837 130.869 106.514C128.552 107.227 127.155 107.654 127.201 108.495C127.264 109.668 128.077 113.506 128.216 114.14L127.517 116.646C126.878 117.099 123.684 119.37 124.533 121.387Z" fill="#39AA99"/>
<path d="M109.039 86.3901L100.915 103.632C116.514 103.542 125.695 96.0255 125.695 96.0255C112.075 111.373 93.9049 103.729 93.9049 103.729L105.706 85.6656L109.039 86.3901Z" fill="#002B80"/>
<path d="M116.966 111.496C119.1 110.242 165.01 134.196 172.186 68.8689C172.186 68.8689 175.974 79.8799 177.978 78.1307C180.041 76.3425 181.605 74.0506 182.518 71.4783C180.346 82.8305 169.761 109.581 150.816 118.39C129.763 128.211 121.181 117.321 121.181 117.321C124.229 119.182 127.727 120.179 131.299 120.203C134.871 120.227 138.383 119.277 141.456 117.457C141.456 117.457 129.923 120.399 116.966 111.496Z" fill="#002B80"/>
<path d="M144.519 96.2177C143.92 95.8076 147.769 96.626 149.071 96.1406C149.981 95.8011 150.74 95.1476 151.211 94.298C152.813 93.8208 154.304 93.0287 155.596 91.968C155.135 94.3564 153.355 102.162 149.306 105.193C149.306 105.193 154.307 97.6886 153.004 94.8012C152.996 94.7902 149.144 99.3911 144.519 96.2177Z" fill="#002B80"/>
<path d="M126.931 97.676C124.243 106.126 133.002 109.226 133.002 109.226L119.98 108.459C119.98 108.459 124.006 102.656 124.422 98.0518L128.379 91.8704C128.379 91.8704 127.496 95.8967 126.931 97.676Z" fill="#002B80"/>
<path d="M112.265 97.281L111.17 92.0917L113.844 98.2445L107.932 100.954L112.265 97.281Z" fill="#002B80"/>
<path d="M145.688 91.9085L146.12 91.0526L145.554 88.5754L142.97 86.9129L139.666 87.0859C139.666 87.0859 142.675 91.3231 144.073 92.0446C145.472 92.766 145.688 91.9085 145.688 91.9085Z" fill="#39AA99"/>
<path d="M146.166 93.3619L145.482 89.0072L140.274 91.1206L138.472 86.134L141.792 83.9749L146.055 88.4318L146.166 93.3619Z" fill="#558AF2"/>
<path d="M144.523 91.064C144.523 91.064 127.067 89.9684 125.587 75.0918C125.587 75.0918 123.158 83.4517 127.844 87.5666C132.53 91.6816 141.033 93.1445 144.211 91.9419L144.523 91.064Z" fill="#DB7631"/>
<path d="M146.098 91.5502C146.098 91.5502 120.484 100.141 123.578 69.4959C123.578 69.4959 124.581 66.7535 130.553 62.6437C130.625 62.593 130.71 62.5622 130.798 62.5543C130.886 62.5463 130.975 62.5615 131.055 62.5984C131.136 62.6353 131.205 62.6925 131.257 62.7644C131.308 62.8364 131.34 62.9205 131.349 63.0086L132.212 71.0414C132.212 71.0414 121.187 82.8834 131.233 89.2268C138.263 93.6985 146.098 91.5502 146.098 91.5502Z" fill="#B64E00"/>
<path d="M147.575 93.8095C147.575 93.8095 147.627 91.1954 146.389 90.6886C145.487 90.3729 144.533 90.2357 143.58 90.2848L143.347 92.1758C143.882 92.751 144.54 93.1971 145.273 93.4801C146.005 93.7632 146.792 93.8758 147.575 93.8095Z" fill="#B64E00"/>
<path d="M150.839 92.7226C150.214 93.1309 149.496 93.3752 148.751 93.4329C148.007 93.4906 147.26 93.36 146.579 93.0529C146.579 93.0529 144.737 92.2088 145.184 93.0929C145.631 93.9771 147.471 94.5312 149.352 93.9817C151.233 93.4322 150.839 92.7226 150.839 92.7226Z" fill="#DB7631"/>
<path d="M147.269 94.1585L149.115 90.1331L156.312 90.4706L156.449 91.2266C156.449 91.2266 151.006 96.0997 147.269 94.1585Z" fill="#558AF2"/>
<path d="M183.826 62.4472L175.299 56.6411C176.556 51.7511 177.556 46.7987 178.296 41.8042L176.301 38.0613L176.832 35.6634L176.128 34.7227C176.128 34.7227 176.161 33.839 176.628 33.6703C178.174 33.1563 178.359 34.3316 179.256 34.166C180.935 33.8624 182.802 33.5122 183.53 33.3272C184.656 33.0423 185.85 32.1143 186.625 33.4481C191.051 41.08 184.213 41.6925 183.895 44.617C184.52 51.313 184.419 58.0568 183.596 64.7313C183.674 63.9864 183.76 63.2182 183.826 62.4472Z" fill="#EABFA5"/>
<path d="M118.364 70.1803L124.027 77.7445L122.993 81.5232C122.993 81.5232 121.377 82.5183 120.176 81.4864C119.637 81.031 119.782 80.4333 120.11 79.9305C118.241 80.9432 114.719 80.6529 113.578 80.5282L112.05 85.2865C109.915 85.2538 107.863 84.4627 106.258 83.0548L110.08 77.0259C112.296 73.2207 118.364 70.1803 118.364 70.1803Z" fill="#EABFA5"/>
<path d="M138.516 147.162C138.516 147.162 140.962 129.021 112.767 110.692L110.733 113.88C110.733 113.88 81.7367 98.0818 58.2753 106.074L69.9068 150.358L57.6324 154.534C57.6324 154.534 56.7146 157.333 61.5672 157.864C66.4198 158.394 80.5654 155.136 80.5654 155.136L76.0553 118.071C76.0553 118.071 98.5918 122.557 106.574 140.077C106.574 140.077 94.294 174.448 57.3069 192.009C57.3069 192.009 41.1561 203.104 45.2924 207.012C49.4287 210.921 61.4554 197.779 61.4554 197.779C61.4554 197.779 103.164 188.763 138.516 147.162Z" fill="#CFD4DD"/>
<path d="M185.64 58.368C185.64 58.368 187.623 50.3074 175.43 53.1349L172.903 60.4694C172.903 60.4694 182.2 59.5181 184.623 66.5724L185.64 58.368Z" fill="#558AF2"/>
<path d="M113.405 85.525C113.405 85.525 107.77 85.0734 105.655 81.4802L100.066 90.0682C100.066 90.0682 103.576 94.9518 112.037 91.7252L113.405 85.525Z" fill="#558AF2"/>
<g opacity="0.3">
<path opacity="0.3" d="M65.3185 98.8097C62.6506 99.03 59.9963 99.3603 57.3379 99.6851C54.6795 100.01 52.0485 100.417 49.412 100.829L48.7233 100.941L48.8794 101.631C49.3148 103.588 49.735 105.549 50.2047 107.506C50.6745 109.464 51.1373 111.401 51.6071 113.324C52.6042 117.213 53.6331 121.087 54.8639 124.921C54.308 120.934 53.5487 116.995 52.7646 113.058C52.3595 111.095 51.9488 109.136 51.5039 107.177C51.0589 105.218 50.607 103.273 50.151 101.323L49.6198 102.115C52.2472 101.642 54.8696 101.135 57.4869 100.595C60.1125 100.054 62.7231 99.4822 65.3185 98.8097Z" fill="#333333"/>
</g>
<path d="M264.408 82.1796C266.676 82.5156 268.543 82.6808 270.509 81.2943C272.197 80.1083 273.534 78.4547 275.193 77.1614C276.255 76.3666 277.49 78.0169 276.428 78.8118C274.301 80.4647 272.583 82.8492 270.066 83.9356C268.123 84.7805 266.139 84.5149 264.109 84.2231C263.838 84.1835 263.594 84.0379 263.43 83.8183C263.267 83.5986 263.197 83.323 263.236 83.052C263.276 82.7811 263.422 82.5369 263.641 82.3733C263.861 82.2097 264.137 82.14 264.408 82.1796Z" fill="#3AC1B0"/>
<path d="M231.806 99.0152C231.416 99.6416 231.547 100.78 231.582 101.492C231.632 102.373 231.737 103.247 231.833 104.12C231.962 105.439 229.914 105.685 229.786 104.356C229.58 102.269 229.003 99.6285 230.182 97.7411C230.877 96.6284 232.497 97.8971 231.806 99.0152Z" fill="#3AC1B0"/>
<path d="M262.523 125.139C262.202 126.35 261.559 127.578 260.184 127.749C258.81 127.919 258.239 127.042 257.485 126.173C256.692 126.903 256.265 128.202 255.506 128.907C255.184 129.238 254.786 129.487 254.348 129.631C253.909 129.776 253.442 129.812 252.986 129.738C251.663 129.587 251.961 127.544 253.275 127.693C254.395 127.825 255.049 126.004 255.567 125.308C255.992 124.697 256.569 124.207 257.239 123.884C257.398 123.824 257.57 123.805 257.738 123.829C257.906 123.853 258.066 123.92 258.201 124.022C258.921 124.651 259.605 126.276 260.409 124.816C260.873 123.979 260.999 121.43 259.729 121.213C258.46 120.996 258.71 118.946 260.018 119.168C262.904 119.686 263.143 122.803 262.523 125.139Z" fill="#3AC1B0"/>
<path d="M161.308 -6.98637C161.679 -5.67623 162.058 -3.59915 162.81 -2.10175C163.136 -3.95968 163.008 -6.2757 162.488 -7.509C161.968 -8.74231 163.891 -9.48693 164.407 -8.25912C165.065 -6.69171 164.855 -5.09207 164.848 -3.43866C164.958 -2.08814 164.725 -0.731733 164.169 0.50395C164.106 0.648046 164.012 0.776095 163.893 0.878473C163.774 0.980851 163.633 1.05488 163.481 1.09497C163.329 1.13507 163.171 1.1402 163.016 1.10995C162.862 1.07971 162.717 1.01489 162.592 0.920389C161.258 -0.150072 160.571 -1.9278 160.063 -3.68475C159.979 -2.91314 159.818 -2.15177 159.584 -1.41187C159.049 -0.153373 158.301 1.26574 157.189 2.09767C156.078 2.9296 154.854 1.20226 155.954 0.447291C158.689 -1.43739 157.251 -5.6746 159.725 -7.44956C159.854 -7.54406 160.002 -7.60765 160.159 -7.63536C160.317 -7.66308 160.478 -7.65418 160.631 -7.60937C160.784 -7.56456 160.925 -7.48504 161.042 -7.37699C161.16 -7.26894 161.251 -7.13527 161.308 -6.98637Z" fill="#3AC1B0"/>
<path d="M121.136 3.63585L125.174 0.612903C125.393 0.449061 125.667 0.378867 125.938 0.417765C126.209 0.456664 126.453 0.601469 126.617 0.820322C126.78 1.03917 126.851 1.31414 126.812 1.58475C126.773 1.85535 126.628 2.09943 126.409 2.26327L122.371 5.28622C122.152 5.45006 121.877 5.52024 121.607 5.48134C121.336 5.44244 121.092 5.29765 120.928 5.0788C120.764 4.85995 120.694 4.58496 120.733 4.31436C120.772 4.04375 120.917 3.79969 121.136 3.63585Z" fill="#3AC1B0"/>
<path d="M103.609 8.31824C103.798 8.5673 103.929 8.85466 103.995 9.1601C104.06 9.46553 104.058 9.78162 103.988 10.0861C103.942 10.3543 103.795 10.5947 103.577 10.7579C103.359 10.921 103.087 10.9945 102.817 10.9633C102.548 10.9209 102.306 10.7753 102.143 10.5575C101.98 10.3397 101.908 10.0669 101.943 9.79704C101.962 9.73312 101.977 9.6679 101.986 9.60191L101.953 9.55789C101.789 9.33903 101.719 9.06406 101.758 8.79346C101.797 8.52285 101.942 8.27877 102.161 8.11493C102.38 7.95109 102.655 7.88091 102.925 7.91981C103.196 7.95871 103.44 8.1035 103.604 8.32236L103.609 8.31824Z" fill="#3AC1B0"/>
<path d="M204.223 127.923L204.034 129.206C203.993 129.476 203.848 129.719 203.63 129.882C203.411 130.045 203.138 130.116 202.868 130.08C202.6 130.036 202.359 129.89 202.196 129.672C202.033 129.455 201.961 129.183 201.994 128.913C202.061 128.486 202.117 128.057 202.178 127.634C202.197 127.5 202.243 127.37 202.311 127.254C202.38 127.137 202.472 127.035 202.58 126.953C202.688 126.872 202.812 126.812 202.943 126.778C203.074 126.745 203.211 126.737 203.345 126.756C203.48 126.775 203.609 126.82 203.726 126.889C203.842 126.958 203.944 127.049 204.026 127.158C204.107 127.266 204.167 127.389 204.201 127.521C204.235 127.652 204.242 127.789 204.223 127.923Z" fill="#3AC1B0"/>
<path d="M61.0568 23.0659C60.4597 23.7018 59.7899 24.2633 59.1709 24.8813C58.633 25.4127 57.7486 26.1692 57.686 26.9801C57.5694 28.3035 55.5314 28.0008 55.6425 26.6814C55.8079 24.6089 58.1278 23.1898 59.4264 21.8055C60.3426 20.8621 61.9785 22.1184 61.0568 23.0659Z" fill="#3AC1B0"/>
<path d="M92.351 48.0455C92.612 48.2451 92.8949 48.4281 93.149 48.6414C93.1939 48.6778 93.2445 48.7066 93.2987 48.7267C93.0734 48.6894 93.4674 49.1928 93.2987 48.7267C93.3658 48.7469 93.4311 48.7727 93.4938 48.8038C93.4326 48.7681 93.3676 48.739 93.3001 48.7171C93.2788 48.3362 93.2796 47.9544 93.3025 47.5736C93.2596 47.181 93.1892 46.792 93.0918 46.4093C92.781 45.1225 94.8304 44.9017 95.1427 46.1788C95.4933 47.6332 95.881 50.605 93.6982 50.8313C92.8124 50.8112 91.9671 50.4564 91.3323 49.8383C90.7129 49.3663 90.1871 48.6525 89.5131 49.3117C88.5612 50.2303 87.3312 48.5758 88.2775 47.6613C89.6228 46.3966 91.1135 47.0576 92.351 48.0455Z" fill="#3AC1B0"/>
<path d="M194.545 91.6711C194.635 91.9153 194.63 92.1848 194.529 92.4249C194.428 92.6651 194.239 92.8577 194.001 92.9636C193.763 93.0696 193.494 93.0808 193.248 92.9952C193.002 92.9095 192.798 92.7333 192.677 92.5024L192.628 92.4364C192.471 92.3584 192.304 92.3014 192.132 92.2669C191.757 92.1786 191.371 92.1329 190.991 92.0391C190.724 91.9914 190.485 91.8438 190.322 91.6263C190.159 91.4087 190.085 91.1375 190.114 90.8674C190.157 90.5976 190.304 90.3551 190.522 90.1914C190.741 90.0276 191.015 89.9554 191.286 89.9901C192.524 90.3252 193.949 90.3484 194.545 91.6711Z" fill="#3AC1B0"/>
<path d="M246.786 37.3239C246.996 37.244 247.227 37.2343 247.444 37.2964C247.661 37.3585 247.852 37.4891 247.988 37.6686C248.575 38.4817 248.872 39.4683 248.832 40.4704C248.856 40.7404 248.776 41.0093 248.607 41.2216C248.439 41.434 248.195 41.5736 247.927 41.6117C247.656 41.641 247.384 41.5624 247.17 41.393C246.957 41.2236 246.819 40.977 246.785 40.7064C246.785 40.3438 246.745 39.9824 246.665 39.6287L246.62 39.4995C246.449 39.46 246.29 39.3809 246.155 39.2686C246.02 39.1563 245.914 39.0139 245.844 38.8528C245.75 38.5984 245.757 38.3174 245.866 38.0686C245.974 37.8197 246.174 37.6222 246.424 37.5174L246.786 37.3239Z" fill="#3AC1B0"/>
<path d="M39.1496 62.8677C39.8865 64.1961 39.4208 65.5233 39.2052 66.9209C39.0513 68.2166 38.6259 69.4653 37.9567 70.5854C38.3241 71.6839 36.5423 72.3311 35.988 71.2008L35.8165 70.8571C35.7569 70.6929 35.7408 70.5161 35.7698 70.3439C35.7989 70.1717 35.8721 70.01 35.9823 69.8745C36.6248 69.0116 37.027 67.9937 37.1477 66.9246C37.2527 66.2623 37.867 64.7551 37.5198 64.1308C36.8625 62.9661 38.5005 61.714 39.1496 62.8677Z" fill="#3AC1B0"/>
<path d="M8.84034 79.1888L10.6716 80.1098C10.9184 80.222 11.1127 80.4246 11.2145 80.6758C11.3163 80.927 11.3179 81.2077 11.2188 81.46C11.1108 81.7103 10.9086 81.908 10.6559 82.0104C10.4033 82.1128 10.1205 82.1116 9.86868 82.0072L8.03741 81.0861C7.90798 81.0368 7.78982 80.9619 7.68999 80.8659C7.59015 80.7699 7.5107 80.6547 7.45635 80.5273C7.40201 80.3999 7.37389 80.2629 7.37369 80.1243C7.37349 79.9858 7.40122 79.8487 7.4552 79.7212C7.50918 79.5936 7.58831 79.4782 7.68787 79.3819C7.78743 79.2857 7.90538 79.2104 8.03467 79.1607C8.16395 79.111 8.30194 79.0879 8.44036 79.0927C8.57879 79.0975 8.71482 79.1302 8.84034 79.1888Z" fill="#3AC1B0"/>
<path d="M25.4658 34.7393C24.9001 36.2958 24.4647 37.8966 24.1641 39.5253C23.862 40.8073 21.8213 40.5238 22.1248 39.2321C22.4621 37.4321 22.9463 35.6628 23.5725 33.9419C23.6925 33.713 23.894 33.5375 24.1372 33.4502C24.3804 33.3629 24.6475 33.3701 24.8856 33.4704C25.1238 33.5707 25.3156 33.7568 25.423 33.9918C25.5304 34.2268 25.5457 34.4936 25.4658 34.7393Z" fill="#3AC1B0"/>
</g>
<defs>
<linearGradient id="paint0_linear" x1="104.023" y1="125.041" x2="225.727" y2="33.9287" gradientUnits="userSpaceOnUse">
<stop stop-color="white"/>
<stop offset="1" stop-color="#3AC1B0" stop-opacity="0"/>
</linearGradient>
<linearGradient id="paint1_linear" x1="101765" y1="-62982.4" x2="75308.9" y2="-43176.4" gradientUnits="userSpaceOnUse">
<stop stop-color="white"/>
<stop offset="1" stop-color="#3AC1B0" stop-opacity="0"/>
</linearGradient>
<linearGradient id="paint2_linear" x1="-21758.4" y1="28520.9" x2="-26983.7" y2="21541.2" gradientUnits="userSpaceOnUse">
<stop stop-color="white"/>
<stop offset="1" stop-color="#3AC1B0" stop-opacity="0"/>
</linearGradient>
<linearGradient id="paint3_linear" x1="14034.8" y1="-50185.9" x2="19260.1" y2="-43206.1" gradientUnits="userSpaceOnUse">
<stop stop-color="white"/>
<stop offset="1" stop-color="#3AC1B0" stop-opacity="0"/>
</linearGradient>
<linearGradient id="paint4_linear" x1="-33617.7" y1="26372.9" x2="-29755.5" y2="-494.516" gradientUnits="userSpaceOnUse">
<stop stop-color="white"/>
<stop offset="1" stop-color="#3AC1B0" stop-opacity="0"/>
</linearGradient>
<linearGradient id="paint5_linear" x1="46560.1" y1="-93606.9" x2="42697.9" y2="-66739.4" gradientUnits="userSpaceOnUse">
<stop stop-color="white"/>
<stop offset="1" stop-color="#3AC1B0" stop-opacity="0"/>
</linearGradient>
<linearGradient id="paint6_linear" x1="26291.1" y1="30977.1" x2="-576.337" y2="27115" gradientUnits="userSpaceOnUse">
<stop stop-color="white"/>
<stop offset="1" stop-color="#3AC1B0" stop-opacity="0"/>
</linearGradient>
<linearGradient id="paint7_linear" x1="-93689.9" y1="-49200.8" x2="-66821.3" y2="-45338.5" gradientUnits="userSpaceOnUse">
<stop stop-color="white"/>
<stop offset="1" stop-color="#3AC1B0" stop-opacity="0"/>
</linearGradient>
</defs>
</svg>
