<svg width="71" height="70" viewBox="0 0 71 70" fill="none" xmlns="http://www.w3.org/2000/svg">
<circle cx="35.0024" cy="35" r="35" fill="#2B6DEF" fill-opacity="0.2"/>
<path fill-rule="evenodd" clip-rule="evenodd" d="M30.468 33.2565L34.5006 42.183L40.4898 38.7255H40.5006V31.8104L30.468 33.2565Z" fill="#2BBDF7"/>
<path fill-rule="evenodd" clip-rule="evenodd" d="M48.2413 26.6233L44.5022 25.2207L40.5022 24.8945V31.8096V46.4443L46.5022 49.9018L51.2848 40.1599L48.2522 30.7876L48.2413 26.6233Z" fill="#2891F9"/>
<path fill-rule="evenodd" clip-rule="evenodd" d="M47.892 24.8945L46.5007 28.3521V49.8475L52.5007 46.3899V24.8945H47.892Z" fill="#2BBDF7"/>
<path fill-rule="evenodd" clip-rule="evenodd" d="M46.5022 21.4375L40.5022 24.895L46.5022 28.3526L52.5022 24.895L46.5022 21.4375Z" fill="#2B6DEF"/>
<path fill-rule="evenodd" clip-rule="evenodd" d="M34.5007 35.2671L28.5007 28.5478L16.5007 24.8945V46.3899L22.5007 49.8475L24.2181 37.9527L28.5007 38.7247L34.5007 42.1822V35.2671Z" fill="#2891F9"/>
<path fill-rule="evenodd" clip-rule="evenodd" d="M22.5007 21.4375L16.5007 24.895L34.5007 35.2676L37.2181 33.702L40.5007 31.8101L22.5007 21.4375Z" fill="#2B6DEF"/>
<path fill-rule="evenodd" clip-rule="evenodd" d="M22.5011 35.2675V49.8478L28.5011 46.3903V38.725L22.5011 35.2675Z" fill="#2BBDF7"/>
</svg>
