<svg width="74" height="74" viewBox="0 0 74 74" fill="none" xmlns="http://www.w3.org/2000/svg">
<rect width="74" height="74" rx="4" fill="#D5E2FC"/>
<path fill-rule="evenodd" clip-rule="evenodd" d="M31.8936 33.8594L36.6724 44.4378L43.7698 40.3404H43.7827V32.1458L31.8936 33.8594Z" fill="#2BBDF7"/>
<path fill-rule="evenodd" clip-rule="evenodd" d="M52.9535 25.9997L48.5224 24.3376L43.7822 23.951V32.1457V49.4886L50.8925 53.5859L56.5601 42.0412L52.9663 30.9346L52.9535 25.9997Z" fill="#2891F9"/>
<path fill-rule="evenodd" clip-rule="evenodd" d="M52.5418 23.951L50.8931 28.0484V53.5215L58.0034 49.4242V23.951H52.5418Z" fill="#2BBDF7"/>
<path fill-rule="evenodd" clip-rule="evenodd" d="M50.8925 19.8536L43.7822 23.951L50.8925 28.0483L58.0028 23.951L50.8925 19.8536Z" fill="#2B6DEF"/>
<path fill-rule="evenodd" clip-rule="evenodd" d="M36.6722 36.2431L29.5619 28.2803L15.3413 23.951V49.4242L22.4516 53.5215L24.4868 39.4256L29.5619 40.3404L36.6722 44.4378V36.2431Z" fill="#2891F9"/>
<path fill-rule="evenodd" clip-rule="evenodd" d="M22.4516 19.8538L15.3413 23.9511L36.6722 36.2431L39.8924 34.3877L43.7825 32.1458L22.4516 19.8538Z" fill="#2B6DEF"/>
<path fill-rule="evenodd" clip-rule="evenodd" d="M22.4521 36.243V53.5215L29.5624 49.4241V40.3404L22.4521 36.243Z" fill="#2BBDF7"/>
</svg>
