<svg width="466" height="506" viewBox="0 0 466 506" fill="none" xmlns="http://www.w3.org/2000/svg">
<circle cx="209.5" cy="168.5" r="140.5" fill="#EAF0FD"/>
<circle cx="337" cy="30" r="30" fill="#EAF0FD"/>
<g clip-path="url(#clip0)">
<path d="M10.8962 193.65L178.125 96.5399C188.084 90.7299 200.533 95.2949 204.683 106.085L259.042 255.9L54.0521 375.005L-0.307683 224.775C-4.87224 212.74 0.107277 199.875 10.8962 193.65Z" fill="#AAC5F9"/>
<path d="M12.864 190.601L180.093 93.4908C190.052 87.6808 202.501 92.2458 206.65 103.036L261.01 252.851L56.0198 371.956L1.66009 221.726C-2.90447 209.691 2.07505 196.826 12.864 190.601Z" fill="white"/>
<path d="M210.385 249.53L88.8021 320.08C84.6525 322.57 79.258 320.495 77.5982 315.93L45.2313 226.29L41.0817 214.67C40.2518 212.18 41.0817 209.275 43.5715 208.03L170.964 134.16C173.869 132.5 177.604 133.745 178.848 137.065L182.168 145.78L215.365 236.665C216.61 242.06 214.535 247.04 210.385 249.53Z" fill="#3B465C"/>
<path d="M56.0195 372.37V371.955L261.01 261.565L391.722 337.51C400.021 342.075 400.021 353.695 391.722 358.675L220.344 458.275C210.8 463.67 199.596 463.67 190.052 458.275L63.0738 383.99C58.9243 381.5 56.0195 377.35 56.0195 372.37Z" fill="#DBD9FC"/>
<path d="M182.5 146L45.2313 226.29L41.0817 214.67C40.2518 212.18 41.0817 209.275 43.5715 208.03L170.964 134.16C173.869 132.5 177.604 133.745 178.848 137.065L182.5 146Z" fill="#061024"/>
<path d="M56.0195 371.955L261.01 252.85L391.722 328.795C400.021 333.36 400.021 344.98 391.722 349.96L220.344 449.56C210.8 454.955 199.596 454.955 190.052 449.56L56.0195 371.955Z" fill="#B8B2F9"/>
<path d="M259.766 269.865L88.8024 369.05C88.3875 369.465 88.3875 369.88 88.8024 370.295L97.5166 375.275C98.3465 375.69 99.1764 375.69 99.5914 375.275L270.555 275.675C270.97 275.26 270.97 274.845 270.555 274.43L261.841 269.45C261.426 269.45 260.596 269.45 259.766 269.865Z" fill="#DBD9FC"/>
<path d="M165.983 412.625C165.568 412.625 164.738 412.625 164.323 412.21L109.134 381.915C108.719 381.5 108.304 381.085 108.304 380.255C108.304 379.84 108.719 379.01 109.134 378.595L277.192 280.655C278.022 280.24 279.267 280.24 280.512 280.655L335.702 310.95C336.117 311.365 336.532 311.78 336.532 312.61C336.532 313.025 336.117 313.855 335.702 314.27L167.643 412.21C167.228 412.625 166.813 412.625 165.983 412.625ZM110.793 380.67L165.568 410.55C165.983 410.965 166.398 410.965 166.813 410.55L334.457 313.025L279.682 283.145C279.267 282.73 278.852 282.73 278.437 283.145L110.793 380.67Z" fill="#7165F3"/>
<path d="M321.592 322.57H321.177L263.913 291.03C263.498 290.615 263.083 290.2 263.498 289.785C263.913 289.37 264.328 288.955 264.743 289.37L322.007 320.91C322.422 321.325 322.837 321.74 322.422 322.155C322.422 322.57 322.007 322.57 321.592 322.57Z" fill="#7165F3"/>
<path d="M306.655 331.285H306.24L248.976 299.745C248.561 299.33 248.146 298.915 248.561 298.5C248.976 298.085 249.39 297.67 249.805 298.085L307.07 329.625C307.485 330.04 307.9 330.455 307.485 330.87C307.07 331.285 307.07 331.285 306.655 331.285Z" fill="#7165F3"/>
<path d="M291.301 340.415H290.886L233.622 308.875C233.207 308.46 232.792 308.045 233.207 307.63C233.622 307.215 234.037 306.8 234.452 307.215L291.716 338.755C292.131 339.17 292.546 339.585 292.131 340C292.131 340 291.716 340.415 291.301 340.415Z" fill="#7165F3"/>
<path d="M276.364 349.13H275.949L218.685 317.59C218.27 317.175 217.855 316.76 218.27 316.345C218.684 315.93 219.099 315.515 219.514 315.93L276.779 347.47C277.194 347.885 277.609 348.3 277.194 348.715C276.779 348.715 276.364 349.13 276.364 349.13Z" fill="#7165F3"/>
<path d="M261.009 357.845H260.594L203.33 326.305C202.915 325.89 202.5 325.475 202.915 325.06C203.33 324.645 203.745 324.23 204.16 324.645L261.424 356.185C261.839 356.6 262.254 357.015 261.839 357.43C261.839 357.845 261.424 357.845 261.009 357.845Z" fill="#7165F3"/>
<path d="M245.656 366.975H245.241L187.976 335.435C187.562 335.02 187.147 334.605 187.562 334.19C187.976 333.775 188.391 333.36 188.806 333.775L246.486 364.9C246.901 365.315 247.316 365.73 246.901 366.145C246.486 366.56 246.071 366.975 245.656 366.975Z" fill="#7165F3"/>
<path d="M230.716 375.69H230.301L172.622 344.15C172.207 343.735 171.792 343.32 172.207 342.905C172.622 342.49 173.037 342.075 173.452 342.49L230.716 374.03C231.131 374.445 231.546 374.86 231.131 375.275C231.546 375.275 231.131 375.69 230.716 375.69Z" fill="#7165F3"/>
<path d="M215.364 384.405H214.949L157.684 352.865C157.27 352.45 156.855 352.035 157.27 351.62C157.684 351.205 158.099 350.79 158.514 351.205L215.779 382.33C216.194 382.745 216.609 383.16 216.194 383.575C216.194 384.405 215.779 384.405 215.364 384.405Z" fill="#7165F3"/>
<path d="M200.423 393.12H200.009L142.744 361.58C142.329 361.165 141.914 360.75 142.329 360.335C142.744 359.92 143.159 359.505 143.574 359.92L200.838 391.46C201.253 391.875 201.668 392.29 201.253 392.705C200.838 393.12 200.423 393.12 200.423 393.12Z" fill="#7165F3"/>
<path d="M185.073 402.25H184.658L127.393 370.71C126.979 370.295 126.564 369.88 126.979 369.465C127.393 369.05 127.808 368.635 128.223 369.05L185.488 400.59C185.903 401.005 186.318 401.42 185.903 401.835C185.903 401.835 185.488 402.25 185.073 402.25Z" fill="#7165F3"/>
<path d="M124.072 388.97C123.657 388.97 123.242 388.97 123.242 388.555C122.827 388.14 123.242 387.31 123.657 387.31L293.791 288.54C294.206 288.125 295.036 288.54 295.036 288.955C295.451 289.37 295.036 290.2 294.621 290.2L124.487 388.555C124.072 388.555 124.072 388.97 124.072 388.97Z" fill="#7165F3"/>
<path d="M138.182 396.855C137.768 396.855 137.353 396.855 137.353 396.44C136.938 396.025 137.353 395.195 137.768 395.195L307.901 296.425C308.316 296.01 309.146 296.425 309.146 296.84C309.561 297.255 309.146 298.085 308.731 298.085L138.597 396.855H138.182Z" fill="#7165F3"/>
<path d="M152.706 404.74C152.291 404.74 151.876 404.74 151.876 404.325C151.461 403.91 151.876 403.08 152.291 403.08L322.424 304.31C322.839 303.895 323.669 304.31 323.669 304.725C324.084 305.14 323.669 305.97 323.254 305.97L153.121 404.74C152.706 404.74 152.706 404.74 152.706 404.74Z" fill="#7165F3"/>
<path d="M447 346.5V422C428.327 403.325 394.486 373.898 382.037 368.918C380.377 368.088 378.717 367.673 377.057 366.843C365.439 362.278 352.16 358.958 340.126 356.468C327.677 353.978 315.643 351.903 305.684 350.658C294.895 350.243 274.562 349.828 271.243 343.603C269.998 341.528 270.828 338.623 272.902 337.378C274.147 336.963 275.392 336.963 276.637 337.378C282.447 338.208 287.841 336.548 290.331 335.303C291.991 334.473 294.065 332.813 296.14 329.908C282.447 318.288 273.732 317.873 268.338 319.118C260.039 321.608 253.814 330.323 248.42 327.833C246.76 327.003 245.515 325.343 245.1 323.268C244.685 321.608 245.515 319.533 248.42 316.213C252.984 311.233 259.209 308.328 262.529 307.498C262.943 307.498 262.943 307.498 263.358 307.498C263.773 306.668 264.188 304.593 265.433 302.933C267.093 300.443 269.168 297.953 272.488 296.293C274.977 295.048 277.467 295.048 280.372 295.048C280.787 294.633 281.202 293.803 281.617 293.388C282.032 292.558 282.447 292.143 283.276 291.313C284.106 290.483 284.936 289.653 286.181 289.238C289.916 287.163 293.651 287.578 300.705 289.653C301.12 289.653 301.12 289.653 301.535 290.068C302.78 290.483 304.439 290.898 306.099 291.313C306.099 291.313 306.929 289.238 309.834 287.993C311.909 287.163 314.398 286.748 318.548 287.163C328.507 288.823 362.534 306.668 389.091 318.703C399.05 323.268 410.669 328.248 422.288 333.228C440.546 341.528 440 341.5 447 346.5Z" fill="#D5E2FC"/>
<path d="M447 480.5V494C447 500.627 441.627 506 435 506H361C267 441.5 252.71 430.885 244.41 429.225C243.58 428.81 238.601 427.98 231.962 425.49C229.057 424.66 226.152 423.83 222.832 422.585C219.928 421.755 217.023 420.095 212.873 418.02C191.295 405.57 187.146 397.685 175.942 396.025C171.377 395.195 164.738 395.61 156.024 400.175C153.534 400.59 150.629 399.76 149.384 398.1C147.725 395.61 148.555 391.045 152.704 388.97C153.119 388.555 153.949 388.14 154.779 387.31C154.779 386.065 154.779 384.405 155.609 382.33C156.024 380.255 157.269 377.765 159.344 375.69C159.759 375.275 160.588 374.445 161.833 373.615C161.833 373.615 162.663 373.2 163.493 372.785C163.493 372.37 163.493 371.54 163.908 371.125C164.323 369.88 164.323 369.05 164.738 368.22C165.568 366.56 166.398 365.315 167.228 364.485C169.303 361.995 171.792 361.165 175.112 360.335C175.942 359.09 177.187 357.43 178.432 356.185C179.677 354.94 181.336 353.695 183.411 352.865C186.316 351.205 191.71 349.96 208.724 354.525C214.533 356.185 222.003 358.675 231.132 362.41C229.887 360.75 227.397 355.77 228.642 350.375C229.057 348.715 229.887 344.98 232.377 344.15C234.451 343.735 237.771 345.81 239.431 349.545C248.145 362.41 261.009 378.18 278.022 393.95C281.757 397.685 285.906 401.005 290.471 404.74C310.804 421.755 430.817 473.03 447 480.5Z" fill="#D5E2FC"/>
<path d="M319.52 292.69C322.01 293.935 324.085 295.595 325.33 297.67L325.745 298.5C318.691 295.595 311.221 292.69 304.167 290.2C304.167 290.2 304.997 288.125 307.902 286.88C313.296 288.955 315.371 290.615 319.52 292.69Z" fill="#AAC5F9"/>
<path d="M294.939 294.32C298.673 295.98 301.578 298.47 303.238 301.79C295.354 298.055 287.884 295.565 280 294.735C280.415 293.49 281.66 292.245 282.49 291C287.884 291.83 290.789 292.66 294.939 294.32Z" fill="#AAC5F9"/>
<path d="M277.939 302.786C281.258 303.616 284.163 306.106 285.823 309.011C280.428 306.936 272.129 304.861 263 307.351C263.415 306.521 263.83 304.446 265.075 302.786C270.884 301.541 274.619 301.956 277.939 302.786Z" fill="#AAC5F9"/>
<path d="M204.574 362.825C205.404 363.655 206.649 364.9 207.479 366.145C202.914 364.485 198.35 362.825 193.37 361.995C187.146 360.75 180.092 359.505 174.282 359.92C175.112 358.675 175.527 357.845 177.187 356.185C182.581 356.185 189.221 356.6 194.2 357.845C195.86 358.26 197.105 358.26 198.35 358.675C202.085 360.335 204.159 362.41 204.574 362.825Z" fill="#AAC5F9"/>
<path d="M197.937 374.445C198.767 375.69 199.597 376.935 200.012 377.765C192.127 373.615 180.508 369.465 168.89 371.54C165.985 371.955 166.815 371.955 163.495 372.785C163.91 370.71 163.495 370.71 164.325 369.465C165.155 369.05 166.815 368.635 168.475 368.22C169.719 367.805 172.209 367.39 177.189 367.805C180.094 367.805 183.413 368.22 187.563 369.465C191.712 370.295 195.032 371.125 197.937 374.445Z" fill="#AAC5F9"/>
<path d="M190.467 384.82C191.297 386.065 192.127 387.31 192.127 388.555C187.977 385.65 181.753 382.745 173.038 382.33C165.154 382.33 158.515 384.82 154.365 387.31C154.365 386.065 154.365 385.235 154.78 383.99C156.855 382.745 159.76 381.085 162.664 380.255C167.644 378.595 172.209 378.595 173.038 378.595C176.358 378.18 185.902 378.595 190.467 384.82Z" fill="#AAC5F9"/>
<path d="M49.7944 218.405C51.3986 218.405 52.6991 216.733 52.6991 214.67C52.6991 212.607 51.3986 210.935 49.7944 210.935C48.1901 210.935 46.8896 212.607 46.8896 214.67C46.8896 216.733 48.1901 218.405 49.7944 218.405Z" fill="#F37056"/>
<path d="M58.0942 213.01C59.6984 213.01 60.9989 211.338 60.9989 209.275C60.9989 207.212 59.6984 205.54 58.0942 205.54C56.4899 205.54 55.1895 207.212 55.1895 209.275C55.1895 211.338 56.4899 213.01 58.0942 213.01Z" fill="#F0CF2B"/>
<path d="M66.393 208.03C67.9972 208.03 69.2977 206.358 69.2977 204.295C69.2977 202.232 67.9972 200.56 66.393 200.56C64.7888 200.56 63.4883 202.232 63.4883 204.295C63.4883 206.358 64.7888 208.03 66.393 208.03Z" fill="#25CD79"/>
<path d="M62.5 230L78.5 235L70 252" stroke="white" stroke-width="3" stroke-linecap="round" stroke-linejoin="round"/>
<path d="M88 242L113.5 227" stroke="white" stroke-width="3" stroke-linecap="round" stroke-linejoin="round"/>
</g>
<defs>
<clipPath id="clip0">
<rect y="91" width="466" height="415" fill="white"/>
</clipPath>
</defs>
</svg>
