<svg width="168" height="168" viewBox="0 0 168 168" fill="none" xmlns="http://www.w3.org/2000/svg">
<circle cx="84" cy="84" r="48.4545" fill="white" stroke="#003CB2" stroke-width="10"/>
<circle cx="83.9999" cy="84" r="69.2545" stroke="#EEF1F7" stroke-width="2"/>
<circle cx="84" cy="84" r="83.5" stroke="#F5F7FA"/>
<mask id="path-4-inside-1" fill="white">
<path d="M84 30.5454C93.3832 30.5454 102.601 33.0154 110.727 37.707C118.853 42.3986 125.601 49.1466 130.293 57.2727C134.985 65.3988 137.454 74.6168 137.454 84C137.454 93.3832 134.985 102.601 130.293 110.727L84 84V30.5454Z"/>
</mask>
<path d="M84 30.5454C93.3832 30.5454 102.601 33.0154 110.727 37.707C118.853 42.3986 125.601 49.1466 130.293 57.2727C134.985 65.3988 137.454 74.6168 137.454 84C137.454 93.3832 134.985 102.601 130.293 110.727L84 84V30.5454Z" fill="white" stroke="#2BBDF7" stroke-width="20" mask="url(#path-4-inside-1)"/>
<mask id="path-5-inside-2" fill="white">
<path d="M130.293 110.727C125.601 118.853 118.853 125.601 110.727 130.293C102.601 134.985 93.3832 137.455 84 137.455C74.6167 137.455 65.3988 134.985 57.2727 130.293C49.1466 125.601 42.3986 118.853 37.707 110.727L84 84L130.293 110.727Z"/>
</mask>
<path d="M130.293 110.727C125.601 118.853 118.853 125.601 110.727 130.293C102.601 134.985 93.3832 137.455 84 137.455C74.6167 137.455 65.3988 134.985 57.2727 130.293C49.1466 125.601 42.3986 118.853 37.707 110.727L84 84L130.293 110.727Z" fill="white" stroke="#2891F9" stroke-width="20" mask="url(#path-5-inside-2)"/>
<circle cx="83.9999" cy="84" r="46.4211" fill="white"/>
<path d="M64.1455 85.0909L75.1419 96.2182L100.8 70.2545" stroke="#31CB9E" stroke-width="5"/>
</svg>
