<svg width="24" height="24" viewBox="0 0 24 24" fill="none" xmlns="http://www.w3.org/2000/svg">
<path fill-rule="evenodd" clip-rule="evenodd" d="M14.8175 18.2618L18.2541 8.38109C19.1254 5.87609 17.801 3.13909 15.296 2.26783C12.791 1.39656 10.054 2.72096 9.18272 5.22596L5.7461 15.1067C4.87483 17.6117 6.19923 20.3487 8.70423 21.22C11.2092 22.0912 13.9462 20.7668 14.8175 18.2618Z" fill="#5FBCD3"/>
<path fill-rule="evenodd" clip-rule="evenodd" d="M10.7618 18.7358L19.0723 12.3817C21.1792 10.7708 21.5813 7.75689 19.9703 5.64998C18.3594 3.54308 15.3455 3.141 13.2386 4.75191L4.92812 11.106C2.82121 12.7169 2.41913 15.7308 4.03005 17.8377C5.64097 19.9447 8.65486 20.3467 10.7618 18.7358Z" fill="#2C89A0"/>
<path fill-rule="evenodd" clip-rule="evenodd" d="M6.26154 7.5616L16.6562 6.38283C19.2915 6.08398 21.6701 7.97805 21.969 10.6133C22.2678 13.2486 20.3738 15.6272 17.7385 15.9261L7.34376 17.1049C4.70846 17.4037 2.32987 15.5096 2.03102 12.8743C1.73217 10.239 3.62624 7.86045 6.26154 7.5616Z" fill="#164450"/>
<path d="M15.2009 8.73489C14.735 8.73654 14.2948 8.82414 13.8802 8.99777C13.4622 9.17142 13.0563 9.43618 12.6626 9.79204C12.4725 9.3884 12.0843 9.10333 11.7407 8.97471C11.4094 8.85097 10.9923 8.78998 10.4893 8.79175C10.1382 8.79293 9.77365 8.8196 9.39574 8.87157C9.02119 8.92016 8.63661 8.99243 8.24197 9.08835L7.97845 10.4717C8.29523 10.3153 8.62735 10.1976 8.97479 10.1188C9.32561 10.0399 9.69342 9.99978 10.0783 9.99842C10.4834 9.99695 10.7908 10.0533 11.0005 10.1673C11.2102 10.278 11.3155 10.4447 11.3162 10.6675C11.3163 10.6844 11.3147 10.703 11.3114 10.7233C11.3114 10.7435 11.3065 10.7756 11.2965 10.8195L11.2666 10.9665L10.2286 10.9701C9.16181 10.9739 8.34889 11.1692 7.78986 11.556C7.23419 11.9395 6.95765 12.4958 6.96022 13.225C6.9619 13.701 7.12528 14.0751 7.45032 14.3474C7.77537 14.6197 8.22485 14.7548 8.79875 14.7528C9.26461 14.7511 9.70482 14.6635 10.1194 14.4899C10.5374 14.3162 10.9433 14.0515 11.337 13.6956C11.5272 14.0992 11.9153 14.3844 12.2589 14.513C12.5902 14.6367 13.0074 14.6977 13.5104 14.6959C13.8614 14.6947 14.226 14.668 14.6039 14.6161C14.9784 14.5675 15.363 14.4953 15.7576 14.3993L16.0212 13.016C15.7044 13.1724 15.3723 13.29 15.0248 13.3689C14.674 13.4478 14.3062 13.4879 13.9213 13.4893C13.5162 13.4907 13.2088 13.4344 12.9991 13.3204C12.7894 13.2097 12.6842 13.043 12.6834 12.8202C12.6833 12.8033 12.6849 12.7847 12.6883 12.7644C12.6882 12.7442 12.6932 12.7121 12.7031 12.6682L12.733 12.5212L13.771 12.5175C14.8378 12.5138 15.6507 12.3185 16.2098 11.9316C16.7654 11.5482 17.042 10.9919 17.0394 10.2627C17.0377 9.78672 16.8743 9.41255 16.5493 9.14026C16.2242 8.86796 15.7748 8.73286 15.2009 8.73489H15.2009ZM14.4051 9.94287C14.6447 9.94199 14.834 10.0004 14.9729 10.1181C15.1083 10.2358 15.1764 10.3976 15.1771 10.6035C15.1782 10.877 15.064 11.0833 14.8349 11.2225C14.6025 11.3651 14.2601 11.4372 13.8078 11.4388L12.9368 11.4419L12.9766 11.2341C13.0595 10.8254 13.2255 10.5075 13.4745 10.2804C13.7235 10.0567 14.0337 9.94419 14.4051 9.94288V9.94287ZM10.1919 12.0489L11.0628 12.0458L11.023 12.2536C10.9401 12.6623 10.7741 12.9802 10.5251 13.2073C10.2761 13.431 9.9659 13.5435 9.59456 13.5448C9.35487 13.5457 9.1656 13.4872 9.02677 13.3696C8.89132 13.2519 8.82323 13.0901 8.8225 12.8842C8.82162 12.6107 8.93562 12.4044 9.16468 12.2652C9.39711 12.1225 9.73949 12.0505 10.1919 12.0489L10.1919 12.0489Z" fill="white"/>
</svg>
