<svg width="24" height="24" viewBox="0 0 24 24" fill="none" xmlns="http://www.w3.org/2000/svg">
<path d="M11.9463 18.5104C8.33687 18.5104 5.40063 15.5896 5.40063 12.0005C5.40063 8.41041 8.33779 5.49053 11.9463 5.49053C15.5557 5.49053 18.4919 8.41041 18.4919 12.0005C18.4919 15.5896 15.5557 18.5104 11.9463 18.5104ZM11.9463 6.76512C9.04471 6.76512 6.68313 9.11345 6.68313 12.0005C6.68313 14.8866 9.04471 17.2349 11.9463 17.2349C14.8488 17.2349 17.2094 14.8866 17.2094 12.0005C17.2094 9.11345 14.8488 6.76512 11.9463 6.76512ZM16.5299 4.56015C15.149 3.71851 13.563 3.27433 11.9463 3.27642C10.4581 3.2758 8.99396 3.65208 7.69015 4.37024L7.06624 3.25633C8.56091 2.43198 10.2397 1.99978 11.9463 2C13.8071 2 15.6241 2.50947 17.2012 3.47364L16.5299 4.56015ZM18.4409 19.6343L17.6117 18.6601C19.5799 17.0092 20.7171 14.5708 20.7176 12.0005H22.0001C22.0001 14.9459 20.703 17.7279 18.4409 19.6334V19.6343ZM11.9463 21.9991C9.6139 21.9991 7.3408 21.1865 5.54658 19.7119L6.36387 18.7295C7.93894 20.0194 9.91124 20.7242 11.9463 20.7245C13.3693 20.7245 14.7265 20.3958 15.9798 19.7494L16.57 20.8815C15.1393 21.6164 13.5544 21.9998 11.9463 22V21.9991Z" fill="#00BFEC"/>
<path opacity="0.5" d="M20.5013 9.63115C20.166 8.42719 19.5762 7.30938 18.7719 6.35336L19.5928 5.67224C20.4945 6.74407 21.1556 7.99735 21.5312 9.3472L20.5022 9.63115H20.5013ZM3.63551 17.4385C2.5665 15.8269 1.99747 13.9349 2.00001 12.0005C2.00001 9.29607 3.07636 6.77062 5.03111 4.88885L5.77361 5.65306C4.03937 7.30731 3.06105 9.6026 3.06815 12.0005C3.06815 13.7343 3.57348 15.4125 4.5276 16.8542L3.63551 17.4385Z" fill="#00BFEC"/>
</svg>
