<svg width="24" height="24" viewBox="0 0 24 24" fill="none" xmlns="http://www.w3.org/2000/svg">
<path d="M12.941 20.577C12.993 20.699 13.021 20.832 13.021 20.972C13.021 21.54 12.553 22 11.976 22C11.399 22 10.931 21.54 10.931 20.972C10.931 20.836 10.958 20.706 11.007 20.587L4.797 17.06C4.59883 17.2616 4.32772 17.3748 4.045 17.374C3.468 17.374 3 16.914 3 16.346C3 15.866 3.333 15.464 3.784 15.35V8.32301C3.32555 8.20952 3.00264 7.79929 3 7.32701C3 6.75901 3.468 6.29901 4.045 6.29901C4.391 6.29901 4.698 6.46501 4.889 6.72101L10.961 3.27101C10.9408 3.1916 10.9307 3.10995 10.931 3.02801C10.931 2.46001 11.4 2.00001 11.976 2.00001C12.292 1.99837 12.5916 2.14094 12.7896 2.38724C12.9876 2.63355 13.0625 2.95671 12.993 3.26501L19.101 6.73501C19.291 6.47101 19.602 6.29901 19.955 6.29901C20.532 6.29901 21 6.75901 21 7.32701C21 7.80701 20.665 8.21101 20.213 8.32401L20.195 15.344C20.656 15.451 21 15.859 21 16.346C21 16.914 20.532 17.374 19.955 17.374C19.6601 17.3747 19.3784 17.2513 19.179 17.034L12.941 20.577ZM12.662 20.197L18.949 16.625C18.8902 16.4207 18.8972 16.2031 18.969 16.003L12.904 12.103C12.669 12.3515 12.3419 12.4918 12 12.491C11.6179 12.492 11.2567 12.3167 11.021 12.016L5.044 16.043C5.10664 16.2438 5.10525 16.4591 5.04 16.659L11.282 20.204C11.474 20.0359 11.7207 19.9434 11.976 19.944C12.239 19.944 12.479 20.039 12.662 20.196V20.197ZM12.781 3.68401C12.6388 3.85185 12.4474 3.97078 12.234 4.02401L12.218 10.08C12.8023 10.179 13.2312 10.6834 13.235 11.276C13.235 11.427 13.207 11.573 13.155 11.706L19.225 15.61C19.36 15.48 19.53 15.387 19.72 15.344L19.738 8.33301C19.2016 8.22364 18.8437 7.71481 18.922 7.17301L12.781 3.68401ZM11.176 3.68901L5.075 7.15401C5.16504 7.70288 4.80432 8.2245 4.259 8.33401V15.339C4.471 15.383 4.659 15.489 4.803 15.639L10.808 11.594C10.7226 11.2697 10.7744 10.9246 10.9513 10.6397C11.1281 10.3548 11.4145 10.1553 11.743 10.088L11.759 4.03401C11.5318 3.9868 11.3267 3.86544 11.176 3.68901Z" fill="black"/>
</svg>
