<svg width="24" height="24" viewBox="0 0 24 24" fill="none" xmlns="http://www.w3.org/2000/svg">
<path d="M6.827 11.376L5.082 15.074L5.894 18.106L7.96 18.658L10.524 21.225L9.752 22L3.64 20.36L2 14.248L3.23 13.02L8.572 7.677L6.827 11.376L5.082 15.074L10.524 9.632L8.572 7.677L6.827 11.376ZM9.632 13.476L15.074 18.918L18.106 18.106L18.66 16.04L21.225 13.476L22 14.248L20.362 20.362L14.248 22L7.679 15.428L9.632 13.476ZM14.368 10.524L8.926 5.082L5.892 5.894L5.34 7.957L2.775 10.524L2 9.752L3.64 3.638L9.752 2L10.98 3.23L16.32 8.57L14.368 10.524ZM16.04 5.34L13.476 2.775L14.248 2L20.362 3.638L22 9.752L15.428 16.321L13.476 14.368L18.92 8.924L18.106 5.892L16.04 5.34Z" fill="black"/>
</svg>
