<svg width="24" height="24" viewBox="0 0 24 24" fill="none" xmlns="http://www.w3.org/2000/svg">
<path d="M12.2629 21.048C10.0543 21.0423 8.07707 20.3642 6.31132 19.067C5.84179 18.7222 5.82751 18.5241 6.22751 18.0946L6.2637 18.0565C6.75228 17.527 6.74943 17.5298 7.32944 17.947C8.66603 18.9235 10.2681 19.4703 11.9229 19.5146C13.681 19.5756 15.2963 19.1556 16.7563 18.2136C18.5077 17.0841 19.7021 15.5107 20.2021 13.5021C20.8297 10.9802 20.363 8.64489 18.7097 6.59247C17.5515 5.15435 16.0467 4.22766 14.2286 3.78861C12.6057 3.39622 11.0114 3.49241 9.44472 4.03147C8.61518 4.31719 7.8485 4.73815 7.1561 5.27911C6.81419 5.54578 6.68466 5.54007 6.39418 5.21435C6.25443 5.06255 6.12342 4.90292 6.00179 4.73624C5.82274 4.4829 5.84751 4.33243 6.08941 4.14004C7.23885 3.22831 8.57807 2.58588 10.0085 2.26001C11.3031 1.95315 12.6472 1.91748 13.9562 2.15524C15.7353 2.47715 17.3182 3.20859 18.6773 4.39338C19.683 5.27149 20.4964 6.29818 21.0621 7.4982C21.8411 9.15156 22.1583 10.883 21.925 12.7097C21.7168 14.3765 21.0619 15.9561 20.0297 17.2812C18.9754 18.6546 17.6258 19.6565 16.0125 20.3146C14.8238 20.8061 13.5491 21.0554 12.2629 21.048ZM11.6571 14.9688C11.5933 15.066 11.56 15.1383 11.5067 15.1936C11.1848 15.5317 10.7914 15.7345 10.3171 15.7498C9.98854 15.7593 9.65901 15.7317 9.33043 15.7393C9.20333 15.7382 9.07807 15.7696 8.96661 15.8307C7.44849 16.7831 5.81417 16.9222 4.09223 16.5565C3.52556 16.4365 3.01793 16.2184 2.58554 15.8469C2.25982 15.5679 2.03029 15.2383 2.00267 14.7755C1.95505 13.9688 2.5522 13.4183 3.16745 13.2383C4.30367 12.905 5.38464 13.1078 6.41895 13.6097C6.89134 13.8383 7.33325 14.1298 7.78469 14.4002C8.04374 14.5536 8.12088 14.5479 8.25041 14.2831C8.83613 13.0869 8.45803 11.7678 7.02753 11.2802C5.77227 10.8516 4.54462 10.8945 3.33603 11.4516C3.15888 11.5335 2.96459 11.6897 2.75602 11.5221C2.53982 11.3468 2.68459 11.1383 2.73983 10.9535C3.13698 9.61633 3.53984 8.28202 3.94842 6.94867C4.03795 6.65628 4.27128 6.5058 4.61224 6.5239C5.11416 6.55152 5.61322 6.62676 6.11513 6.63818C6.86752 6.65723 7.62278 6.6639 8.37422 6.62675C8.93328 6.59818 9.42376 6.35246 9.8552 5.99627C9.90758 5.95341 10.0133 5.90388 10.0476 5.92674C10.0981 5.96008 10.1285 6.05341 10.1333 6.12389C10.1685 6.70104 9.92092 7.14581 9.46186 7.49153C8.91899 7.90106 8.29898 8.09155 7.62182 8.10774C6.91991 8.12393 6.21799 8.13345 5.51702 8.13631C5.35892 8.13821 5.27511 8.19536 5.23797 8.34393C5.17511 8.59155 5.10844 8.84013 5.03701 9.0868C4.98273 9.27061 5.05225 9.34395 5.23797 9.33633C5.67988 9.32014 6.1218 9.29062 6.56276 9.29347C7.57778 9.28755 8.5579 9.66355 9.30852 10.3468C10.0447 11.0021 10.3428 11.8478 10.3876 12.7926C10.4228 13.5497 10.2781 14.2745 9.86187 14.9269C9.74853 15.105 9.79996 15.1822 9.99139 15.2326C10.5 15.3669 10.9695 15.2755 11.4181 15.025C11.4562 15.0041 11.4914 14.9802 11.5305 14.9622C11.5438 14.9564 11.5638 14.9631 11.6571 14.9688ZM7.30658 15.1841L7.29134 15.0917C7.22753 15.0526 7.16753 15.0041 7.09801 14.9736C6.59323 14.7498 6.09513 14.5021 5.57702 14.3136C5.04844 14.1202 4.49891 13.9821 3.92366 14.1164C3.66461 14.1764 3.40555 14.2421 3.33031 14.5402C3.2465 14.8688 3.44746 15.0736 3.68175 15.2526C3.75508 15.3088 3.84556 15.3488 3.93318 15.3831C4.82272 15.726 5.7256 15.7355 6.63228 15.4669C6.86467 15.3983 7.08277 15.2793 7.30658 15.1841Z" fill="#CD9517"/>
</svg>
