<svg width="24" height="24" viewBox="0 0 24 24" fill="none" xmlns="http://www.w3.org/2000/svg">
<path d="M11.9064 2.36229V2.35593L16.3136 14.7277C16.3485 14.8015 16.3484 14.887 16.3136 14.9607C16.2788 15.0345 16.2127 15.0887 16.1336 15.1087L12.8664 16.0087C12.6 16.075 12.66 16.515 12.9336 16.5287L21.26 18.1887C21.42 18.215 21.58 18.2687 21.7464 18.2687C18.6281 12.8897 15.5081 7.51187 12.3864 2.13502C12.2536 1.84866 11.7736 2.06229 11.9064 2.36229ZM11.4264 2.38956C8.28909 7.80775 5.14636 13.2223 2 18.635V18.7896C2.06636 18.8823 2.14636 18.9759 2.26636 18.9759C2.43364 18.9559 2.52 18.7959 2.62 18.6896L11.2064 8.60229C11.2936 8.47502 11.4864 8.39593 11.62 8.51593C12.4473 9.39593 13.2473 10.3023 14.0864 11.1823C14.2464 11.355 14.5736 11.1623 14.4864 10.9296C13.5064 8.12956 12.4936 5.32956 11.5064 2.52956C11.4837 2.48072 11.4569 2.43389 11.4264 2.38956ZM8.8 11.9959C6.79364 14.3823 4.8 16.7959 2.8 19.1959H21.8727L22 19.0623V18.8759C21.9336 18.8223 21.8727 18.7559 21.7864 18.7423C17.2936 17.8423 12.8 16.9096 8.30636 16.0096C8.16636 16.0023 8.03364 15.8696 8.08636 15.7223C8.43364 14.5696 8.78636 13.4159 9.12 12.2559C9.17364 12.0623 8.96 11.9496 8.8 11.9959Z" fill="black"/>
</svg>
