<svg width="24" height="24" viewBox="0 0 24 24" fill="none" xmlns="http://www.w3.org/2000/svg">
<path d="M2 12C2 6.47718 6.47718 2 12 2C17.5227 2 21.9999 6.47718 21.9999 12C21.9999 14.8509 20.8068 17.4232 18.8927 19.2448C16.0456 14.2456 13.73 8.67727 12 2.48V2.39C10.2638 8.61107 7.93628 14.1986 5.07399 19.2129C3.1794 17.3932 2 14.8343 2 12ZM11.9909 12.0944C11.3685 15.1543 10.1886 18.245 8.48187 21.3634C10.7364 22.2069 13.2189 22.2123 15.4771 21.3787C13.7759 18.255 12.6035 15.1599 11.9909 12.0944Z" fill="black"/>
</svg>
