<svg width="24" height="24" viewBox="0 0 24 24" fill="none" xmlns="http://www.w3.org/2000/svg">
<path d="M22 11.9621C21.999 14.2981 20.19 16.1201 17.878 16.1131C15.614 16.1061 13.776 14.2341 13.788 11.9471C13.8 9.66108 15.658 7.79708 17.91 7.81208C20.209 7.82708 22.001 9.64608 22 11.9621ZM5.09001 19.9201C4.28288 19.9207 3.50912 19.598 2.94149 19.0242C2.37387 18.4504 2.05966 17.6732 2.06901 16.8661C2.07401 15.1601 3.40801 13.7811 5.08501 13.8201C5.56701 13.8311 6.05102 14.0111 6.52102 14.1581C7.18902 14.3671 7.84102 14.6261 8.50702 14.8441C8.92002 14.9801 9.31502 14.8841 9.68002 14.6581C10.21 14.3281 10.66 13.9301 10.947 13.3461C11.237 12.7521 11.897 12.5311 12.484 12.7831C13.028 13.0171 13.311 13.6101 13.154 14.1861C12.977 14.8331 12.444 15.1811 11.78 15.0651C11.191 14.9621 10.607 14.7721 10.009 14.9891C8.93901 15.3781 8.46901 16.2641 8.11701 17.2751C7.92501 17.8281 7.72102 18.4091 7.37702 18.8651C6.82502 19.6011 6.01301 19.9241 5.09001 19.9201ZM5.02601 4.08208C6.39301 4.08208 7.45802 4.88208 7.92202 6.19908C8.10602 6.71908 8.38202 7.20608 8.61802 7.70708C9.20102 8.94708 10.664 9.06908 11.592 8.73008C12.414 8.43008 13.206 8.95808 13.225 9.81008C13.238 10.4001 12.935 10.8301 12.381 11.0041C11.891 11.1561 11.339 10.9491 11.039 10.5021C10.932 10.3421 10.832 10.1761 10.713 10.0251C9.89701 8.99508 8.99101 8.72508 7.76301 9.18708C7.33501 9.34708 6.93401 9.58708 6.53201 9.81008C5.7976 10.2284 4.92143 10.3196 4.11662 10.0614C3.31181 9.80329 2.65213 9.21951 2.29801 8.45208C1.34201 6.42208 2.80201 4.08208 5.02601 4.08208ZM14.556 19.9901C14.544 21.1091 13.631 22.0201 12.541 22.0001C11.488 21.9801 10.608 21.0731 10.581 20.0531C10.552 18.8991 11.4 17.9601 12.579 17.9491C13.707 17.9381 14.569 18.8681 14.557 19.9891L14.556 19.9901ZM10.594 4.02008C10.594 2.88808 11.48 1.99008 12.589 2.00008C13.667 2.01008 14.569 2.93308 14.56 4.01808C14.552 5.15908 13.698 6.07408 12.574 6.05308C11.295 6.02908 10.542 4.99808 10.594 4.02008Z" fill="#2B5EBB"/>
</svg>
