<svg width="24" height="24" viewBox="0 0 24 24" fill="none" xmlns="http://www.w3.org/2000/svg">
<path d="M19.954 6.81364C20.0576 6.86818 20.2949 6.99727 20.2722 7.27818L20.2576 16.7482C20.2713 16.9312 20.1683 17.1031 20.0003 17.1773L17.9094 18.3982L16.2549 19.3636L11.8513 21.9345C11.7954 21.9773 11.727 22.0003 11.6567 22C11.5681 21.9971 11.4821 21.9694 11.4085 21.92L8.37035 20.1673C6.68308 19.1936 4.93762 18.1864 3.21762 17.1973C3.07308 17.1273 2.98853 16.9645 3.00126 16.7791L3.00762 14.2773C3.01308 12.0264 3.01671 9.74 3.01853 7.52909V7.52C3.01979 7.50488 3.0201 7.4897 3.01944 7.47455V7.44636C3.0158 7.32364 3.01035 7.07182 3.24671 6.95818C4.21035 6.38273 5.1958 5.79818 6.14944 5.23273L7.72853 4.29636C8.93035 3.58455 10.154 2.85818 11.3376 2.15545L11.3467 2.15C11.4241 2.1057 11.505 2.0677 11.5885 2.03636L11.6822 2L11.7694 2.05182C12.6294 2.55 13.504 3.05909 14.3485 3.55182L15.9267 4.47L17.4676 5.36636L19.8922 6.77727H19.894L19.8958 6.77909L19.954 6.81364ZM11.9822 21.0591L14.6749 19.4864C16.3077 18.5345 17.9401 17.5821 19.5722 16.6291L19.5813 11.3118L19.5858 7.79818L16.0858 9.84545V11.46C16.0818 12.4676 16.0836 13.4752 16.0913 14.4827V14.5518L16.0503 14.6082C16.0057 14.6681 15.9486 14.7177 15.8831 14.7536L15.8594 14.7682H15.8585L14.7276 15.4273C14.3185 15.6636 13.8958 15.9091 13.4822 16.1518L11.9876 17.02L11.9822 21.0591ZM8.16762 9.64545C8.93198 10.0848 9.69683 10.5233 10.4622 10.9609L11.6476 11.6418L15.0813 9.63454L11.6422 7.60545L8.16762 9.64545ZM7.81308 10.2364L7.87762 14.2264L11.3031 16.2218L11.3085 12.2409L7.81308 10.2364ZM3.70399 7.87818L3.68671 16.6736L11.2994 21.0645L11.3022 17.0182L9.81126 16.15L8.87671 15.6055C8.39762 15.3273 7.90217 15.0391 7.4158 14.7545C7.2749 14.6882 7.18671 14.5264 7.19671 14.3491L7.12308 9.84091L3.70399 7.87818ZM19.244 7.2L17.9085 6.42182L16.434 5.56273C15.0303 4.74818 13.3658 3.78091 11.6485 2.77545C9.90932 3.8031 8.17113 4.8325 6.43399 5.86364L4.04671 7.27909L7.48126 9.24727L11.4213 6.93364C11.5605 6.84395 11.7402 6.84754 11.8758 6.94273L15.7631 9.23454L19.244 7.2ZM11.9876 16.2245C13.136 15.5554 14.285 14.8875 15.4349 14.2209V10.2273L11.9903 12.24L11.9876 16.2245ZM16.6485 15.5036C16.6143 15.514 16.5788 15.5192 16.5431 15.5191C16.4455 15.5205 16.3516 15.4821 16.2831 15.4127C16.1714 15.3121 16.1213 15.16 16.1513 15.0127C16.1829 14.8176 16.3499 14.6732 16.5476 14.67C16.6594 14.67 16.7685 14.7209 16.8476 14.8091L16.8485 14.8109C16.9602 14.9364 16.9879 15.1157 16.9194 15.2691C16.8728 15.3868 16.7717 15.4743 16.6485 15.5036ZM18.5249 16.7836C18.4171 16.6996 18.3585 16.5672 18.3685 16.4309C18.3758 16.2864 18.4503 16.1582 18.5703 16.0855C18.6298 16.0466 18.6993 16.0258 18.7703 16.0255C18.8485 16.0255 18.9249 16.05 18.9922 16.0955C19.1298 16.1857 19.2017 16.3484 19.1758 16.5109C19.1511 16.7179 18.9761 16.8742 18.7676 16.8755C18.6783 16.8752 18.5921 16.8425 18.5249 16.7836ZM6.5349 14.6745C6.64853 14.6745 6.75671 14.7264 6.83217 14.8164C6.94267 14.9396 6.97012 15.1164 6.90217 15.2673C6.83935 15.4202 6.68929 15.519 6.52399 15.5164C6.40078 15.5118 6.286 15.4527 6.2108 15.355C6.13559 15.2573 6.10778 15.1312 6.1349 15.0109C6.17249 14.8186 6.33903 14.6786 6.5349 14.6745ZM17.404 16.1073C17.2865 16.009 17.2307 15.8553 17.2576 15.7045C17.288 15.5061 17.4552 15.3573 17.6558 15.35C17.7558 15.35 17.8522 15.39 17.9285 15.4609C18.044 15.5682 18.0922 15.7236 18.054 15.8691C18.0282 16.0081 17.9306 16.1229 17.7976 16.1709C17.6646 16.2228 17.5139 16.1985 17.404 16.1073ZM5.67217 15.45C5.79308 15.55 5.84944 15.7091 5.81853 15.8564C5.79853 15.9904 5.71144 16.1049 5.58762 16.16H5.58671C5.5327 16.1856 5.47377 16.1993 5.41399 16.2C5.34246 16.199 5.27261 16.1783 5.21217 16.14C5.07414 16.0538 4.99752 15.8963 5.0149 15.7345C5.02497 15.5747 5.12778 15.4356 5.27762 15.3791C5.32214 15.36 5.37008 15.3501 5.41853 15.35C5.50944 15.35 5.59762 15.3845 5.67217 15.45ZM11.5903 3.06091C11.7085 3.06091 11.8203 3.11182 11.8994 3.20091C11.9967 3.30364 12.0331 3.44636 11.9967 3.58273C11.9605 3.7444 11.828 3.86677 11.664 3.89H11.6594C11.4912 3.92306 11.3198 3.85032 11.2267 3.70636C11.1486 3.586 11.1393 3.43352 11.2022 3.30455L11.2031 3.30273C11.2627 3.17491 11.3833 3.0862 11.5231 3.06727C11.5456 3.06313 11.5684 3.061 11.5913 3.06091H11.5903ZM4.50035 16.0818C4.63217 16.1564 4.71217 16.2909 4.71126 16.4364C4.71919 16.5856 4.64582 16.7275 4.51944 16.8073C4.45347 16.8505 4.37648 16.8738 4.29762 16.8745C4.23252 16.8751 4.16846 16.8582 4.11217 16.8255C3.97764 16.7509 3.89515 16.6083 3.89762 16.4545C3.89762 16.2973 3.97853 16.1545 4.10762 16.0818C4.22839 16.0089 4.37959 16.0089 4.50035 16.0818ZM11.8094 5.82273C11.9402 5.90407 12.0154 6.05092 12.0049 6.20454C11.9945 6.35701 11.8987 6.49046 11.7576 6.54909C11.7005 6.57513 11.6386 6.58877 11.5758 6.58909C11.4826 6.59008 11.3919 6.5593 11.3185 6.50182C11.2047 6.41765 11.1433 6.28001 11.1567 6.13909C11.1645 5.99932 11.2449 5.87382 11.3685 5.80818C11.431 5.77221 11.5019 5.7534 11.574 5.75364C11.6578 5.7535 11.7398 5.77748 11.8103 5.82273H11.8094ZM11.2913 5.13364C11.1945 5.04846 11.1444 4.92199 11.1567 4.79364V4.79091C11.1688 4.65878 11.2426 4.54014 11.3558 4.47091C11.4215 4.4272 11.4987 4.4041 11.5776 4.40455C11.6503 4.40455 11.7231 4.42364 11.7894 4.45909L11.7903 4.46C11.9265 4.53329 12.0096 4.67724 12.0049 4.83182C12.0035 4.99484 11.9052 5.14137 11.7549 5.20455C11.6978 5.23056 11.6358 5.24419 11.5731 5.24455C11.4683 5.24575 11.3671 5.20595 11.2913 5.13364Z" fill="black"/>
</svg>
