<svg width="24" height="24" viewBox="0 0 24 24" fill="none" xmlns="http://www.w3.org/2000/svg">
<path d="M6.86746 6.89956C6.30091 7.47933 6.2198 8.37742 6.6733 9.04932C6.98928 9.52486 7.52352 9.80928 8.09446 9.80594C9.30412 9.80621 10.2845 10.7871 10.2842 11.9967C10.284 13.2064 9.30312 14.1868 8.09346 14.1865C5.62209 14.1874 3.39512 12.695 2.45654 10.4088C1.51797 8.12257 2.05384 5.49584 3.81296 3.75999C6.04559 1.55162 9.5915 1.40339 12.0007 3.41771C10.6154 4.57584 9.8155 6.28895 9.81687 8.09453C9.8163 9.29925 10.789 10.2782 11.9936 10.2853C11.4127 10.2853 10.8556 10.0545 10.4449 9.6436C10.0342 9.23272 9.80359 8.67548 9.80386 8.09453C9.80554 7.75399 9.70438 7.42086 9.51362 7.13875C9.32728 6.86291 9.06524 6.64675 8.759 6.51624C8.33319 6.3381 7.85373 6.3381 7.42791 6.51624C7.21742 6.6054 7.02687 6.73572 6.86746 6.89956ZM21.5194 13.533C22.471 15.7886 21.9815 18.3947 20.2764 20.1514C18.549 21.9314 15.9144 22.4856 13.6162 21.5525C11.3179 20.6193 9.81547 18.3854 9.81787 15.9049C9.80091 15.1116 10.2144 14.3712 10.8988 13.9695C11.5831 13.5679 12.4312 13.5679 13.1155 13.9695C13.7999 14.3712 14.2134 15.1116 14.1964 15.9049C14.1931 16.5943 14.6061 17.2176 15.2423 17.4832C15.6727 17.6634 16.1561 17.6614 16.5844 17.4782C16.9939 17.3009 17.3187 16.9715 17.4901 16.5595C17.846 15.69 17.4377 14.6959 16.5734 14.3276C16.3629 14.2385 16.1365 14.1929 15.9078 14.1935C14.6982 14.1935 13.7176 13.2129 13.7176 12.0032C13.7176 10.7936 14.6982 9.81294 15.9078 9.81294C18.356 9.81161 20.5667 11.2774 21.5184 13.533H21.5194Z" fill="#36C8CC"/>
<path opacity="0.7" d="M11.9949 13.7152C13.2039 13.7152 14.1847 14.696 14.1847 15.905C14.1863 18.3895 12.6785 20.6259 10.3747 21.5561C8.07083 22.4863 5.43295 21.9236 3.70909 20.1345C2.01227 18.3754 1.53097 15.7726 2.48657 13.5231C3.44216 11.2736 5.64963 9.81299 8.09368 9.81302C9.30334 9.81302 10.284 10.7937 10.284 12.0033C10.284 13.213 9.30334 14.1936 8.09368 14.1936C7.7534 14.1926 7.42113 14.2937 7.1389 14.4838C6.86287 14.6704 6.64668 14.9328 6.51639 15.2395C6.25036 15.8709 6.3866 16.6002 6.86267 17.093V17.095C7.43846 17.6928 8.36077 17.7899 9.04846 17.3252C9.52265 17.0081 9.80637 16.4744 9.80408 15.904C9.80408 14.696 10.7849 13.7152 11.9949 13.7152ZM21.3285 5.31234C22.2968 7.20144 22.2125 9.45828 21.1059 11.2699C19.9993 13.0814 18.0299 14.1867 15.9071 14.1876C14.6971 14.1876 13.7163 13.2068 13.7163 11.9968C13.7163 10.7869 14.6971 9.80602 15.9071 9.80602C16.5957 9.80666 17.2176 9.39455 17.4854 8.76016C17.6802 8.29384 17.6605 7.76545 17.4313 7.31498C17.2096 6.87804 16.8108 6.55747 16.3364 6.4349C15.8621 6.31233 15.3579 6.39959 14.9523 6.67446C14.4774 6.99107 14.1932 7.5249 14.1957 8.09562C14.2124 8.88894 13.7988 9.62927 13.1143 10.0307C12.4299 10.4322 11.5818 10.432 10.8976 10.0302C10.2133 9.62845 9.79994 8.88793 9.81709 8.09462C9.81565 5.79149 11.1136 3.68458 13.1712 2.64994C15.2289 1.61529 17.6942 1.82993 19.542 3.20462L19.546 3.20762C20.2925 3.76423 20.9019 4.48415 21.3275 5.31234H21.3285Z" fill="#36C8CC"/>
</svg>
