<svg width="24" height="24" viewBox="0 0 24 24" fill="none" xmlns="http://www.w3.org/2000/svg">
<path d="M9.05467 21.5802C7.92273 21.2665 6.86727 20.7237 5.95374 19.9854C5.0536 19.292 4.27512 18.4536 3.6502 17.5046C2.98382 16.5064 2.50356 15.3958 2.23263 14.2265C1.92246 12.8259 1.92246 11.3744 2.23263 9.97382C2.49696 8.78903 2.9454 7.653 3.5616 6.6071C4.46371 5.15978 5.75263 3.99361 7.28271 3.24037C7.82004 2.95117 8.38371 2.71383 8.96607 2.53159C9.85205 3.59476 10.738 4.74654 11.624 5.89831C11.7126 6.07551 11.8898 6.16411 11.9784 6.3413C11.0897 6.37856 10.2169 6.58924 9.40906 6.96149C8.6949 7.33484 8.06238 7.84688 7.54851 8.46765C7.04289 9.13603 6.65351 9.88483 6.39673 10.6826C6.16013 11.6471 6.19076 12.6579 6.48533 13.6063L10.295 10.594C11.181 11.7458 12.067 12.809 12.953 13.9607C11.7126 14.9353 10.3836 15.9099 9.14327 16.9731C10.3836 18.5678 11.7126 20.2512 12.953 21.9345C11.643 22.0894 10.3152 21.9687 9.05467 21.5802ZM17.4981 10.8474C17.4655 10.7024 17.4271 10.5587 17.3829 10.4168C17.2633 10.5107 14.6275 12.5254 13.5732 13.4291C12.6872 12.2774 11.8012 11.2142 10.9152 10.0624C12.1556 9.08784 13.4846 8.11326 14.7249 7.05009C13.4846 5.45532 12.2442 3.86056 10.9152 2.1772C10.9152 2.0886 10.8266 2.0886 10.8266 2H12.067C14.3396 2.02121 16.5334 2.83604 18.2689 4.30355C19.1146 5.00244 19.8339 5.84158 20.3952 6.78429C21.0563 7.79912 21.4803 8.94985 21.6356 10.151C21.8729 11.5319 21.8429 12.9456 21.547 14.3151C21.2934 15.4627 20.8113 16.5474 20.1294 17.5046C19.5344 18.4236 18.785 19.2329 17.9145 19.8968C17.0666 20.6335 16.0691 21.1775 14.9907 21.4916C14.1934 20.517 13.4846 19.631 12.7758 18.6564C12.511 18.3533 12.2738 18.0272 12.067 17.6818C13.7662 17.6875 15.3711 16.9015 16.4083 15.5555C16.9186 14.9027 17.2813 14.147 17.4715 13.3405C17.6363 12.6681 17.6451 11.837 17.4981 10.8474ZM13.3136 18.2657C13.9254 19.1014 14.5606 19.9198 15.2184 20.7199C16.0599 20.4156 16.8374 19.9574 17.5114 19.3687C18.3284 18.7442 19.031 17.9828 19.5881 17.1184C20.2176 16.235 20.6629 15.2341 20.8976 14.1751C21.1758 12.8887 21.2032 11.5606 20.9773 10.2361C20.8324 9.12529 20.4384 8.06162 19.8246 7.12451C19.3008 6.24521 18.6295 5.46268 17.84 4.81121C16.2454 3.46212 14.2343 2.70424 12.1459 2.66537C12.9672 3.71083 13.7991 4.77666 15.2494 6.64253L15.6393 7.14223L15.1573 7.55421C14.5271 8.09019 13.8837 8.61042 13.2276 9.11442C13.1656 9.16315 12.4125 9.74169 11.8473 10.1794C12.0803 10.4762 12.3505 10.8146 12.7634 11.3311C13.1709 11.8406 13.4412 12.1799 13.6742 12.4767C14.0853 12.1374 14.5336 11.7812 15.0705 11.3648C15.1573 11.2975 16.5731 10.2077 16.9727 9.89408L17.7311 9.29782L18.0172 10.2192C18.3474 11.2811 18.3823 12.4128 18.1182 13.4929C17.9066 14.3915 17.5028 15.2336 16.9346 15.9613C16.0311 17.1338 14.7334 17.9392 13.2817 18.2285L13.3136 18.2657Z" fill="#ED1968"/>
</svg>
