<svg width="24" height="24" viewBox="0 0 24 24" fill="none" xmlns="http://www.w3.org/2000/svg">
<path fill-rule="evenodd" clip-rule="evenodd" d="M15.4849 2.00094L13.3427 4.20158C12.6792 3.74222 11.8915 3.49588 11.0845 3.49538C9.99285 3.49471 8.94788 3.93823 8.18995 4.72393C7.42236 5.51553 6.99525 6.57622 7.00006 7.67886C7.00006 8.79143 7.42246 9.84555 8.18995 10.6347C8.75362 11.2197 9.48094 11.6207 10.2765 11.785V13.7085C9.47723 13.8685 8.74707 14.272 8.18617 14.8635C7.42017 15.655 6.99443 16.715 7.00006 17.8165C7.00006 18.9291 7.42246 19.9832 8.18995 20.7724C8.94664 21.5597 9.9925 22.0033 11.0845 22C12.1761 22.0009 13.221 21.5577 13.9791 20.7724C14.7486 19.9817 15.1757 18.9198 15.1681 17.8165C15.1755 16.7131 14.748 15.6512 13.9782 14.8606C13.4146 14.2753 12.6873 13.874 11.8916 13.7094V11.786C12.691 11.6262 13.4213 11.2227 13.9819 10.631C14.7497 9.8409 15.1758 8.78048 15.1681 7.67886C15.1681 6.84159 14.9239 6.03073 14.4722 5.34244L16.6191 3.13615L15.4858 2L15.4849 2.00094ZM11.0845 15.2547C11.7549 15.2547 12.3734 15.5159 12.8317 15.9968C13.3059 16.4956 13.5652 17.1339 13.5652 17.8165C13.5652 18.5048 13.304 19.1525 12.8345 19.6343C12.3796 20.1145 11.7459 20.3842 11.0845 20.3792C10.4245 20.3792 9.80035 20.1133 9.33364 19.6343C8.86372 19.1464 8.60172 18.4949 8.60292 17.8174C8.60292 17.1292 8.86504 16.4814 9.33364 16.0006C9.78854 15.5198 10.4227 15.2497 11.0845 15.2547ZM12.8317 9.51272C12.3772 9.99138 11.7445 10.2601 11.0845 10.2548C10.4245 10.2548 9.80035 9.98792 9.33364 9.50895C8.86372 9.02096 8.60172 8.36952 8.60292 7.69206C8.60292 7.00377 8.86504 6.35602 9.33364 5.87422C9.7887 5.39384 10.4229 5.12406 11.0845 5.12936C11.7445 5.12936 12.3687 5.39524 12.8345 5.87422C13.3108 6.35842 13.5739 7.01289 13.5652 7.69206C13.5652 8.38034 13.304 9.02715 12.8317 9.51178V9.51272Z" fill="#171EA9"/>
</svg>
