<svg width="24" height="24" viewBox="0 0 24 24" fill="none" xmlns="http://www.w3.org/2000/svg">
<path fill-rule="evenodd" clip-rule="evenodd" d="M11.3067 10.7777H3.13333V18.8022C3.12444 19.6233 3.45333 20.4133 4.04444 20.9933C4.64071 21.5761 5.44404 21.8982 6.27778 21.8888H11.3078V10.7777H11.3067ZM11.4956 6.57884H12.3756C13.2467 5.07884 14.0444 4.05884 14.7944 3.50773C15.7189 2.82662 16.6656 2.82106 17.4078 3.54995C18.1011 4.22995 18.2311 5.08328 17.7744 5.90551C17.6456 6.1344 17.4744 6.35884 17.26 6.57884H20.4911C21.2456 6.57884 22 7.19884 22 8.05995C22 8.80106 21.3678 9.54217 20.4911 9.54217H12.5644V7.56662H11.3067V9.54217H3.50889C2.75556 9.54217 2 8.92217 2 8.05995C2 7.31995 2.63222 6.57884 3.50889 6.57884H6.77556C6.57115 6.38838 6.38922 6.17514 6.23333 5.94328C5.69222 5.11662 5.75778 4.24328 6.46333 3.54995C7.20556 2.82106 8.15222 2.82773 9.07778 3.50773C9.82667 4.05884 10.6244 5.07995 11.4967 6.57884H11.4956ZM10.0344 6.57884C9.39 5.55328 8.81444 4.85662 8.32333 4.49551C7.86889 4.16217 7.62 4.15995 7.35222 4.42217C7.07778 4.69217 7.06111 4.92328 7.29111 5.2744C7.55333 5.67551 8.10556 6.12773 8.90111 6.57884H10.0344ZM13.8367 6.57884H15.1922C15.9511 6.14328 16.4522 5.70328 16.67 5.31217C16.8589 4.9744 16.8189 4.71773 16.5189 4.42328C16.2511 4.15995 16.0022 4.16106 15.5489 4.49551C15.0567 4.85662 14.48 5.55328 13.8378 6.57884H13.8367ZM12.5644 10.7766H20.7389V18.8022C20.746 19.6261 20.417 20.4173 19.8278 20.9933C19.2315 21.5761 18.4282 21.8982 17.5944 21.8888H12.5644V10.7777V10.7766Z" fill="#775BFD"/>
</svg>
