<svg width="24" height="24" viewBox="0 0 24 24" fill="none" xmlns="http://www.w3.org/2000/svg">
<path fill-rule="evenodd" clip-rule="evenodd" d="M14.1979 8.1547C14.1979 5.28285 12.5322 2.81305 11.2652 2.00896C11.26 2.00896 11.1683 1.96338 11.1761 2.07786C11.1761 2.07786 11.1761 2.07786 11.1761 2.08112C11.0707 7.62623 7.6977 9.12862 5.84274 11.153C1.56372 15.8245 5.54356 20.9464 9.59559 21.8932C11.8629 22.4228 9.07201 20.9562 8.71234 17.8576C8.27786 14.1138 14.1985 11.2544 14.1985 8.15416" fill="#1C2143"/>
<path fill-rule="evenodd" clip-rule="evenodd" d="M16.4216 10.0423C16.4082 10.0317 16.3898 10.0267 16.3715 10.0287C16.3531 10.0307 16.3369 10.0395 16.3272 10.0526C16.2525 10.7509 15.3464 12.2435 14.1985 13.6146C10.3032 18.265 12.523 20.5053 13.7712 21.7109C14.4957 22.4097 13.7712 21.7109 15.5825 20.9963C15.725 20.9421 19.1168 19.4435 19.485 16.0323C19.8407 12.7291 17.3198 10.6473 16.4222 10.0423" fill="#2EA7E0"/>
</svg>
