<svg width="24" height="24" viewBox="0 0 24 24" fill="none" xmlns="http://www.w3.org/2000/svg">
<path d="M7.296 18.472L9.46 16.308C11.4244 17.4684 13.9252 17.1518 15.5385 15.5385C17.1518 13.9252 17.4684 11.4244 16.308 9.46L18.472 7.296C20.7895 10.4797 20.4454 14.8765 17.6609 17.6609C14.8765 20.4454 10.4797 20.7895 7.296 18.472ZM5.528 16.704C3.21053 13.5203 3.55458 9.12355 6.33906 6.33906C9.12355 3.55458 13.5203 3.21053 16.704 5.528L14.54 7.692C12.5756 6.53163 10.0748 6.84821 8.4615 8.4615C6.84821 10.0748 6.53163 12.5756 7.692 14.54L5.528 16.704ZM20 6C18.8954 6 18 5.10457 18 4C18 2.89543 18.8954 2 20 2C21.1046 2 22 2.89543 22 4C22 5.10457 21.1046 6 20 6ZM4 22C2.89543 22 2 21.1046 2 20C2 18.8954 2.89543 18 4 18C5.10457 18 6 18.8954 6 20C6 21.1046 5.10457 22 4 22Z" fill="#1BBDC2"/>
</svg>
