<svg width="24" height="24" viewBox="0 0 24 24" fill="none" xmlns="http://www.w3.org/2000/svg">
<path fill-rule="evenodd" clip-rule="evenodd" d="M21 7V17L12.5 22L4 17V7L12.5 2L21 7ZM12.232 12.407L11.442 12.874L12.918 13.736L13.703 13.273L15.802 14.508L12.671 16.348L6.176 12.562L6.149 14.405L12.675 18.195L18.945 14.508L15.271 12.346L16.011 11.909L14.535 11.047L13.8 11.481L12.77 10.875L13.671 10.342L12.195 9.479L11.298 10.009L9.544 8.977L12.674 7.136L17.002 9.665L18.588 8.727L12.671 5.289L6.401 8.977L9.73 10.936L9.102 11.306L10.578 12.169L11.201 11.801L12.231 12.407H12.232Z" fill="black"/>
</svg>
