<svg width="24" height="24" viewBox="0 0 24 24" fill="none" xmlns="http://www.w3.org/2000/svg">
<path d="M9.90999 13.8245V9.44545H10.9327C11.1536 9.44545 11.3327 9.62181 11.3327 9.83908V10.2173C11.3327 10.6282 11.6891 10.9809 12.1045 10.9809C12.52 10.9809 12.8354 10.6282 12.8354 10.2173V9.85363C12.8354 9.62817 13.02 9.44454 13.2491 9.44454H14.3882V10.5518C14.3882 10.7773 14.2027 10.9609 13.9745 10.9609H13.5882C13.1755 10.9589 12.8389 11.291 12.8354 11.7036C12.8354 12.1136 13.2209 12.4464 13.6364 12.4464H13.9773C14.2045 12.4464 14.3882 12.6282 14.3882 12.8518V13.8245H15.3054C15.6236 13.8245 15.8809 14.0773 15.8809 14.3882V14.7218C15.8809 15.0327 15.6227 15.2854 15.3054 15.2854H14.9636C14.8125 15.2871 14.667 15.2287 14.559 15.1229C14.4511 15.0172 14.3896 14.8729 14.3882 14.7218V13.9709H13.2454C13.0182 13.9709 12.8354 13.7891 12.8354 13.5654V13.1909C12.8276 12.7726 12.4883 12.4366 12.07 12.4327C11.6545 12.4327 11.3318 12.7964 11.3318 13.2282V13.5682C11.3318 13.7909 11.15 13.9709 10.9245 13.9709H9.90999V14.7218C9.90999 15.0327 9.65272 15.2854 9.33454 15.2854H8.99363C8.84254 15.2871 8.69698 15.2287 8.58903 15.1229C8.48108 15.0172 8.41961 14.8729 8.41818 14.7218V14.3882C8.41818 14.0773 8.67545 13.8245 8.99363 13.8245H9.90999ZM15.3054 9.29908H14.3873V8.40272C14.3873 8.09181 14.6454 7.83909 14.9636 7.83909H15.3054C15.6236 7.83909 15.8809 8.09181 15.8809 8.40272V8.73636C15.8809 9.04727 15.6227 9.29999 15.3054 9.29999V9.29908ZM9.90999 9.29908H8.99363C8.84269 9.30078 8.69727 9.24245 8.58935 9.13691C8.48143 9.03138 8.41985 8.88729 8.41818 8.73636V8.40272C8.41818 8.09181 8.67545 7.83909 8.99363 7.83909H9.33454C9.65272 7.83909 9.90999 8.09181 9.90999 8.40272V9.29908ZM11.9782 7.98545C11.8271 7.98715 11.6815 7.92868 11.5736 7.82295C11.4656 7.71723 11.4042 7.57291 11.4027 7.42181V7.08818C11.4027 6.77727 11.6609 6.52545 11.9782 6.52545H12.32C12.6382 6.52545 12.8954 6.77727 12.8954 7.08909V7.42272C12.8938 7.57366 12.8322 7.71774 12.7243 7.82328C12.6164 7.92881 12.4709 7.98715 12.32 7.98545H11.9782ZM11.9782 16.8909C11.8271 16.8926 11.6815 16.8341 11.5736 16.7284C11.4656 16.6227 11.4042 16.4784 11.4027 16.3273V15.9936C11.4027 15.6827 11.6609 15.43 11.9782 15.43H12.32C12.6382 15.43 12.8954 15.6827 12.8954 15.9936V16.3282C12.8938 16.4791 12.8322 16.6232 12.7243 16.7287C12.6164 16.8343 12.4709 16.8926 12.32 16.8909H11.9782ZM16.4563 12.3645C16.3054 12.3662 16.16 12.3079 16.0521 12.2024C15.9441 12.0968 15.8826 11.9527 15.8809 11.8018V11.4682C15.8809 11.1573 16.1382 10.9045 16.4563 10.9045H16.7973C17.1154 10.9045 17.3727 11.1573 17.3727 11.4682V11.8018C17.3727 12.1127 17.1154 12.3654 16.7973 12.3654L16.4563 12.3645ZM7.35181 12.3645C7.20088 12.3662 7.05545 12.3079 6.94753 12.2024C6.83961 12.0968 6.77804 11.9527 6.77636 11.8018V11.4682C6.77636 11.1573 7.03363 10.9045 7.35181 10.9045H7.69272C8.0109 10.9045 8.26909 11.1573 8.26909 11.4682V11.8018C8.26909 12.1127 8.0109 12.3654 7.69272 12.3654L7.35181 12.3645ZM14.4118 16.9291C14.6767 16.8213 14.9791 16.9443 15.0936 17.2063C15.1464 17.3321 15.1462 17.4737 15.0932 17.5993C15.0401 17.7249 14.9387 17.8238 14.8118 17.8736C14.5472 17.9815 14.2448 17.8589 14.13 17.5973C14.0772 17.4714 14.0773 17.3296 14.1304 17.2039C14.1834 17.0782 14.2849 16.9791 14.4118 16.9291ZM9.63636 5.54272C9.90097 5.43488 10.2033 5.55744 10.3182 5.81909C10.3707 5.94482 10.3704 6.08638 10.3174 6.2119C10.2644 6.33741 10.1631 6.43632 10.0364 6.48636C9.77149 6.5948 9.46848 6.47214 9.35363 6.21C9.30113 6.08427 9.30142 5.9427 9.35443 5.81719C9.40744 5.69167 9.50872 5.59276 9.63545 5.54272H9.63636ZM17.4127 9.56817C17.36 9.44222 17.3602 9.30033 17.4135 9.17458C17.4667 9.04883 17.5683 8.94984 17.6954 8.89999C17.9601 8.79215 18.2624 8.9147 18.3773 9.17636C18.43 9.30219 18.4299 9.44399 18.3769 9.56972C18.3238 9.69545 18.2224 9.79451 18.0954 9.84454C17.8308 9.95238 17.5285 9.82983 17.4136 9.56817H17.4127ZM5.92 14.2391C5.86755 14.1132 5.86797 13.9716 5.92116 13.846C5.97435 13.7205 6.07583 13.6217 6.20272 13.5718C6.46759 13.4628 6.77096 13.5857 6.88545 13.8482C6.93795 13.9739 6.93766 14.1155 6.88465 14.241C6.83163 14.3665 6.73036 14.4654 6.60363 14.5154C6.33852 14.6245 6.03486 14.5017 5.92 14.2391ZM5.92 9.17636C6.03485 8.91421 6.33786 8.79156 6.60272 8.89999C6.72984 8.94984 6.8315 9.04883 6.88471 9.17458C6.93792 9.30033 6.93819 9.44222 6.88545 9.56817C6.77061 9.82983 6.46824 9.95238 6.20363 9.84454C6.07635 9.79487 5.97448 9.69595 5.92109 9.57018C5.8677 9.44441 5.86731 9.30242 5.92 9.17636ZM14.2627 6.48636C14.136 6.43632 14.0347 6.33741 13.9817 6.2119C13.9287 6.08638 13.9284 5.94482 13.9809 5.81909C14.0957 5.55744 14.3981 5.43488 14.6627 5.54272C14.7894 5.59276 14.8907 5.69167 14.9437 5.81719C14.9967 5.9427 14.997 6.08427 14.9445 6.21C14.8297 6.47165 14.5273 6.59421 14.2627 6.48636ZM17.4127 13.8482C17.5272 13.5861 17.8299 13.4634 18.0945 13.5718C18.2216 13.6215 18.3233 13.7203 18.3766 13.8458C18.43 13.9714 18.4306 14.1131 18.3782 14.2391C18.2633 14.5007 17.961 14.6233 17.6963 14.5154C17.5693 14.4658 17.4676 14.367 17.4142 14.2414C17.3609 14.1159 17.3603 13.9741 17.4127 13.8482ZM9.33727 18.0191C9.21037 17.9692 9.10893 17.8703 9.05589 17.7448C9.00285 17.6192 9.00269 17.4775 9.05545 17.3518C9.17029 17.0902 9.47265 16.9676 9.73727 17.0754C9.864 17.1255 9.96527 17.2244 10.0183 17.3499C10.0713 17.4754 10.0716 17.617 10.0191 17.7427C9.90424 18.0044 9.60188 18.1269 9.33727 18.0191ZM17.0127 16.5373C17.1304 16.4237 17.3169 16.4237 17.4345 16.5373C17.5518 16.6518 17.5518 16.8373 17.4345 16.9509C17.3173 17.0645 17.13 17.0645 17.0127 16.9509C16.9568 16.8968 16.9253 16.8223 16.9253 16.7445C16.9253 16.6667 16.9568 16.5923 17.0127 16.5382V16.5373ZM6.86363 6.46545C6.98 6.35181 7.16909 6.35181 7.28545 6.46545C7.40181 6.57909 7.40181 6.76545 7.28545 6.87909C7.16779 6.99269 6.98129 6.99269 6.86363 6.87909C6.80775 6.82497 6.77621 6.75051 6.77621 6.67272C6.77621 6.59494 6.80775 6.52047 6.86363 6.46636V6.46545ZM17.0127 6.87909C16.9568 6.82497 16.9253 6.75051 16.9253 6.67272C16.9253 6.59494 16.9568 6.52047 17.0127 6.46636C17.13 6.35181 17.3182 6.35181 17.4345 6.46636C17.5509 6.5809 17.5518 6.76454 17.4345 6.87909C17.3169 6.99269 17.1304 6.99269 17.0127 6.87909ZM6.86363 16.9509C6.80775 16.8968 6.77621 16.8223 6.77621 16.7445C6.77621 16.6667 6.80775 16.5923 6.86363 16.5382C6.98129 16.4246 7.16779 16.4246 7.28545 16.5382C7.40181 16.6518 7.40181 16.8373 7.28545 16.9509C7.16909 17.0645 6.98 17.0645 6.86363 16.9509ZM19.1636 11.6354C19.1636 11.4736 19.2982 11.3427 19.4627 11.3427C19.6273 11.3427 19.7609 11.4736 19.7609 11.6354C19.7584 11.7979 19.6252 11.9279 19.4627 11.9264C19.3002 11.9279 19.167 11.7979 19.1645 11.6354H19.1636ZM4.68636 11.6354C4.68636 11.4736 4.82 11.3427 4.98545 11.3427C5.14909 11.3427 5.28363 11.4736 5.28363 11.6354C5.28114 11.7979 5.14793 11.9279 4.98545 11.9264C4.82262 11.9284 4.68885 11.7983 4.68636 11.6354ZM12.15 4.92C12.0715 4.92121 11.9957 4.89112 11.9394 4.83636C11.8831 4.78161 11.8509 4.7067 11.85 4.62818C11.85 4.46636 11.9845 4.33545 12.15 4.33545C12.3136 4.33545 12.4482 4.46636 12.4482 4.62818C12.4457 4.791 12.3119 4.92111 12.1491 4.91909L12.15 4.92ZM12.15 19.08C12.0716 19.0812 11.996 19.0512 11.9397 18.9967C11.8835 18.9421 11.8512 18.8674 11.85 18.7891C11.85 18.6273 11.9845 18.4963 12.15 18.4963C12.3136 18.4963 12.4482 18.6273 12.4482 18.7882C12.4472 18.8665 12.4152 18.9413 12.3591 18.996C12.303 19.0508 12.2274 19.081 12.1491 19.08H12.15ZM21.4027 11.6345C21.4027 11.4736 21.5373 11.3436 21.7018 11.3436C21.8654 11.3436 22 11.4736 22 11.6345C21.9993 11.7129 21.9674 11.7878 21.9115 11.8427C21.8556 11.8976 21.7802 11.928 21.7018 11.9273C21.6234 11.9282 21.5479 11.898 21.4918 11.8433C21.4357 11.7886 21.4037 11.7138 21.4027 11.6354V11.6345ZM2.22364 11.4891C2.34727 11.4891 2.44818 11.5873 2.44818 11.7073C2.44818 11.8273 2.34818 11.9273 2.22364 11.9273C2.1 11.9273 2 11.8291 2 11.7082C2 11.5873 2.1 11.4891 2.22364 11.4891ZM11.7018 2.29182C11.7018 2.13091 11.8354 2 12 2C12.1645 2 12.2982 2.13091 12.2982 2.29182C12.2982 2.45273 12.1645 2.58364 12 2.58364C11.8354 2.58364 11.7018 2.45273 11.7018 2.29273V2.29182ZM20.5427 15.1145C20.6423 14.8904 20.9026 14.7867 21.1291 14.8809C21.2376 14.9246 21.3241 15.01 21.369 15.1181C21.414 15.2261 21.4137 15.3476 21.3682 15.4554C21.2693 15.6809 21.0073 15.7846 20.7809 15.6882C20.6726 15.6445 20.5863 15.5591 20.5415 15.4513C20.4968 15.3434 20.4972 15.2221 20.5427 15.1145ZM15.6973 19.8327C15.7702 19.8622 15.8282 19.9199 15.8582 19.9927C15.8881 20.064 15.8878 20.1444 15.8573 20.2154C15.8085 20.3244 15.7 20.3942 15.5806 20.3934C15.4613 20.3926 15.3537 20.3214 15.3064 20.2118C15.2761 20.1406 15.2761 20.0602 15.3064 19.9891C15.3376 19.9168 15.3966 19.8602 15.47 19.8318C15.5432 19.8032 15.6245 19.8039 15.6973 19.8336V19.8327ZM3.31091 7.71727C3.38364 7.74818 3.44091 7.80454 3.47091 7.87636C3.50114 7.9479 3.50081 8.0287 3.47 8.09999C3.42124 8.20893 3.31271 8.27876 3.19336 8.27797C3.07401 8.27718 2.9664 8.20593 2.91909 8.09636C2.88886 8.02481 2.88919 7.94402 2.92 7.87272C2.95116 7.80095 3.00977 7.74463 3.08273 7.71636C3.15605 7.68717 3.23782 7.6875 3.31091 7.71727ZM2.47818 15.2173C2.56122 15.0302 2.77846 14.9438 2.96727 15.0227C3.05772 15.0589 3.12973 15.1301 3.16704 15.2201C3.20434 15.3101 3.20377 15.4113 3.16545 15.5009C3.08208 15.6876 2.86493 15.7735 2.67636 15.6945C2.58592 15.6583 2.5139 15.5872 2.4766 15.4972C2.4393 15.4072 2.43987 15.3059 2.47818 15.2164V15.2173ZM15.5118 3.13818C15.4212 3.10215 15.349 3.03106 15.3115 2.94105C15.274 2.85103 15.2745 2.74969 15.3127 2.66C15.3957 2.47297 15.613 2.38656 15.8018 2.46545C15.8922 2.50167 15.9643 2.57282 16.0016 2.66282C16.0389 2.75282 16.0383 2.85406 16 2.94364C15.917 3.13016 15.7004 3.21648 15.5118 3.13818ZM21.0945 7.56272C21.1497 7.54063 21.2114 7.54095 21.2663 7.56363C21.3486 7.59751 21.402 7.6779 21.4014 7.76682C21.4008 7.85574 21.3463 7.9354 21.2636 7.96818C21.1499 8.01373 21.0206 7.96055 20.9718 7.84818C20.949 7.79437 20.9493 7.73355 20.9727 7.67999C20.9961 7.62624 21.0399 7.58402 21.0945 7.56272ZM7.98818 2.86364C8.03762 2.75143 8.16792 2.69963 8.2809 2.74727C8.3639 2.78046 8.41809 2.86109 8.41749 2.95047C8.41689 3.03986 8.36161 3.11975 8.27818 3.15182C8.22326 3.17376 8.16195 3.17344 8.10727 3.15091C8.05307 3.12898 8.00995 3.08622 7.98756 3.03221C7.96517 2.97821 7.96539 2.91748 7.98818 2.86364ZM8.04545 20.1018C8.07454 20.1018 8.10363 20.1082 8.13181 20.12C8.18594 20.1417 8.22906 20.1843 8.25145 20.2382C8.27385 20.292 8.27365 20.3526 8.2509 20.4063C8.2011 20.5182 8.07116 20.5698 7.95818 20.5227C7.90405 20.5009 7.86089 20.4584 7.83834 20.4046C7.81579 20.3508 7.81573 20.2902 7.83818 20.2363C7.87416 20.1541 7.95567 20.1012 8.04545 20.1018ZM18.6291 18.5563C18.5113 18.6705 18.3241 18.6705 18.2063 18.5563C18.1505 18.5022 18.1189 18.4278 18.1189 18.35C18.1189 18.2722 18.1505 18.1977 18.2063 18.1436C18.2629 18.0883 18.3391 18.0576 18.4182 18.0582C18.497 18.0578 18.5727 18.0885 18.6291 18.1436C18.6852 18.1978 18.717 18.2724 18.717 18.3504C18.717 18.4285 18.6852 18.5031 18.6291 18.5573V18.5563ZM4.66818 4.75727C4.84478 4.58628 5.12521 4.58628 5.30182 4.75727C5.3854 4.83857 5.43255 4.95021 5.43255 5.06682C5.43255 5.18342 5.3854 5.29506 5.30182 5.37636C5.126 5.54928 4.844 5.54928 4.66818 5.37636C4.58459 5.29506 4.53744 5.18342 4.53744 5.06682C4.53744 4.95021 4.58459 4.83857 4.66818 4.75727ZM18.7818 4.83909C18.8696 4.75268 19.0104 4.75268 19.0982 4.83909C19.1397 4.87978 19.1631 4.93549 19.1631 4.99363C19.1631 5.05178 19.1397 5.10748 19.0982 5.14818C19.01 5.23362 18.8699 5.23362 18.7818 5.14818C18.7398 5.10774 18.7161 5.05194 18.7161 4.99363C18.7161 4.93533 18.7398 4.87953 18.7818 4.83909ZM4.75182 18.1227C4.83957 18.0363 4.98042 18.0363 5.06818 18.1227C5.10995 18.1633 5.13351 18.219 5.13351 18.2773C5.13351 18.3355 5.10995 18.3912 5.06818 18.4318C4.98003 18.5172 4.83996 18.5172 4.75182 18.4318C4.71005 18.3912 4.68648 18.3355 4.68648 18.2773C4.68648 18.219 4.71005 18.1633 4.75182 18.1227ZM12.0745 22C11.871 22.002 11.7043 21.8389 11.7018 21.6354C11.7018 21.4336 11.8682 21.27 12.0745 21.27C12.2809 21.27 12.4473 21.4336 12.4473 21.6354C12.4448 21.8389 12.278 22.002 12.0745 22Z" fill="#005FFF"/>
</svg>
