<svg width="24" height="24" viewBox="0 0 24 24" fill="none" xmlns="http://www.w3.org/2000/svg">
<path d="M10.9943 12L18.4645 16.2827C18.7239 16.4325 19.0525 16.2423 19.0525 15.9426V8.05161C19.0525 7.75188 18.7239 7.56167 18.4645 7.71153L10.9943 12ZM18.0322 5.86703L13.0694 2.08005C12.8388 1.90713 12.5103 2.02817 12.4469 2.31061L10.637 10.7492L17.9919 6.52414C18.234 6.38003 18.257 6.03996 18.0322 5.86703ZM13.0694 21.9199L18.038 18.1272C18.2628 17.9543 18.2397 17.6142 17.9977 17.4758L10.637 13.2508L12.4526 21.6894C12.5045 21.9718 12.8388 22.0928 13.0694 21.9199Z" fill="#31CB9E"/>
<path d="M9.08095 11.9999L11.035 2.90998C11.1099 2.55261 10.7006 2.29322 10.4124 2.51802L5.40925 6.33959C5.14987 6.53557 5 6.84106 5 7.16385V16.8475C5 17.1702 5.14987 17.4757 5.40925 17.6717L10.4124 21.4875C10.7006 21.7066 11.1099 21.4472 11.035 21.0956L9.08095 11.9999Z" fill="#31CB9E"/>
</svg>
