<svg width="24" height="24" viewBox="0 0 24 24" fill="none" xmlns="http://www.w3.org/2000/svg">
<path d="M17.1787 20.7208L3.50788 11.1298C2.56268 10.4664 2 9.38411 2 8.22936C2 7.0746 2.56268 5.99228 3.50788 5.32893L6.8213 3L20.4921 12.5898C21.4373 13.2532 22 14.3355 22 15.4903C22 16.645 21.4373 17.7273 20.4921 18.3907L17.1787 20.7208ZM6.81891 4.55421L4.23731 6.3599C3.62799 6.78579 3.265 7.48237 3.265 8.22578C3.265 8.96919 3.62799 9.66577 4.23731 10.0917L17.1811 19.1666L19.7627 17.3609C20.372 16.935 20.735 16.2384 20.735 15.495C20.735 14.7516 20.372 14.055 19.7627 13.6292L6.81891 4.55421Z" fill="#48BEFF"/>
<path d="M6.807 19.1666L4.22897 17.3585C3.61964 16.9326 3.25665 16.2361 3.25665 15.4926C3.25665 14.7492 3.61964 14.0527 4.22897 13.6268L10.9035 8.96891L9.80695 8.19657L3.50788 12.591C2.56268 13.2544 2 14.3367 2 15.4914C2 16.6462 2.56268 17.7285 3.50788 18.3919L6.80938 20.7101L10.8951 17.8496L9.7986 17.0772L6.807 19.1666ZM20.4969 5.33488L17.1918 3.01668L13.1037 5.87718L14.2002 6.64952L17.187 4.55897L19.7651 6.36704C20.3744 6.79293 20.7374 7.48951 20.7374 8.23292C20.7374 8.97634 20.3744 9.67291 19.7651 10.0988L13.0906 14.7567L14.1871 15.529L20.4897 11.1262C21.4349 10.4628 21.9976 9.38052 21.9976 8.22577C21.9976 7.07102 21.4349 5.9887 20.4897 5.32534L20.4969 5.33488Z" fill="#3C91E6"/>
<path fill-rule="evenodd" clip-rule="evenodd" d="M4.28979 12.0344L9.48876 8.39682L10.2134 9.43137L5.01446 13.0702L4.28979 12.0344Z" fill="#3C91E6"/>
<path fill-rule="evenodd" clip-rule="evenodd" d="M19.0989 10.5684L16.5674 12.3372L17.2909 13.3729L19.913 11.5338C19.6341 11.2156 19.3647 10.8902 19.0942 10.5636L19.0989 10.5684Z" fill="#3C91E6"/>
</svg>
