<svg width="24" height="24" viewBox="0 0 24 24" fill="none" xmlns="http://www.w3.org/2000/svg">
<path d="M3.66667 7.90979V16.8333C3.66667 17.2936 3.29357 17.6667 2.83333 17.6667C2.3731 17.6667 2 17.2936 2 16.8333V7.36426C2.00009 6.85734 2.28315 6.39433 2.73201 6.15862C3.17492 5.92604 3.71054 5.95061 4.13008 6.22322L10.3033 10.2355C10.8413 10.5855 11.1668 11.18 11.1667 11.8189V16.8333C11.1667 17.2936 10.7936 17.6667 10.3333 17.6667C9.8731 17.6667 9.5 17.2936 9.5 16.8333V11.8188C9.50001 11.7462 9.46173 11.6763 9.39468 11.6327L3.66667 7.90979Z" fill="#37CFBB"/>
<path d="M20.3333 7.90979V16.8333C20.3333 17.2936 20.7064 17.6667 21.1667 17.6667C21.6269 17.6667 22 17.2936 22 16.8333V7.36426C21.9999 6.85734 21.7168 6.39433 21.268 6.15862C20.8251 5.92604 20.2895 5.95061 19.8699 6.22322L13.6967 10.2355C13.1587 10.5855 12.8332 11.18 12.8333 11.8189V16.8333C12.8333 17.2936 13.2064 17.6667 13.6667 17.6667C14.1269 17.6667 14.5 17.2936 14.5 16.8333V11.8188C14.5 11.7462 14.5383 11.6763 14.6053 11.6327L20.3333 7.90979Z" fill="#291A41"/>
</svg>
