<svg width="24" height="24" viewBox="0 0 24 24" fill="none" xmlns="http://www.w3.org/2000/svg">
<path d="M12 2C17.51 2 22 6.49 22 12C22 17.51 17.51 22 12 22C6.49 22 2 17.51 2 12C2 6.49 6.49 2 12 2ZM20.05 10.99L21.2 12.29V12C21.2 6.93 17.07 2.8 12 2.8C6.97 2.8 2.86 6.86 2.8 11.88L3.27 11.87L4.8 9.19H6.9L7.76 12.01L9.47 11.57L10.36 12.06L11.47 10.66L12.26 11.12L13.06 11.41L13.55 11.16L13.6 11.11C12.17 10.7 11.11 9.38 11.11 7.82C11.11 5.94 12.65 4.42 14.53 4.42C15.7244 4.42145 16.8311 5.04684 17.4486 6.06919C18.0661 7.09153 18.1046 8.3622 17.55 9.42H17.95L19.19 11.14L20.05 10.99ZM12 21.2C13.1133 21.2012 14.2177 21.0013 15.26 20.61C14.62 20.42 13.82 20.26 13.04 20.1C12.61 20.01 12.16 19.92 11.74 19.83C11.382 19.7472 11.0219 19.6738 10.66 19.61C9.49 19.39 8.72 19.24 8.6 18.65C8.5 18.16 8.89 17.69 10.02 16.91C10.56 16.55 10.62 16.34 10.61 16.3C10.61 16.28 10.43 15.8 7.77 15.51L7.46 15.48C7.44 15.9 6.98 16.2 6.35 16.2C5.7 16.2 5.23 15.88 5.23 15.44C5.23 15.42 5.23 15.4 5.25 15.34C5.187 15.3319 5.12349 15.3286 5.06 15.33C4.9389 15.3592 4.81454 15.3726 4.69 15.37C4.53545 15.3718 4.38 15.3518 4.23 15.31C3.95 15.31 3.67 15.3 3.41 15.3C4.74 18.75 8.09 21.2 12 21.2ZM16.28 20.14C18.82 18.8 20.65 16.32 21.09 13.4L19.74 11.87L18.82 12.03L17.52 10.24H17.37L16.77 10.72L16.02 9.71L14.77 11.04C14.8 11.02 14.84 11.01 14.87 11C15.32 10.86 15.67 10.65 15.79 10.24C15.9 10.61 16.23 10.82 16.61 10.96C16.66 10.98 16.71 10.99 16.76 11.01H16.77C17.53 11.3 18.06 11.9 18.11 12.61C18.22 12.76 18.38 12.88 18.56 12.97C18.68 13.01 18.81 13.05 18.92 13.11C18.94 13.11 18.95 13.12 18.96 13.12H18.95C19.6 13.45 20.04 14.03 20.04 14.7C20.04 14.95 19.89 15.45 18.75 15.64C18.3874 15.6995 18.1209 16.0125 18.12 16.38V17.3C18.12 17.53 17.92 17.72 17.68 17.7C17.47 17.68 17.32 17.49 17.32 17.28V16.38C17.3191 16.0125 17.0526 15.6995 16.69 15.64C16.5233 15.6154 16.3592 15.5752 16.2 15.52V17.09C16.2 17.39 15.98 18.1 13.88 18.1C11.79 18.1 11.56 17.39 11.56 17.09C11.56 16.26 12.23 15.56 13.16 15.31C13.52 15.17 13.8 14.97 13.9 14.62C14.03 15.05 14.44 15.26 14.88 15.4H14.87C15.07 15.47 15.25 15.57 15.41 15.68V14.38C15.4091 14.0125 15.1426 13.6995 14.78 13.64C13.64 13.45 13.49 12.94 13.49 12.7C13.49 12.46 13.55 12.23 13.65 12.02L13.13 12.29L11.93 11.85L11.67 11.7L9.45 14.51L8.82 14.01L9.86 12.7L9.37 12.43L7.23 12.98L6.32 9.99H5.27L3.75 12.65L2.83 12.68C2.88 13.2918 2.98636 13.8982 3.15 14.49H3.61C3.65 14.32 3.8 13.87 4.32 12.35L4.7 11.24L5.05 12.37C5.36 13.27 5.54 13.79 5.64 14.11C5.73 13.85 5.83 13.55 5.96 13.18L6.34 12.07L6.72 13.18C6.95 13.86 7.11 14.33 7.22 14.66C7.44 14.68 7.65 14.7 7.85 14.72C10.07 14.96 11.16 15.38 11.37 16.07C11.6 16.81 10.75 17.39 10.47 17.58C9.69 18.11 9.47 18.37 9.4 18.48C9.61 18.6 10.26 18.73 10.8 18.83C11.14 18.89 11.52 18.96 11.91 19.05C12.33 19.14 12.77 19.23 13.19 19.31C14.39 19.55 15.53 19.77 16.28 20.14ZM15.4 17.03C15.36 16.47 14.68 16.01 13.88 16.01C13.08 16.01 12.4 16.47 12.36 17.03C12.5 17.13 13.02 17.29 13.88 17.29C14.74 17.29 15.26 17.13 15.4 17.03ZM17.73 13.62C16.93 13.62 16.25 14.08 16.21 14.64C16.35 14.74 16.88 14.9 17.73 14.9C18.58 14.9 19.11 14.74 19.25 14.64C19.21 14.08 18.53 13.62 17.73 13.62ZM17.32 12.64C17.28 12.08 16.6 11.62 15.8 11.62C15 11.62 14.32 12.08 14.28 12.64C14.42 12.74 14.95 12.9 15.8 12.9C16.65 12.9 17.18 12.74 17.32 12.64ZM16.71 9.25C16.9892 8.82893 17.1387 8.33521 17.14 7.83C17.139 6.38895 15.971 5.221 14.53 5.22C13.1367 5.21263 11.9829 6.30028 11.9081 7.69162C11.8334 9.08295 12.8639 10.288 14.25 10.43L16.11 8.44L16.71 9.25ZM6.09 15.36C6.26636 15.4136 6.45364 15.4136 6.63 15.36L6.36 14.55L6.09 15.36ZM4.44 14.51C4.61 14.51 4.78 14.52 4.96 14.52C4.91 14.34 4.81 14.05 4.7 13.73C4.59 14.04 4.5 14.33 4.44 14.51ZM8.28 9.14C6.99912 9.139 5.961 8.10089 5.96 6.82C5.961 5.53912 6.99912 4.501 8.28 4.5C9.56089 4.501 10.599 5.53912 10.6 6.82C10.596 8.09964 9.55964 9.13601 8.28 9.14ZM8.28 5.3C7.44053 5.3 6.76 5.98053 6.76 6.82C6.76 7.65947 7.44053 8.34 8.28 8.34C9.11947 8.34 9.8 7.65947 9.8 6.82C9.8 5.98 9.11 5.3 8.28 5.3Z" fill="#35312E"/>
</svg>
