<svg width="24" height="24" viewBox="0 0 24 24" fill="none" xmlns="http://www.w3.org/2000/svg">
<path d="M11.6252 2L20.2869 6.98863V16.9968L11.6352 22L11.5652 21.9827L3 16.9968V6.98863L11.5652 2H11.6252ZM11.597 3.03539L3.90984 7.51178V16.4737L11.5961 20.9491L12.5351 20.406L19.377 16.4709V7.5136L12.5351 3.55582L11.597 3.03539ZM5.10081 12.6887L7.37631 10.9874L9.38795 12.272V14.583L10.9101 16.0497L10.9092 16.7375L9.44254 18.1114H8.20426L5.10172 12.6887H5.10081ZM12.2912 16.7393L12.2885 16.0479L13.8052 14.583V12.272L15.795 10.971L18.066 12.6897L14.9789 18.0959H13.7561L12.2912 16.7393ZM10.1349 12.272L9.39432 10.3332H13.7961L13.0701 12.272L13.2848 14.4393L11.5861 14.4429L9.90747 14.4456L10.1349 12.272ZM11.5861 9.80184L7.40269 9.80002L8.1806 6.32445H14.9716L15.7905 9.80457L11.5861 9.80184Z" fill="#F77920"/>
</svg>
