<svg width="24" height="24" viewBox="0 0 24 24" fill="none" xmlns="http://www.w3.org/2000/svg">
<path d="M9.02727 14.4136L11.8873 20.2155L13.3564 15.8764L9.02818 14.4136H9.02727ZM3.79727 11.8964L8.12818 13.3664L9.59909 9.03L3.79727 11.8964ZM9.28 13.7364C9.34818 13.7727 9.37636 13.7945 9.40818 13.8055C10.8045 14.28 12.1991 14.7582 13.5991 15.2209C13.7127 15.2573 13.8745 15.2264 13.9864 15.1718C15.5873 14.3909 17.1836 13.6009 18.78 12.8127C19.2345 12.5882 19.6873 12.3609 20.1827 12.1136C20.0736 12.0718 20.0173 12.0482 19.9582 12.0282C18.6064 11.5691 17.2545 11.1073 15.8982 10.6609C15.7549 10.6187 15.6014 10.6283 15.4645 10.6882C13.7627 11.5155 12.0673 12.3564 10.3709 13.1936C10.0173 13.3682 9.66545 13.5445 9.28 13.7364ZM15.1882 10.0409C14.1609 7.95546 13.1464 5.90091 12.1064 3.79091L8.94273 13.1245L15.1882 10.0409ZM2 12.0018C2.99455 11.51 3.93273 11.0427 4.87273 10.5791C6.47091 9.79091 8.06909 9.00182 9.67 8.21909C9.83052 8.14873 9.95168 8.01094 10.0009 7.84273C10.6264 5.97636 11.2609 4.11364 11.8936 2.25C11.9173 2.18091 11.9455 2.11364 11.9891 2C12.0527 2.12364 12.1 2.21091 12.1436 2.29909C13.3664 4.78091 14.5873 7.26273 15.82 9.73909C15.88 9.85909 16.0382 9.95909 16.1736 10.0055C18.0245 10.6436 19.8791 11.2709 21.7327 11.9009C21.8027 11.9245 21.8718 11.95 22 11.9955C21.8291 12.0818 21.7027 12.1482 21.5755 12.2109C19.1864 13.39 16.7982 14.5718 14.4055 15.7427C14.1869 15.8385 14.0226 16.0269 13.9573 16.2564C13.34 18.1055 12.7073 19.9491 12.0791 21.7945C12.0618 21.8455 12.0409 21.8945 12 22C11.8391 21.6773 11.7 21.4018 11.5636 21.1255C10.4509 18.8691 9.33727 16.6127 8.23091 14.3527C8.1547 14.1749 8.00352 14.04 7.81818 13.9845C5.96182 13.3636 4.10909 12.73 2.25545 12.1C2.18727 12.0764 2.12091 12.0482 2 12.0018Z" fill="black"/>
</svg>
