<svg width="24" height="24" viewBox="0 0 24 24" fill="none" xmlns="http://www.w3.org/2000/svg">
<path d="M6.8363 12.3222C4.16552 12.3241 2.00174 14.4903 2.00297 17.1611C2.00174 19.8315 4.16484 21.9975 6.83519 22C8.11815 21.9997 9.34842 21.4897 10.2553 20.5822C11.1622 19.6747 11.6713 18.4441 11.6707 17.1611C11.6713 15.8783 11.1623 14.6479 10.2557 13.7404C9.34906 12.833 8.11906 12.3228 6.8363 12.3222ZM6.8363 20.5367C4.97431 20.5354 3.46569 19.0253 3.4663 17.1633C3.46571 16.269 3.82043 15.411 4.45243 14.7782C5.08443 14.1453 5.94193 13.7895 6.8363 13.7889C7.73086 13.7892 8.58865 14.1449 9.22089 14.7778C9.85313 15.4106 10.208 16.2688 10.2074 17.1633C10.205 19.0245 8.69746 20.533 6.8363 20.5367ZM17.163 2C15.8802 2.00059 14.6502 2.51073 13.7436 3.4182C12.8369 4.32567 12.3279 5.55613 12.3285 6.83889C12.3273 9.50967 14.4911 11.6759 17.1619 11.6778C18.4448 11.6775 19.6751 11.1675 20.582 10.26C21.4888 9.35247 21.998 8.12185 21.9974 6.83889C21.998 5.55593 21.4888 4.32531 20.582 3.41781C19.6751 2.51031 18.4448 2.00029 17.1619 2H17.163ZM17.163 10.2144C16.2686 10.2142 15.411 9.85858 14.7788 9.22596C14.1466 8.59334 13.7916 7.73548 13.7919 6.84111C13.7913 5.94655 14.1461 5.08841 14.7784 4.45555C15.4106 3.82268 16.2684 3.46696 17.163 3.46667C18.0573 3.46726 18.9148 3.82311 19.5468 4.45594C20.1788 5.08877 20.5336 5.94674 20.533 6.84111C20.5305 8.70184 19.0237 10.2102 17.163 10.2144ZM6.8363 2C4.53511 2.00304 2.55392 3.62523 2.09692 5.88059C1.63992 8.13595 2.83336 10.4014 4.95186 11.3C7.07221 12.196 9.53026 11.4727 10.8274 9.57111C12.1259 7.66861 11.9052 5.11489 10.2996 3.46333H11.6696V2H6.8363ZM10.2074 6.83889C10.2077 7.73326 9.8527 8.59111 9.2205 9.22374C8.58829 9.85636 7.73067 10.2119 6.8363 10.2122C4.97431 10.211 3.46569 8.70088 3.4663 6.83889C3.46569 4.9769 4.97431 3.46678 6.8363 3.46556C8.69789 3.46862 10.2061 4.9773 10.2085 6.83889H10.2074Z" fill="#1A53F0"/>
</svg>
