<svg width="24" height="24" viewBox="0 0 24 24" fill="none" xmlns="http://www.w3.org/2000/svg">
<path fill-rule="evenodd" clip-rule="evenodd" d="M22 7.14818L21.96 6.50545L21.7618 7.04455L20.6473 7.98091L19.3709 8.17091L18.9891 7.81727L20.1082 6.33273L21.2536 6L20.0136 6.02545L18.2109 7.28182L16.5209 7.16545L14.1482 6L12.7464 6.27182L8.37273 9.76818L6.26545 10.42L5.39818 11.2664L3.84727 11.2873L3.07909 12.66L2 12.9582L3.02 13.0918L3.96818 11.8618L5.43364 12.1555L5.40636 13.4718L4.67455 15.3664L4.25636 17.1191L3.80636 17.8182L4.94818 17.5764L4.81818 16.86L5.78909 14.9345L7.65818 14.21L8.38182 13.0573L9.60454 12.2027L12.0318 12.5436L14.4764 11.5118L14.0627 13.1436L12.9755 13.2382L12.6655 14.5764L13.5955 13.9809L15.1373 13.3382L16.3418 11.5209L16.4182 10.6618L17.0655 11.3045L18.9482 12.44L20.0182 11.9518L19.9555 9.55273L19.6445 8.62455L21.0427 8.28364L22 7.14818Z" fill="#333366"/>
</svg>
