<svg width="24" height="24" viewBox="0 0 24 24" fill="none" xmlns="http://www.w3.org/2000/svg">
<path d="M21.9942 11.9615C22.0115 12.04 21.9721 12.12 21.8992 12.154L21.8359 12.184L19.9143 14.1106L20.6593 16.898C20.6837 16.9894 20.6297 17.0832 20.5384 17.108L17.8643 17.8255L17.1269 20.5838C17.1028 20.6748 17.0096 20.7292 16.9185 20.7054L14.0936 19.9471L12.0953 21.9496C12.0634 21.9818 12.0199 22 11.9745 22C11.9291 22 11.8856 21.9818 11.8536 21.9496L9.87953 19.9705L7.1446 20.7054C7.10095 20.7171 7.05444 20.711 7.01535 20.6883C6.97626 20.6656 6.9478 20.6283 6.93627 20.5846L6.19796 17.8264L3.52469 17.108C3.48075 17.0963 3.44329 17.0676 3.42061 17.0282C3.39793 16.9887 3.3919 16.9419 3.40386 16.898L4.12468 14.2006L2.04973 12.1198C1.98342 12.0529 1.98342 11.9451 2.04973 11.8782L4.06718 9.85405L3.34636 7.15745C3.322 7.06587 3.37646 6.97187 3.46803 6.94746L6.26379 6.19581L6.9921 3.47088C7.01652 3.37931 7.11052 3.32485 7.2021 3.34921L9.84703 4.06003L11.8536 2.04841C11.9213 1.98386 12.0277 1.98386 12.0953 2.04841L14.1261 4.08336L16.861 3.34838C16.9049 3.3367 16.9516 3.34297 16.9909 3.3658C17.0301 3.38862 17.0586 3.42613 17.0702 3.47004L17.0894 3.54171C17.0935 3.55248 17.0966 3.56365 17.0985 3.57504L17.7985 6.19498L20.5951 6.94662C20.6868 6.97162 20.7401 7.06495 20.7159 7.15662L19.9709 9.94321L21.8517 11.829C21.922 11.839 21.9787 11.8914 21.9942 11.9607V11.9615ZM19.8118 13.7281L20.9334 12.6048L19.6693 13.194L19.8118 13.729V13.7281ZM20.2209 16.5839L19.6351 14.3906L18.471 15.5572V15.5581L20.2209 16.5839ZM18.3793 15.9006L17.9668 17.4439L20.0543 16.883L18.3793 15.9014V15.9006ZM16.881 20.1805L17.4835 17.928L15.8385 18.3697L16.881 20.1805ZM14.7944 19.243L14.3719 19.6671L16.0294 20.1121L14.7944 19.243ZM12.1453 21.4146L13.7119 19.8438L12.1453 19.423V21.4146ZM11.8037 19.4538L10.2612 19.868L11.8028 21.4146V19.4538H11.8037ZM7.47959 20.2605L9.60121 19.6913L8.46457 18.5513L7.47959 20.2605ZM6.57961 17.928L7.05044 19.6896L7.1921 18.093L6.57961 17.928ZM4.00468 16.8822L6.09629 17.4439L5.67964 15.8881L4.00468 16.8822ZM5.51047 15.5906L4.40384 14.4806L3.84218 16.5805L5.51047 15.5906ZM2.61055 12.199L4.22717 13.819L4.65966 12.199H2.61055ZM4.34384 10.8865L4.16967 10.2365L2.80804 11.6015L4.34384 10.8865ZM3.78385 7.46828L4.34634 9.57406L5.47131 8.44659L3.78385 7.46828ZM5.73214 8.18493L6.16212 6.5783L3.95385 7.17162L5.7213 8.19576L5.73214 8.18493ZM7.20877 3.98503L6.64545 6.09331L8.18457 5.67999L7.20877 3.98586V3.98503ZM9.16038 4.74834L9.56787 4.34002L7.97125 3.91087L9.16038 4.74834ZM11.8037 2.5834L10.2287 4.16253L11.8037 4.58585V2.5834ZM12.1453 4.61668L13.7453 4.18669L12.1453 2.5834V4.61668ZM16.6419 3.76337L14.4053 4.36335L15.6036 5.56582L16.6419 3.76337ZM16.8944 5.95331L17.4177 6.09331L17.0152 4.58752L16.8944 5.95331ZM20.1026 7.16995L17.901 6.5783L18.326 8.17159L20.1018 7.16912L20.1026 7.16995ZM18.4985 8.46742L19.6918 9.66322L20.2809 7.46078L18.4985 8.46742ZM21.3667 11.8265L19.8693 10.3257L19.4676 11.8265H21.3667ZM19.3951 12.169L19.5785 12.8565L21.0543 12.169H19.396H19.3951ZM19.1368 13.0623L19.2643 13.004L19.2085 12.7956L19.1376 13.0623H19.1368ZM19.0218 13.494L18.6468 14.8948L19.5326 14.0073L19.3543 13.339L19.0218 13.494ZM17.9877 16.0414L16.0852 17.948L17.5852 17.5455L17.9877 16.0414ZM15.5986 17.9522L18.1643 15.3797L18.6176 13.6823L14.2986 15.6947L15.5986 17.9522ZM15.5252 18.5105L15.0402 18.9963L16.3269 19.9021L15.5252 18.5105ZM14.6161 18.698L14.7561 18.7963L14.9419 18.6097L14.6161 18.698ZM14.1853 18.813L12.692 19.2147L13.9911 19.5638L14.5111 19.0422L14.1861 18.813H14.1853ZM11.3712 19.2147L8.96539 18.568L9.98203 19.588L11.3712 19.2147ZM7.57376 17.658L7.55709 17.8355L7.82125 17.9063L7.57376 17.658ZM7.25793 17.3414L6.11713 16.1997L6.47712 17.5472L7.22293 17.7472L7.25793 17.343V17.3414ZM5.45714 15.0523L4.85382 12.7956L4.5055 14.0981L5.45714 15.0523ZM4.603 11.8565L4.433 11.2223L3.0722 11.8557H4.603V11.8565ZM4.98965 10.9624L4.74799 11.0757L4.85382 11.4723L4.98965 10.9624ZM5.10548 10.5315L5.55547 8.84657L4.44883 9.95655L4.658 10.7399L5.10548 10.5315ZM6.21546 7.69994L7.76459 6.14748L6.54295 6.4758L6.21546 7.70077V7.69994ZM8.45207 5.45833L8.91539 4.99417L7.68542 4.12836L8.45207 5.45833ZM9.41871 5.34833L9.19955 5.19417L8.90789 5.48583L9.41871 5.34833ZM9.84953 5.2325L11.3712 4.82418L9.94953 4.44252L9.44454 4.94751L9.84953 5.2325ZM12.6911 4.82418L14.9994 5.44416L14.0244 4.46668L12.6911 4.82418ZM16.5052 6.46913L16.5285 6.20914L16.1427 6.10581L16.5052 6.46913ZM16.8202 6.78579L17.8885 7.8566L17.5193 6.4758L16.8635 6.29914L16.8202 6.78579ZM18.5485 9.0024L19.2085 11.4723L19.5901 10.0465L18.5485 9.00324V9.0024ZM13.7369 14.7198L14.1269 15.3972L18.7335 13.2515L19.0226 12.1698H16.3435L16.2077 13.6981C16.2011 13.7718 16.1478 13.8328 16.0757 13.8493C16.0036 13.8658 15.9291 13.8341 15.891 13.7706L15.0594 12.3623L13.7369 14.7198ZM13.0836 15.8839L13.8161 15.5422L13.5419 15.0673L13.0836 15.8839ZM10.1787 15.5756L14.2511 18.4422L15.3202 18.1547L13.9869 15.8406L12.747 16.4189C12.6794 16.4508 12.5989 16.4351 12.5483 16.3801C12.4977 16.3251 12.4887 16.2436 12.5261 16.1789L13.3036 14.7931L10.612 14.8231L10.1787 15.5747V15.5756ZM10.007 15.8731L8.69873 18.143L12.032 19.038L13.8203 18.5572L10.007 15.8731ZM10.2145 14.8273L9.13372 14.8398L9.89786 15.3772L10.2145 14.8273ZM8.05624 12.199L7.61292 17.2139L8.39124 17.993L9.7262 15.6747L8.5029 14.8148C8.44235 14.7718 8.41626 14.6948 8.43826 14.6239C8.46025 14.553 8.52533 14.5042 8.59956 14.5031L10.2529 14.4839L8.90289 12.199H8.05708H8.05624ZM7.71459 12.199H5.04799L5.93963 15.5364L7.29793 16.8972L7.71459 12.199ZM8.69956 11.8565L8.16707 10.9549L8.08708 11.8565H8.69956ZM9.90787 8.67158L5.39464 10.7749L5.10548 11.8565H7.74459L7.87375 10.3949C7.8814 10.3219 7.93462 10.2618 8.00617 10.2454C8.07771 10.2291 8.15176 10.26 8.19041 10.3224L9.02622 11.7365L10.332 9.40906L9.90703 8.67158H9.90787ZM9.7362 8.37409L8.3779 6.01665L6.03879 8.36242L5.50964 10.3432L9.7362 8.37409ZM13.9086 8.50908L9.7837 5.60499L8.70373 5.89582L10.047 8.22909L11.3803 7.60744C11.4479 7.57553 11.5284 7.59124 11.579 7.64624C11.6296 7.70124 11.6386 7.78274 11.6012 7.84743L10.8212 9.2374L13.5061 9.2074L13.9086 8.50908ZM14.0803 8.21076L15.4061 5.90832L12.0311 5.00167L10.2145 5.48999L14.0803 8.21076ZM13.9036 9.2024L14.8786 9.1924L14.1894 8.70658L13.9036 9.20323V9.2024ZM16.0002 12.1698H15.3419L15.9144 13.1381L16.0002 12.1698ZM10.527 9.06157L11.0437 8.14243L10.2187 8.52658L10.527 9.0624V9.06157ZM13.4961 14.4506L14.8577 12.0223L13.4036 9.56072L13.3994 9.55156L10.627 9.58239L9.22705 12.0773L10.6478 14.4798L13.4794 14.4481C13.4853 14.4481 13.4903 14.4498 13.4961 14.4506ZM16.781 7.23078L16.3735 11.8273H18.9501L18.0652 8.51908L16.781 7.23078ZM16.031 11.8273L16.466 6.91412L15.6769 6.12331L14.3603 8.40825L15.5102 9.21657C15.5715 9.25929 15.5982 9.33675 15.5761 9.40813C15.554 9.47951 15.4883 9.52841 15.4136 9.52906L13.7928 9.54656L15.1402 11.8273H16.0302H16.031ZM16.5585 5.86332L16.6919 4.36085L15.9252 5.69249L16.5585 5.86332ZM7.52709 18.183L7.38959 19.7313L8.18124 18.358L7.52709 18.183Z" fill="#05BCA9"/>
</svg>
