<svg width="24" height="24" viewBox="0 0 24 24" fill="none" xmlns="http://www.w3.org/2000/svg">
<path fill-rule="evenodd" clip-rule="evenodd" d="M12.8333 7C15.1345 7 17 8.86548 17 11.1667V13.25C17 15.5512 15.1345 17.4167 12.8333 17.4167V22H10.3333V7H12.8333ZM12.8333 9.5V14.9167C13.7538 14.9167 14.5 14.1705 14.5 13.25V11.1667C14.5 10.2462 13.7538 9.5 12.8333 9.5ZM11.375 5.75C10.3395 5.75 9.5 4.91053 9.5 3.875C9.5 2.83947 10.3395 2 11.375 2C12.4105 2 13.25 2.83947 13.25 3.875C13.25 4.91053 12.4105 5.75 11.375 5.75ZM9.5 7V17.4167H7V9.5C7 8.11929 8.11929 7 9.5 7Z" fill="#5CA0F6"/>
</svg>
