<svg width="24" height="24" viewBox="0 0 24 24" fill="none" xmlns="http://www.w3.org/2000/svg">
<path d="M12 2C6.47727 2 2 6.47727 2 12C2 17.5227 6.47727 22 12 22C17.5227 22 22 17.5227 22 12C22 6.47727 17.5227 2 12 2ZM21.4909 11.5909L20.6818 11.5991L20.6782 11.26L21.4882 11.2527L21.4918 11.5909H21.4909ZM21.2836 9.84273L20.4809 9.95454L20.4345 9.61818L21.2364 9.50727L21.2836 9.84364V9.84273ZM20.5927 7.71364L20.7327 8.02273L19.9955 8.35727L19.8555 8.04909L20.5918 7.71364H20.5927ZM19.5818 6.17273L19.8055 6.42727L19.1964 6.96182L18.9736 6.70727L19.5818 6.17273ZM18.3955 4.90636L18.6518 5.12818L18.1236 5.74091L17.8664 5.52L18.3955 4.90636ZM16.9818 3.76182L17.2655 3.94636L16.8245 4.62545L16.5409 4.44182L16.9818 3.76182ZM15.3727 2.96818L15.7009 3.05455L15.4955 3.83727L15.1673 3.75091L15.3736 2.96909L15.3727 2.96818ZM13.6045 2.53364L13.9418 2.56091L13.8745 3.36818L13.5373 3.34L13.6045 2.53364ZM11.7736 2.32H12.1118V3.13H11.7736V2.32ZM10.27 2.53364L10.3373 3.34L9.99909 3.36909L9.93182 2.56182L10.27 2.53364ZM8.50091 2.96818L8.70636 3.75091L8.37909 3.83727L8.17273 3.05545L8.5 2.96818H8.50091ZM6.89273 3.76182L7.33364 4.44182L7.04909 4.62545L6.60818 3.94636L6.89273 3.76182ZM5.47909 4.90727L6.00727 5.52L5.75091 5.74091L5.22273 5.12818L5.47909 4.90636V4.90727ZM4.29364 6.17091L4.90273 6.70545L4.67818 6.96L4.07 6.42636L4.29364 6.17182V6.17091ZM3.28364 7.71273L4.02 8.04818L3.88091 8.35727L3.14364 8.02091L3.28364 7.71273ZM2.63909 9.50636L3.44182 9.61727L3.39455 9.95364L2.59273 9.84182L2.63909 9.50545V9.50636ZM2.38818 11.2518L3.19727 11.2591L3.19455 11.5982L2.38545 11.59L2.38818 11.2518ZM2.46273 13.1536L3.26818 13.0718L3.30182 13.4082L2.49636 13.49L2.46273 13.1536ZM2.82909 14.8755L3.61818 14.6918L3.69545 15.0218L2.90636 15.2055L2.82909 14.8755ZM3.71182 16.9327L3.54455 16.6382L4.24727 16.2364L4.41545 16.5309L3.71182 16.9327ZM4.85909 18.3755L4.61273 18.1427L5.17 17.5545L5.41545 17.7873L4.85909 18.3755ZM6.15455 19.5273L5.87909 19.3309L6.34909 18.6709L6.62455 18.8682L6.15455 19.5273ZM7.66727 20.5373L7.36727 20.38L7.74364 19.6636L8.04364 19.8209L7.66727 20.5373ZM9.34091 21.1809L9.00636 21.1245L9.14 20.3264L9.47454 20.3827L9.34091 21.1809ZM10.8036 21.4555L10.7973 20.6455L11.1364 20.6418L11.1427 21.4518L10.8036 21.4555ZM3.58182 12C3.58182 7.35818 7.35818 3.58182 12 3.58182C16.6418 3.58182 20.4182 7.35818 20.4182 12C20.4182 16.6418 16.6418 20.4182 12 20.4182C7.35818 20.4182 3.58182 16.6418 3.58182 12ZM12.66 21.5282L12.6491 21.5291L12.5755 20.7236L12.9127 20.6927L12.9236 20.6909L12.9973 21.4973L12.66 21.5282ZM14.4645 21.1482L14.3236 20.3509L14.6573 20.2918L14.7982 21.09L14.4645 21.1482ZM16.1864 20.5536L15.9091 19.7927L16.2273 19.6773L16.5045 20.4382L16.1864 20.5536ZM17.7145 19.6173L17.2145 18.9809L17.48 18.77L17.9809 19.4064L17.7145 19.6164V19.6173ZM19.0182 18.3473L18.4364 17.7855L18.6709 17.5409L19.2527 18.1045L19.0182 18.3473ZM20.0836 16.9791L19.4291 16.5018L19.6291 16.2282L20.2836 16.7045L20.0836 16.9791ZM20.9491 15.3518L20.1836 15.0845L20.2955 14.7645L21.06 15.0318L20.9491 15.3509V15.3518ZM21.4264 13.5064L20.6173 13.47L20.6327 13.1309L21.4418 13.1682L21.4264 13.5064ZM15.2145 16.3018H15.2136C15.3491 16.4473 15.3527 16.6691 15.2191 16.8018C15.0855 16.9336 14.8645 16.9273 14.72 16.7891V16.79L14.4673 16.5355L13.8927 15.9527C13.5199 16.1305 13.109 16.2139 12.6964 16.1955H11.1164C9.68545 16.2482 8.36364 15.5336 8.47091 13.21C8.47455 13.1127 8.46455 11.8618 8.46455 11.7627L8.46727 10.8245C8.46454 8.50636 9.03091 7.45545 10.5927 7.08364C10.77 7.04091 11.7364 7.02 11.9209 7.02H12.0036C12.1891 7.02 13.0418 7.04091 13.2191 7.08364C14.7809 7.45545 15.3473 8.50636 15.3445 10.8245L15.3473 11.7636C15.3473 11.8627 15.3373 13.1127 15.3418 13.2109C15.4 14.4655 15.04 15.0109 14.4718 15.5509L14.9627 16.0464L15.2145 16.3018ZM12.7973 15.4582C12.9782 15.4582 13.1573 15.4327 13.33 15.3818L13.0064 15.0545L12.7536 14.7982C12.6173 14.6527 12.6145 14.4318 12.7482 14.3C12.8818 14.1673 13.1027 14.1736 13.2473 14.3109L13.4991 14.5655L13.9527 15.0255C13.976 15.0043 13.9985 14.9821 14.02 14.9591C14.4436 14.5155 14.6455 14.1445 14.6045 13.2445C14.6018 13.1809 14.6009 13.18 14.6073 12.0509L14.6091 11.7627L14.6082 11.1282C14.6073 10.7409 14.6064 10.8773 14.6064 10.8236C14.6073 9.79636 14.4909 8.90364 14.2409 8.50091C14.0927 8.26091 13.8364 7.99182 13.0609 7.80454C12.7095 7.77571 12.3571 7.76025 12.0045 7.75818H11.9209C11.6873 7.75818 10.9055 7.78182 10.7527 7.80454C9.97636 7.99182 9.72 8.26091 9.57182 8.50091C9.32182 8.90364 9.20545 9.79636 9.20727 10.8236C9.20727 10.8782 9.20636 10.7409 9.20545 11.1282C9.2052 11.4358 9.2052 11.7433 9.20545 12.0509C9.21182 13.18 9.21182 13.1818 9.20818 13.2445C9.16727 14.1445 9.37 14.5155 9.79364 14.9591C10.1873 15.3718 10.6755 15.4591 11.0155 15.4591L11.0891 15.4573L11.1027 15.4564H12.7236C12.7482 15.4582 12.7727 15.4582 12.7973 15.4582Z" fill="#005FFF"/>
</svg>
