<svg width="24" height="24" viewBox="0 0 24 24" fill="none" xmlns="http://www.w3.org/2000/svg">
<path d="M15.3464 12.284C15.0934 11.5784 14.6419 10.9609 14.0464 10.5058L14.04 10.4985C13.9769 10.4507 13.9123 10.405 13.8464 10.3612L13.8336 10.3521C13.7687 10.3095 13.7026 10.2685 13.6354 10.2294L13.6173 10.2185C13.5514 10.1803 13.4838 10.1454 13.4145 10.1139L13.3945 10.103C13.3237 10.0697 13.2521 10.0379 13.18 10.0076L13.1563 9.99847C12.9228 9.90151 12.6804 9.82723 12.4327 9.77665C12.2899 10.0356 12.1063 10.2698 11.889 10.4703C12.3994 10.511 12.8924 10.6741 13.3263 10.9458L13.3509 10.9603L13.4709 11.0421L13.5254 11.0803C13.5618 11.1076 13.5954 11.1349 13.6327 11.1621L13.6936 11.2112C13.7263 11.2385 13.7563 11.2658 13.7873 11.294L13.8491 11.3531L13.9336 11.4385L13.9954 11.5049L14.0709 11.5931L14.13 11.6667L14.1982 11.7576C14.2209 11.7876 14.2364 11.8113 14.2545 11.8376C14.2727 11.864 14.2964 11.8985 14.3155 11.9304L14.3682 12.0176C14.3846 12.0467 14.4046 12.0795 14.4209 12.1104C14.4391 12.1404 14.4536 12.174 14.47 12.2067C14.4855 12.2395 14.5009 12.2667 14.5146 12.2976C14.5316 12.338 14.5479 12.3786 14.5636 12.4195C14.6499 12.6347 14.7109 12.8593 14.7455 13.0886L14.8446 13.4559C14.8864 13.6086 15.2728 14.9614 16.1682 15.4168C17.1946 15.9432 18.5538 16.5932 19.0884 16.8505L12.0281 20.9961V18.1551C12.0281 17.7069 12.9372 17.1824 13.3582 16.9978L13.3827 16.9842C13.4691 16.9414 13.5554 16.8951 13.6373 16.846L13.6727 16.8278C13.8548 16.7181 14.0281 16.5944 14.1909 16.4578L14.2345 16.4187L14.2845 16.3741C14.3357 16.3281 14.3858 16.2809 14.4346 16.2323L14.46 16.2078C14.5136 16.1541 14.5673 16.1032 14.6146 16.0405L14.6591 15.9896C14.6991 15.9423 14.7373 15.8941 14.7746 15.845L14.8073 15.8041C14.8527 15.7441 14.8946 15.6823 14.9364 15.6196L14.9509 15.6014C15.0073 15.5132 15.0573 15.425 15.11 15.3332C14.912 15.0942 14.7424 14.8331 14.6046 14.555C14.5482 14.7123 14.4773 14.865 14.3955 15.0114C14.3609 15.075 14.3245 15.1368 14.2882 15.1968L14.2718 15.2214C14.2375 15.2724 14.2017 15.3224 14.1645 15.3714L14.1318 15.4132C14.0948 15.461 14.056 15.5074 14.0154 15.5523L13.9936 15.5778C13.7306 15.865 13.4165 16.1008 13.0672 16.2732L13.0009 16.3069C12.8218 16.386 11.2435 17.086 11.2435 18.1506V20.9925L4.16147 16.8396C4.61694 16.5614 5.9479 15.7869 7.04248 15.4459C7.47068 15.315 8.3798 15.8759 8.89527 16.2878L8.92618 16.3151C8.99436 16.3787 9.06619 16.4396 9.14073 16.4969L9.16619 16.5196C9.32983 16.6505 9.50438 16.7678 9.68712 16.8714L9.80985 16.9378L9.83439 16.9505C9.95349 17.0105 10.0753 17.0651 10.1999 17.1133L10.2544 17.1342L10.2908 17.1487C10.4699 17.2142 10.6544 17.2651 10.8408 17.3033C10.9875 17.0411 11.1767 16.8051 11.4008 16.6051C11.102 16.5829 10.8079 16.5187 10.5271 16.4141L10.479 16.396L10.3862 16.3587L10.339 16.3387L10.249 16.2969C10.0405 16.1958 9.84387 16.072 9.66257 15.9278L9.38074 15.6769C9.12197 15.454 8.84181 15.2573 8.54435 15.0896C7.84432 14.6986 7.25885 14.5714 6.80974 14.7095C5.87335 14.9986 4.81876 15.5605 4.17511 15.9314L11.2463 3.46097V8.92207C11.2463 9.11571 10.9553 9.62119 9.98349 10.0503L9.91622 10.0867C9.82167 10.1321 9.72985 10.1812 9.63984 10.2339L9.62166 10.243C9.32241 10.4193 9.04788 10.6345 8.80527 10.883L8.79618 10.8921C8.70421 10.9867 8.61712 11.086 8.53526 11.1894L8.52526 11.2031C8.48575 11.2535 8.44725 11.3047 8.4098 11.3567L8.39707 11.3749C8.36336 11.4239 8.33062 11.4736 8.29889 11.524L8.28798 11.5394C8.25596 11.591 8.22534 11.6435 8.19615 11.6967L8.17525 11.734C8.14888 11.7849 8.12252 11.8394 8.09615 11.8867L8.08433 11.9113C8.06091 11.9591 8.03878 12.0077 8.01797 12.0567L7.99524 12.1113C7.97433 12.1622 7.95524 12.2167 7.93615 12.2658L7.91796 12.3204C7.90406 12.3594 7.89132 12.3988 7.87978 12.4386C7.87342 12.4604 7.86614 12.4813 7.86069 12.504C7.8085 12.6866 7.77051 12.8729 7.74705 13.0613L7.73796 13.1459C7.73366 13.1842 7.73032 13.2227 7.72796 13.2613C7.72614 13.3004 7.72796 13.3386 7.72159 13.3768C7.71523 13.4159 7.72159 13.424 7.72159 13.4495V13.5359C7.72159 13.7268 7.73614 13.9177 7.76523 14.1077C8.06978 14.182 8.36454 14.2919 8.64344 14.435C8.55782 14.1605 8.5119 13.8752 8.50708 13.5877V13.5359C8.50708 13.4668 8.50708 13.3986 8.51526 13.3259V13.2713C8.51526 13.2122 8.52708 13.1522 8.53526 13.0931V13.0677C8.54466 13.0019 8.5574 12.9367 8.57344 12.8722L8.58435 12.8222C8.59799 12.7677 8.61162 12.7149 8.6289 12.6613L8.63981 12.6267C8.65799 12.564 8.68072 12.5031 8.70436 12.4422L8.72254 12.4013C8.74254 12.3513 8.76436 12.3013 8.78708 12.2513L8.80436 12.2131C8.83254 12.154 8.86345 12.0967 8.89527 12.0395L8.91254 12.0113C8.94119 11.962 8.9712 11.9135 9.00255 11.8658L9.02527 11.8322C9.06255 11.7776 9.10073 11.7267 9.14164 11.6703L9.14892 11.6613C9.18801 11.6113 9.22892 11.5631 9.27074 11.5158L9.29347 11.4885C9.48529 11.2776 9.7053 11.0931 9.94803 10.9403L10.2826 10.7858C10.4617 10.7067 12.0327 9.98756 12.0327 8.92207V3.46097L19.1593 16.025C18.5229 15.7187 17.4047 15.1777 16.5319 14.7341C16.0337 14.4795 15.6937 13.5822 15.6064 13.2604L15.51 12.8831C15.4744 12.6807 15.4221 12.4815 15.3537 12.2876L15.3464 12.284ZM20.1738 16.2387L12.319 2.39639C12.1778 2.1499 11.9149 1.99847 11.6308 2.00001C11.3474 1.99912 11.0853 2.15047 10.9444 2.39639L3.09871 16.2396C2.89314 16.6028 3.01895 17.0639 3.38053 17.2724L11.2326 21.8907C11.482 22.0364 11.7906 22.0364 12.0399 21.8907L19.8911 17.276C20.2525 17.0679 20.3786 16.6074 20.1738 16.2441L20.1757 16.2387H20.1738Z" fill="#692F5A"/>
</svg>
