<svg width="24" height="24" viewBox="0 0 24 24" fill="none" xmlns="http://www.w3.org/2000/svg">
<path d="M8.12258 5.89588C9.5597 4.81586 11.2713 4.16131 13.0624 4.00685C13.2444 3.96993 13.4419 4.08499 13.4359 4.28591C13.4531 4.76676 13.4411 5.2476 13.4411 5.72845C13.4531 5.87785 13.3741 6.07191 13.2024 6.0762C11.6173 6.25136 10.1112 6.89879 8.80264 7.7935C8.67899 7.86305 8.70647 8.02362 8.71677 8.1404C8.80779 8.98359 8.74596 9.8328 8.77087 10.6786C13.0418 10.6906 17.3144 10.6769 21.5871 10.6854C21.7906 10.6683 22.0053 10.7842 21.9889 11.0117C22.0104 12.45 21.9932 13.8882 21.9975 15.3256C22.001 16.107 21.8344 16.9158 21.3613 17.5546C20.6142 18.5584 19.3005 19.1603 18.052 18.9388C17.1676 18.8066 16.4034 18.2579 15.8676 17.5615C14.4091 18.6585 12.6688 19.3181 10.8497 19.4634C10.665 19.466 10.5268 19.2848 10.5551 19.1079C10.5612 18.6048 10.5448 18.0999 10.5637 17.5967C10.6067 17.3305 10.9347 17.3821 11.1296 17.3383C12.6271 17.1047 14.0593 16.477 15.282 15.5866C15.219 14.6524 15.1969 13.7158 15.2159 12.7797C10.9295 12.7522 6.64141 12.778 2.35503 12.7659C2.16612 12.7874 1.98409 12.6457 2.00212 12.4457C1.99868 10.9319 1.99954 9.41721 2.00384 7.90341C2.01242 7.11173 2.26229 6.31147 2.78693 5.70784C3.47814 4.92131 4.52054 4.419 5.5784 4.48083C6.59161 4.52118 7.52153 5.09734 8.12258 5.89588ZM3.72973 8.16444C3.72801 9.05143 3.72715 9.93927 3.73144 10.828C4.79102 10.8271 5.84888 10.8426 6.90759 10.8194C6.90931 9.95387 6.92047 9.08921 6.90244 8.22369C6.88613 7.39423 6.13652 6.66094 5.30363 6.67811C4.49049 6.64463 3.74947 7.35645 3.72973 8.16358V8.16444ZM17.2183 12.7067C17.2097 13.5499 17.2166 14.394 17.2131 15.2371C17.208 15.5746 17.3101 15.9043 17.5051 16.1791C17.9121 16.7604 18.7226 17.0146 19.3855 16.7578C19.9977 16.5311 20.4022 15.8906 20.3953 15.2466C20.3953 14.4 20.3996 13.5551 20.3918 12.7084C19.334 12.6998 18.2761 12.7041 17.2183 12.7058V12.7067Z" fill="#CC1E46"/>
</svg>
