<svg width="24" height="24" viewBox="0 0 24 24" fill="none" xmlns="http://www.w3.org/2000/svg">
<path d="M8.47763 10.8022C7.79577 10.7987 7.11502 10.8577 6.4439 10.9782C6.99633 5.86947 11.2545 2 16.3241 2C19.4285 2 21.5551 3.52041 21.5551 6.66634C21.5551 9.81349 19.002 11.3339 15.2779 11.3339C12.528 11.3339 11.2276 10.8035 8.47763 10.8035V10.8022ZM8.27719 12.6661C4.55317 12.6661 2 14.1877 2 17.3337C2 20.4796 4.12662 22 7.23099 22C12.3007 22 16.5588 18.1318 17.1112 13.0218C16.4401 13.1423 15.7593 13.2013 15.0775 13.1978C12.3275 13.1978 11.0259 12.6661 8.27719 12.6661Z" fill="#5B6DEE"/>
</svg>
