<svg width="24" height="24" viewBox="0 0 24 24" fill="none" xmlns="http://www.w3.org/2000/svg">
<path fill-rule="evenodd" clip-rule="evenodd" d="M7.95052 2.04794C7.99027 2.01726 8.03923 2.00094 8.08943 2.00164C8.13952 2.00164 8.18827 2.01789 8.22834 2.04794L9.39239 2.92028C9.45856 2.97008 9.49314 3.05139 9.4831 3.13359C9.47306 3.21579 9.41993 3.28639 9.34373 3.3188C9.26752 3.35121 9.17982 3.3405 9.11365 3.2907L8.08943 2.52486L4.75842 5.02242L19.3901 15.9999C19.4487 16.0439 19.4833 16.1131 19.4833 16.1865C19.4833 16.2599 19.4487 16.329 19.3901 16.3731L18.3149 17.1787C18.2121 17.2554 18.0666 17.2343 17.9899 17.1315C17.9132 17.0287 17.9343 16.8832 18.0371 16.8065L18.8641 16.186L4.23149 5.21041C4.17249 5.16715 4.13763 5.09837 4.13763 5.0252C4.13763 4.95204 4.17249 4.88325 4.23149 4.83999L7.95052 2.04887V2.04794ZM11.6705 2.04794C11.7521 1.98471 11.8659 1.98396 11.9483 2.04609L19.3891 7.62741C19.4694 7.68677 19.5017 7.79151 19.4688 7.88578C19.4379 7.98083 19.3492 8.04514 19.2493 8.04506H15.5293C15.4793 8.04474 15.4307 8.02852 15.3904 7.99876L10.5074 4.33715C10.4409 4.28735 10.406 4.20587 10.4158 4.12338C10.4257 4.04089 10.4788 3.96994 10.5552 3.93724C10.6316 3.90455 10.7196 3.91508 10.7861 3.96487L15.6081 7.58018H18.552L11.8103 2.52393L7.14301 6.02441C7.0402 6.10139 6.89447 6.08045 6.8175 5.97765C6.74053 5.87485 6.76146 5.72911 6.86426 5.65214L11.6705 2.04794ZM5.25849 6.85879C5.36126 6.79669 5.49438 6.82272 5.5662 6.91895C5.63801 7.01519 5.62508 7.15021 5.5363 7.23106L4.75749 7.81448L19.3901 18.7919C19.4491 18.8356 19.4839 18.9046 19.4839 18.978C19.4839 19.0515 19.4491 19.1205 19.3901 19.1642L15.6701 21.9544C15.5875 22.0152 15.4749 22.0152 15.3923 21.9544L14.3153 21.1469C14.2488 21.0967 14.2141 21.0149 14.2242 20.9323C14.2344 20.8496 14.2879 20.7787 14.3645 20.7462C14.4412 20.7136 14.5294 20.7245 14.5959 20.7746L15.5312 21.4756L18.865 18.9753L4.22872 8.00061C4.17073 7.95628 4.13671 7.88746 4.13671 7.81448C4.13671 7.74149 4.17073 7.67267 4.22872 7.62834L5.25664 6.85971L5.25849 6.85879ZM4.3704 15.9517V15.9536H8.08851C8.13871 15.9529 8.18767 15.9692 8.22741 15.9999L13.0577 19.6217C13.1242 19.6713 13.1592 19.7526 13.1495 19.835C13.1397 19.9174 13.0868 19.9884 13.0105 20.0212C12.9343 20.0539 12.8464 20.0436 12.7799 19.9939L8.01442 16.4184H5.06865L11.8112 21.4747L16.4693 17.9816C16.5358 17.9317 16.6239 17.921 16.7004 17.9536C16.7769 17.9862 16.8302 18.0571 16.8402 18.1397C16.8503 18.2223 16.8155 18.3039 16.749 18.3539L11.9511 21.9507C11.911 21.9807 11.8623 21.997 11.8122 21.997C11.7617 21.9975 11.7125 21.9812 11.6723 21.9507L4.22964 16.3712C4.12909 16.37 4.04073 16.3043 4.01066 16.2083C3.98058 16.1124 4.01562 16.0079 4.09748 15.9496C4.17934 15.8912 4.28947 15.892 4.3704 15.9517Z" fill="#E7271C"/>
</svg>
