<svg width="24" height="24" viewBox="0 0 24 24" fill="none" xmlns="http://www.w3.org/2000/svg">
<path d="M20.7445 7.26624C19.9456 6.69926 19.0906 6.09428 18.2546 5.49429C18.2356 5.48029 18.2176 5.46629 18.1946 5.45229C18.0966 5.37185 17.9857 5.30862 17.8666 5.2653L17.8566 5.2603C15.6197 4.71139 13.3835 4.16008 11.1478 3.60634L5.16397 2.12939L5.00697 2.08739C4.82698 2.03639 4.61898 1.97939 4.39699 2.00739C4.33618 2.0167 4.27816 2.03923 4.22699 2.07339L4.171 2.12039C4.10087 2.19229 4.0473 2.27863 4.014 2.37338L4 2.41138V2.62637L4.01 2.65937C5.26996 6.24427 6.56393 9.88117 7.81189 13.4001C8.77287 16.11 9.77184 18.9159 10.7458 21.6718C10.8058 21.8588 10.9768 21.9818 11.1898 21.9998H11.2358C11.4254 22.0047 11.6025 21.9058 11.6978 21.7418L15.3577 16.329C16.2487 15.012 17.1406 13.6911 18.0326 12.3741L19.1276 10.7521C19.7276 9.86217 20.3475 8.9432 20.9625 8.04822L20.9945 8.00222V7.94522C21.0085 7.78123 21.0125 7.44424 20.7445 7.26524V7.26624ZM16.4567 9.23919C15.5967 9.69317 14.7197 10.1622 13.8367 10.6261L15.3807 8.94819C16.0227 8.24521 16.6926 7.51824 17.3486 6.80626L17.3626 6.79226C17.4176 6.71726 17.4876 6.64726 17.5616 6.57226C17.6116 6.52126 17.6676 6.46926 17.7186 6.40827C18.0606 6.64826 18.4066 6.89125 18.7396 7.13025C18.9796 7.30324 19.2246 7.47724 19.4746 7.65023C18.4651 8.17321 17.4591 8.70287 16.4567 9.23919ZM14.2487 9.01419C13.5877 9.74017 12.9037 10.4852 12.2248 11.2211C10.907 9.59968 9.58539 7.98139 8.25988 6.36627L6.48093 4.19633L6.47693 4.19133C6.34293 4.03733 6.21294 3.86834 6.08394 3.70934C6.00094 3.60135 5.91295 3.49835 5.82495 3.39035C6.36093 3.53035 6.90192 3.66234 7.4329 3.78834C7.89989 3.90134 8.38488 4.01833 8.86086 4.14033L16.9056 6.12227C16.0137 7.08825 15.1167 8.06722 14.2487 9.01419ZM11.9238 18.1479C11.9748 17.656 12.0308 17.15 12.0768 16.653C12.1188 16.254 12.1598 15.847 12.2018 15.458C12.2658 14.834 12.3358 14.188 12.3918 13.5551L12.4048 13.4431C12.4508 13.0391 12.4968 12.6231 12.5248 12.2051C12.5786 12.1747 12.6344 12.148 12.6918 12.1251C12.7608 12.0931 12.8298 12.0651 12.8987 12.0231C13.966 11.4543 15.035 10.8886 16.1057 10.3262C17.1736 9.76417 18.2686 9.18219 19.3546 8.6062C18.3692 10.0534 17.3879 11.5034 16.4107 12.9561C15.5837 14.178 14.7337 15.439 13.8877 16.681C13.5557 17.178 13.2087 17.6839 12.8808 18.1709C12.5108 18.7149 12.1318 19.2719 11.7628 19.8309C11.8088 19.2679 11.8638 18.7009 11.9238 18.1479ZM5.48396 4.49632C5.42396 4.32732 5.35796 4.15433 5.30296 3.99033C6.55093 5.51829 7.80689 7.05525 9.03186 8.54521C9.66484 9.31818 10.2978 10.0872 10.9308 10.8651C11.0558 11.0101 11.1808 11.1651 11.3008 11.3151C11.4578 11.5071 11.6148 11.7091 11.7858 11.9011C11.7298 12.3831 11.6838 12.8711 11.6328 13.3391C11.6008 13.6671 11.5688 13.9961 11.5318 14.329V14.333C11.5178 14.543 11.4898 14.755 11.4668 14.961L11.3608 15.894L11.3558 15.926C11.2728 16.873 11.1708 17.8289 11.0738 18.7569C11.0328 19.1409 10.9958 19.5349 10.9538 19.9289C10.9308 19.8589 10.9038 19.7879 10.8798 19.7219C10.8094 19.5309 10.7417 19.3389 10.6768 19.1459L10.1818 17.7539L5.48296 4.49632H5.48396Z" fill="#DD362C"/>
</svg>
