<svg width="24" height="24" viewBox="0 0 24 24" fill="none" xmlns="http://www.w3.org/2000/svg">
<path fill-rule="evenodd" clip-rule="evenodd" d="M13.3924 14.9653V9.91014H14.0571C16.2521 9.91014 16.7932 7.86208 16.7932 7.86208H11.0274C8.29137 7.86208 7.82764 9.91014 7.82764 9.91014H11.2284V17.5172C11.2284 17.5172 13.3924 16.8671 13.3924 14.9653Z" fill="#5AAFFF"/>
<path fill-rule="evenodd" clip-rule="evenodd" d="M19.7232 18.9045C21.662 16.8895 22.4064 14.0901 21.7085 11.4137C21.3518 10.0294 20.6073 8.75276 19.5681 7.72221C19.4751 7.62992 19.382 7.53763 19.2734 7.44534L19.1804 7.35306C19.1183 7.29153 19.0408 7.23 18.9787 7.18386L18.8547 7.09157C18.7926 7.04543 18.7306 6.99928 18.6686 6.95314L18.56 6.87623C18.4669 6.81471 18.4049 6.76856 18.3428 6.72242L18.2033 6.63013C18.1412 6.58398 18.0792 6.55322 18.0171 6.52246L17.8775 6.43017C17.8155 6.39941 17.7535 6.35326 17.6914 6.3225L17.5518 6.24559C17.4898 6.21483 17.4278 6.18407 17.3502 6.15331L17.3037 6.13792C17.4743 6.27636 17.6449 6.43017 17.8 6.58399C20.7779 9.53721 20.7779 14.3516 17.8 17.3048C14.0156 21.0579 7.87363 21.0579 4.0892 17.3048C3.94961 17.1664 3.82553 17.028 3.68595 16.8895L3.57738 16.7665C3.49983 16.6742 3.42228 16.5819 3.34473 16.4742C3.82553 17.4279 4.46144 18.2892 5.22143 19.0583C9.17647 22.9806 15.5976 22.9806 19.5526 19.0583C19.6302 19.0122 19.6767 18.966 19.7232 18.9045Z" fill="#5DC9BC"/>
<path fill-rule="evenodd" clip-rule="evenodd" d="M7.649 17.8621C7.47824 17.7235 7.30747 17.5695 7.15223 17.4156C4.17161 14.4595 4.17161 9.64043 7.15223 6.68433C10.9401 2.92763 17.0877 2.92763 20.8755 6.68433C21.1394 6.94607 21.3878 7.2232 21.6207 7.51574C21.1394 6.57656 20.503 5.69897 19.7423 4.94455C15.7836 1.01848 9.35666 1.01848 5.39801 4.94455C5.35144 4.99074 5.30487 5.05232 5.24277 5.09851C2.6192 7.83906 2.26214 11.9345 4.3579 15.0445C5.18067 16.2455 6.32946 17.2462 7.649 17.8621Z" fill="#5AAFFF"/>
</svg>
