<svg width="96" height="96" viewBox="0 0 96 96" fill="none" xmlns="http://www.w3.org/2000/svg">
<path d="M48 95C57.2957 95 66.3827 92.2435 74.1118 87.0791C81.8409 81.9147 87.865 74.5743 91.4223 65.9861C94.9796 57.398 95.9104 47.9479 94.0969 38.8308C92.2834 29.7137 87.8071 21.3391 81.234 14.766C74.6609 8.19293 66.2863 3.71662 57.1692 1.90311C48.0521 0.0896096 38.602 1.02036 30.0139 4.57768C21.4257 8.135 14.0854 14.1591 8.92093 21.8882C3.7565 29.6173 1 38.7043 1 48C1 60.4652 5.95177 72.4198 14.766 81.234C23.5802 90.0482 35.5348 95 48 95Z" fill="#2775C9"/>
<path d="M60.9433 55.4692C60.9433 48.6151 56.7721 46.3042 48.7037 45.1978C42.7406 44.3361 41.595 42.9359 41.595 40.1551C41.595 37.3742 43.6121 35.6411 47.47 35.6411C50.9852 35.6411 53.0121 36.8651 53.8444 39.6949C53.9327 40.0046 54.1186 40.2776 54.3743 40.4733C54.6301 40.6691 54.9421 40.7773 55.2642 40.7817H58.3485C58.55 40.7859 58.7499 40.7456 58.934 40.6638C59.1181 40.5819 59.2819 40.4604 59.4138 40.308C59.5456 40.1556 59.6422 39.976 59.6967 39.7821C59.7512 39.5881 59.7623 39.3844 59.7292 39.1857C58.75 34.7109 55.7342 32.0182 51.0048 31.1761V26.4565C51.0048 26.067 50.85 25.6934 50.5746 25.418C50.2992 25.1425 49.9256 24.9878 49.536 24.9878H46.5985C46.209 24.9878 45.8354 25.1425 45.56 25.418C45.2845 25.6934 45.1298 26.067 45.1298 26.4565V31.0096C39.2548 31.8321 35.5437 35.7096 35.5437 40.6838C35.5437 47.1169 39.4604 49.6138 47.6462 50.7203C53.2177 51.6309 54.8039 52.8353 54.8039 55.998C54.8039 59.1607 52.1112 61.2855 48.3121 61.2855C43.191 61.2855 41.4579 59.0432 40.8802 56.1351C40.813 55.8014 40.6335 55.5008 40.3716 55.2834C40.1097 55.066 39.7812 54.945 39.4408 54.9405H36.0921C35.8923 54.9392 35.6946 54.9816 35.5129 55.0648C35.3312 55.1479 35.1698 55.2698 35.0402 55.4218C34.9105 55.5739 34.8157 55.7524 34.7623 55.945C34.7089 56.1375 34.6982 56.3394 34.731 56.5365C35.5829 61.4324 38.726 65.0161 45.1298 65.8778V70.519C45.1298 70.9086 45.2845 71.2822 45.56 71.5576C45.8354 71.833 46.209 71.9878 46.5985 71.9878H49.536C49.9256 71.9878 50.2992 71.833 50.5746 71.5576C50.85 71.2822 51.0048 70.9086 51.0048 70.519V65.8778C57.0756 64.9182 60.9433 60.7274 60.9433 55.4692Z" fill="white"/>
<path d="M37.9909 76.0808C32.3332 74.0149 27.4474 70.2597 23.9953 65.3241C20.5432 60.3885 18.6917 54.511 18.6917 48.4879C18.6917 42.4649 20.5432 36.5874 23.9953 31.6518C27.4474 26.7161 32.3332 22.961 37.9909 20.895C38.3536 20.7358 38.6643 20.4779 38.8877 20.1507C39.111 19.8235 39.2379 19.4402 39.254 19.0444V16.3027C39.2775 16.0599 39.2368 15.8152 39.1358 15.5932C39.0348 15.3712 38.8772 15.1796 38.6788 15.0377C38.4804 14.8958 38.2481 14.8087 38.0053 14.7849C37.7626 14.7612 37.5178 14.8018 37.2957 14.9025C30.1709 17.1733 23.9529 21.6511 19.5405 27.6885C15.1281 33.7259 12.75 41.01 12.75 48.4879C12.75 55.9658 15.1281 63.25 19.5405 69.2874C23.9529 75.3248 30.1709 79.8025 37.2957 82.0733C37.5178 82.1741 37.7626 82.2147 38.0053 82.1909C38.2481 82.1672 38.4804 82.08 38.6788 81.9382C38.8772 81.7963 39.0348 81.6047 39.1358 81.3827C39.2368 81.1606 39.2775 80.9159 39.254 80.6731V77.9315C39.2379 77.5357 39.111 77.1523 38.8877 76.8251C38.6643 76.498 38.3536 76.2401 37.9909 76.0808Z" fill="white"/>
<path d="M58.8368 14.9025C58.6147 14.8018 58.3699 14.7612 58.1272 14.7849C57.8844 14.8087 57.6522 14.8958 57.4537 15.0377C57.2553 15.1796 57.0977 15.3712 56.9967 15.5932C56.8958 15.8152 56.855 16.0599 56.8785 16.3027V19.0444C56.8946 19.4402 57.0215 19.8235 57.2448 20.1507C57.4682 20.4779 57.7789 20.7358 58.1416 20.895C63.7993 22.961 68.6852 26.7161 72.1373 31.6518C75.5894 36.5874 77.4408 42.4649 77.4408 48.4879C77.4408 54.511 75.5894 60.3885 72.1373 65.3241C68.6852 70.2597 63.7993 74.0149 58.1416 76.0808C57.767 76.2231 57.4451 76.4767 57.2192 76.8077C56.9934 77.1386 56.8744 77.5308 56.8785 77.9315V80.6731C56.855 80.9159 56.8958 81.1606 56.9967 81.3827C57.0977 81.6047 57.2553 81.7963 57.4537 81.9382C57.6522 82.08 57.8844 82.1672 58.1272 82.1909C58.3699 82.2147 58.6147 82.1741 58.8368 82.0733C65.9616 79.8025 72.1797 75.3248 76.5921 69.2874C81.0044 63.25 83.3825 55.9658 83.3825 48.4879C83.3825 41.01 81.0044 33.7259 76.5921 27.6885C72.1797 21.6511 65.9616 17.1733 58.8368 14.9025Z" fill="white"/>
</svg>
