<svg width="24" height="24" viewBox="0 0 24 24" fill="none" xmlns="http://www.w3.org/2000/svg">
<path fill-rule="evenodd" clip-rule="evenodd" d="M2 4C3.104 4.002 4.209 4.002 5.31199 4L7.40299 15.18C7.43599 15.345 7.47599 15.508 7.51899 15.67C7.68299 15.02 7.78599 14.356 7.92299 13.7L9.82698 4L13.031 4.001C11.856 9.23299 10.681 14.466 9.50398 19.698H5.52699C4.35 14.469 3.175 9.23999 2 4.01V4ZM14.314 8.93199C15.011 8.05599 16.125 7.65899 17.199 7.58899C18.259 7.51499 19.401 7.61099 20.299 8.24299C21.094 8.79899 21.53 9.73899 21.737 10.674C21.988 11.846 22.001 13.05 22 14.244H16.13C16.135 15.127 16.08 16.038 16.375 16.884C16.518 17.3 16.785 17.714 17.209 17.865C17.661 18.012 18.205 17.916 18.535 17.552C18.975 17.054 19.067 16.356 19.163 15.717H21.827C21.767 16.777 21.571 17.897 20.877 18.73C20.181 19.596 19.059 19.95 17.997 19.993C16.843 20.037 15.59 19.88 14.67 19.103C13.815 18.39 13.442 17.26 13.294 16.177C13.146 14.93 13.138 13.668 13.207 12.415C13.3 11.193 13.521 9.89899 14.313 8.93099L14.314 8.93199ZM16.588 10.177C16.134 10.831 16.122 11.673 16.13 12.444H19.162C19.115 11.711 19.12 10.937 18.79 10.266C18.38 9.43799 17.084 9.43499 16.59 10.178H16.588V10.177Z" fill="#F77920"/>
</svg>
