<svg width="24" height="24" viewBox="0 0 24 24" fill="none" xmlns="http://www.w3.org/2000/svg">
<path d="M22 17.4625H20.03L18.6325 14.4708L17.24 17.45H15.575L14.7792 15.0333H12.0358L12.73 12.8896H14.0792L13.0517 9.74792L9.46417 20.6667H7.8L8.83833 17.4958H7.10417L6.16667 10.925L5.23667 17.4458H3.4775L2 7.21042H3.35L4.34333 14.1812L5.33333 7.24167H7L7.9875 14.1667L8.97417 7.23958H10.3283L8.83833 17.4958L9.17 16.4833L12.2133 7.22292H13.8883L16.4208 14.9479L17.6392 12.3292L13.7833 4H15.7625L22 17.4625Z" fill="#050708"/>
<path d="M20.0459 11.2708L19.1167 9.27917L20.0442 7.30417L21.9192 7.30833L20.0459 11.2708Z" fill="#F79020"/>
</svg>
