<svg width="24" height="24" viewBox="0 0 24 24" fill="none" xmlns="http://www.w3.org/2000/svg">
<path d="M14.4139 9.16741V6.67743C14.4141 6.62214 14.4074 6.56705 14.3939 6.51343C14.297 6.14768 13.9236 5.9282 13.5569 6.02143L10.1089 6.86543C9.804 6.93703 9.58781 7.2082 9.58594 7.52142V15.0764C9.58594 15.1324 9.59294 15.1864 9.60594 15.2404C9.70285 15.6061 10.0762 15.8256 10.4429 15.7324L12.6899 15.1824V10.6444C12.6899 10.0244 13.1199 9.48441 13.7339 9.33441L14.4139 9.16741Z" fill="#8200FF"/>
<path d="M6.82797 9.12542V6.67643C6.82777 6.62144 6.82071 6.56669 6.80697 6.51344C6.71005 6.14818 6.33735 5.92884 5.97098 6.02144L2.522 6.86543C2.21746 6.93743 2.00176 7.2085 2 7.52143V15.0764C2 15.1324 2.007 15.1864 2.02 15.2404C2.11691 15.6061 2.49029 15.8256 2.85699 15.7324L4.93098 15.2244V10.6444C4.93098 10.0244 5.36098 9.48442 5.97598 9.33442L6.82797 9.12542Z" fill="#8200FF"/>
<path d="M17.6949 6.88643C17.3903 6.95794 17.1742 7.22857 17.1719 7.54142V15.0974C17.1763 15.3072 17.276 15.5037 17.4427 15.6311C17.6095 15.7586 17.8252 15.8032 18.0289 15.7524L21.4778 14.9084C21.782 14.8365 21.9976 14.5659 21.9998 14.2534V6.69743C22.0001 6.64214 21.9933 6.58705 21.9798 6.53343C21.8825 6.16808 21.5093 5.94913 21.1429 6.04243L17.6949 6.88643Z" fill="#8200FF"/>
<path d="M8.89707 9.31541L6.14309 9.98941C5.83891 10.0613 5.62331 10.3319 5.62109 10.6444V18.2004C5.62109 18.2554 5.62809 18.3104 5.64109 18.3644C5.73845 18.7297 6.11169 18.9487 6.47809 18.8554L9.92607 18.0114C10.2302 17.9395 10.4458 17.6689 10.4481 17.3564V16.4164C9.76217 16.5055 9.11639 16.0727 8.93807 15.4044C8.91076 15.2972 8.89698 15.187 8.89707 15.0764V9.31541Z" fill="#36C8CC"/>
<path d="M16.4829 9.35741L13.9019 9.9894C13.5973 10.0609 13.3812 10.3315 13.3789 10.6444V18.2004C13.3789 18.2554 13.3859 18.3104 13.3989 18.3644C13.4963 18.7297 13.8695 18.9486 14.2359 18.8553L17.6849 18.0114C17.9891 17.9394 18.2047 17.6689 18.2069 17.3564V16.4054L18.1969 16.4074C17.4569 16.5884 16.7089 16.1484 16.5239 15.4254C16.4966 15.3182 16.4828 15.208 16.4829 15.0974V9.35741Z" fill="#36C8CC"/>
</svg>
