<svg width="24" height="24" viewBox="0 0 24 24" fill="none" xmlns="http://www.w3.org/2000/svg">
<path d="M11.5429 22H12.4747C12.5147 21.9918 12.5556 21.9818 12.5965 21.9764C12.9047 21.9427 13.2147 21.9245 13.5211 21.8764C15.9483 21.4873 17.9628 20.3527 19.5846 18.5109C19.6483 18.4382 19.6556 18.3909 19.5946 18.3109C18.8947 17.3836 18.1983 16.4555 17.501 15.5264C17.4792 15.4973 17.4528 15.4718 17.4247 15.4382L17.3274 15.5818C16.7012 16.5072 15.8471 17.2555 14.8474 17.7545C14.752 17.8036 14.6929 17.8045 14.6111 17.7227C14.2811 17.3882 13.942 17.0636 13.6065 16.7345L13.002 16.1464C10.9947 17.6464 8.99838 19.1373 6.99294 20.6373C7.02658 20.66 7.04203 20.6736 7.05931 20.6827C8.21239 21.3436 9.48684 21.7654 10.8065 21.9227C11.052 21.9518 11.2974 21.9745 11.5429 22ZM12.4247 2H11.5674C11.5238 2.00818 11.4793 2.01818 11.4347 2.02364C11.0393 2.07 10.6393 2.09364 10.2493 2.16455C8.21839 2.53273 6.46749 3.44818 4.99205 4.88727C4.76478 5.10818 4.55569 5.34727 4.33024 5.58727L6.57295 8.57545L6.66567 8.43909C7.29814 7.49774 8.16598 6.73833 9.18292 6.23636C9.26747 6.19364 9.31929 6.20091 9.38747 6.26818C9.81383 6.69 10.2447 7.10727 10.6738 7.52545C10.7511 7.60091 10.8293 7.67364 10.9102 7.75C12.9502 6.28636 14.9792 4.83182 17.0174 3.36818C16.9874 3.34727 16.9719 3.33455 16.9538 3.32455C15.7208 2.61647 14.3497 2.18237 12.9338 2.05182C12.7629 2.03545 12.5929 2.01727 12.4229 2L12.4247 2ZM3.32661 7.03091C2.11299 9.23091 1.71208 11.5382 2.20662 13.98C2.66844 16.2618 3.81933 18.1418 5.59205 19.6682L8.55566 17.4445C8.5402 17.4136 8.53747 17.4045 8.53202 17.4L8.43838 17.3364C7.49722 16.7038 6.73836 15.8356 6.23749 14.8182C6.1975 14.7391 6.20022 14.6891 6.26568 14.6236C6.4984 14.3936 6.72476 14.1573 6.95294 13.9236L7.8693 12.9836L3.32843 7.03091H3.32661ZM16.2129 11.0036L20.6883 16.9155C21.801 15.0464 22.3737 12.3918 21.731 9.70818C21.2165 7.55818 20.0956 5.77727 18.4074 4.33091L15.4265 6.56727C15.4838 6.60818 15.5165 6.63273 15.5501 6.65545C16.5043 7.2916 17.2728 8.16928 17.7774 9.19909C17.821 9.28636 17.8228 9.34182 17.7483 9.41545C17.5092 9.65182 17.2801 9.89545 17.0474 10.1373L16.2129 11.0036Z" fill="black"/>
</svg>
